<svg xmlns="http://www.w3.org/2000/svg" viewBox="0 0 68.38 32.13"><defs><style>.cls-1{fill:none;stroke:#000;stroke-miterlimit:10;}</style></defs><g id="Calque_2" data-name="Calque 2"><g id="Calque_1-2" data-name="Calque 1"><path class="cls-1" d="M18.39,18.65v3.09h2.79V27H18.39v4.34H13V27H.5V21.74L11,.76H17.1l-10.49,21H13V16h5.38v2.61"/><path class="cls-1" d="M24.88,15.48V9.62a9.27,9.27,0,0,1,1.24-4.87,7.93,7.93,0,0,1,1.56-1.88A9.35,9.35,0,0,1,34.21.5a9.4,9.4,0,0,1,6.54,2.37A8.75,8.75,0,0,1,43.5,9.62v12.9a8.75,8.75,0,0,1-2.75,6.75,9.43,9.43,0,0,1-6.54,2.36,9.39,9.39,0,0,1-6.53-2.36,8.65,8.65,0,0,1-2.8-6.75v-7m13,.19v-6a4.6,4.6,0,0,0-1-3,3.38,3.38,0,0,0-2.66-1.12,3.43,3.43,0,0,0-2.68,1.14,4.37,4.37,0,0,0-1,3V22.47a4.29,4.29,0,0,0,1,3,3.45,3.45,0,0,0,2.68,1.12,3.38,3.38,0,0,0,2.66-1.12,4.37,4.37,0,0,0,1-3V15.72"/><path class="cls-1" d="M65.09,19.17v2.57h2.79V27H65.09v4.34H59.71V27H47.2V21.74L57.69.76H63.8l-10.5,21h6.41V16h5.38v3.13"/></g></g></svg>