<svg xmlns="http://www.w3.org/2000/svg" viewBox="0 0 150.24 80.31">
    <g id="Calque_2" data-name="Calque 2"><g id="Calque_1-2" data-name="Calque 1">
        <path d="M.38,10.89c.09-.45.17-.91.27-1.36a4.59,4.59,0,0,1,3-3.68,29.87,29.87,0,0,1,23,.79c11,4.74,21.89,9.85,31.86,16.64a20,20,0,0,0,2.74,1.88l-2.74-4.5.88-.62a3.58,3.58,0,0,1-.62-1A1.22,1.22,0,0,1,59,18c1.09-.78.74-1.52,0-2.24-1.16-1.2-2.37-2.36-3.56-3.53a3.65,3.65,0,0,1-1.36-3.05c0-.47-.36-1-.4-1.46a24.93,24.93,0,0,0-1-4.36C52.37,2.15,53.36,1,54.6.52c.89-.35,1.37,0,1.4.85a5.46,5.46,0,0,1-.3,2A6.3,6.3,0,0,0,57,10.28c1,1.08,1.95,2.31,3.08,3.28,2.91,2.48,4.12,5.81,5,9.34.36,1.4.81,1.63,2.28,1-.4-1.16-1.3-2.5-.12-3.51a12.84,12.84,0,0,1,3.29-1.5c-1-2.58-1.94-2.75-4.6-.71l-.28-.24a7.47,7.47,0,0,1,1.4-1.55,2.51,2.51,0,0,1,3-.05A6.51,6.51,0,0,1,71.52,18c.43.69.89.85,1.57.43a3.32,3.32,0,0,0,.47-.2,2.91,2.91,0,0,1,4.22.23c.94.9,1.65.12,2.24-.76,1.31-1.95,3.58-2,4.77-.21a1.36,1.36,0,0,1,0,.94c-1.81-1.78-3-1.91-4.13.76a5.13,5.13,0,0,0,.87.55c3,1.1,3.38,1.84,2.16,4.76,1.07.34,1.6-.2,1.89-1.1.54-1.71,1-3.43,1.57-5.15a9.63,9.63,0,0,1,3.86-5.44,22.59,22.59,0,0,0,2.65-2.24c1.76-1.67,2.06-3.89,2-6.15,0-.39-.53-.78-1-1.4a7.69,7.69,0,0,1,1.66-1.25,1.48,1.48,0,0,1,1.35.37,2.07,2.07,0,0,1,.38,1.52c-.2,1.22-.67,2.41-.84,3.64a9.51,9.51,0,0,1-1.54,3.56c-1.15,1.94-2.88,3.11-4.49,4.49-1.19,1-1,1.7.42,2.85-.17.32-.34.66-.52,1a1.3,1.3,0,0,0-.26,1.05,5.21,5.21,0,0,1,0,1.58c-.38,1.12-.9,2.19-1.43,3.46.33-.1.46-.1.52-.17,3.87-4.07,8.81-6.49,13.78-8.83,6.52-3,13-6.24,19.65-8.92,3.58-1.44,7.52-2,11.32-2.83s7.5-.11,11.16.94a5.54,5.54,0,0,1,1,.38c2.93,1.41,3.69,3.39,2.47,6.41a31.29,31.29,0,0,1-5.84,9.33,92.38,92.38,0,0,1-9.05,9.29c-3.73,3.11-7.7,6.05-12.62,7.19a30.13,30.13,0,0,0-3.42.81c1.39.45,2.77.94,4.18,1.34a11,11,0,0,1,5.33,3.66,5,5,0,0,1-.11,5.77,39.33,39.33,0,0,1-5.57,4.89c-5.25,3.91-11.14,5.92-17.72,5-1.95-.28-3.76-1.38-5.68-2a2.91,2.91,0,0,0-2.14.18,6,6,0,0,1-7.31-.21c-.3-.22-.62-.4-.86-.55a22.39,22.39,0,0,0,.61,13.55,9.83,9.83,0,0,0,.63,1.8c.43.79.1,1.12-.6,1.29a5.51,5.51,0,0,1-1.28.13c-.77,0-.93-.53-.53-1,.78-1,.42-1.86.06-2.78-.46-1.19-1.11-2.33-1.46-3.55s-.43-2.53-.89-3.87c-.86,3.23-1.63,6.48-2.61,9.67a12.79,12.79,0,0,1-6.07,7.52,2.35,2.35,0,0,1-1.77.1,7.08,7.08,0,0,1-3.88-3.37c-.62-1.11-1.56-2-2.25-3.12a21.67,21.67,0,0,1-3.17-7.9c-.31-1.76-.71-3.51-1-5.27a20.55,20.55,0,0,1-.45-2.9c-.08-1.47,0-2.95-.14-4.44a5.77,5.77,0,0,0-.81,5.08,24.33,24.33,0,0,1,.69,2.6c.18,1.29.62,2.4-.14,3.92-1,2-1.08,4.54-1.49,6.86-.08.47.23,1,.28,1.49s.16,1.12-.08,1.34a1.53,1.53,0,0,1-1.4.22,1.46,1.46,0,0,1-.6-1.22,37.44,37.44,0,0,1,1-5.17c.9-3.08.33-6.1-.11-9.14a4.62,4.62,0,0,0-.32-.89c-1,.4-1.85.83-2.77,1.12a3.49,3.49,0,0,1-4.09-1c-.92-1.09-2-.88-3.17-.48a36.12,36.12,0,0,1-6.24,1.9c-5.77.83-11-1-15.61-4.3a43,43,0,0,1-6.12-5.65,4.26,4.26,0,0,1,.79-6.31c1.8-1.23,3.69-2.34,5.55-3.5L30.18,39c-.1-.16-.13-.27-.18-.28-5.41-.56-9.55-3.7-13.45-7A68.06,68.06,0,0,1,2.14,15.19,36.1,36.1,0,0,1,.38,11.41ZM119.8,40.11l-5.31-.91-.07.56,5.39.35c.11.25.19.71.34.73,2.28.36,3.7,2.09,5.37,3.38,1.07.82,1.39,2.16.62,2.93-2.27,2.27-4.34,5-7.07,6.46-3.73,2-7.72,4.1-12.33,3.15a2.45,2.45,0,0,0-.89.06,7.36,7.36,0,0,1-5.17-1.07,12.15,12.15,0,0,0-2.56-1.19,4.7,4.7,0,0,0-1.5,0,8,8,0,0,0,.47,1.5,1.58,1.58,0,0,0,.84.51c1.25.44,2.53.8,3.77,1.27a16.14,16.14,0,0,0,8.57.92c6.67-1.09,12-4.49,16.43-9.36a3.58,3.58,0,0,0,.58-4.5C125.51,42.18,122.84,40.85,119.8,40.11ZM77.24,43.46l.42.19c.45-3.06,2.65-5,4.32-7.3a5.32,5.32,0,0,0,.67-5.12c-.78,0-1.51,0-2.23,0a1.63,1.63,0,0,0-2,1.39,5.09,5.09,0,0,1-.74,1.21c-.61-2.46-.63-2.37-3.41-2.76-1.69-.23-1.9.76-2,2.1a11.54,11.54,0,0,1-.93-1.38c-.64-1-2.88-1.48-3.38-.76-.75,1.11-1.4,2.24-.59,3.68.64,1.15,1,2.45,1.65,3.62a16.32,16.32,0,0,0,1.48,2c1-1.12-.56-2.76,1.28-3.48a4.28,4.28,0,0,1,.4,1.17,1.82,1.82,0,0,0,2.12,2c.93-.07,1.86-.25,2.74-.38a4.5,4.5,0,0,1,.33-1.39c.19-.29.69-.39,1-.57a3.7,3.7,0,0,1,.31,1.1c0,.31-.28.61-.38.94C78,41,77.6,42.21,77.24,43.46Zm-16-10.79-.13.23a4.82,4.82,0,0,1-1.1-.51,5.93,5.93,0,0,0-4-1.16c-4.64,0-9.27,0-13.9,0-3.18,0-4.46,1.72-3.7,4.86.19.78.53,1,1.26.8,2.72-.58,5.43-1.23,8.17-1.65,4.83-.73,9.68-1.33,14.53-1.94a11.08,11.08,0,0,1,2.06.13l0,.38-1.35.42,1.26.53-.61.65c1.85.9,2.57,2.58,3.22,4.32a8.41,8.41,0,0,0,3.44,4.2c.69.44,1.48.75,2.1-.26a1.77,1.77,0,0,0-.47-.29c-3-.64-4.21-3-5-5.51a54.79,54.79,0,0,1-1.15-5.39c-1.56-.89-2.74-1.62-4-2.26a17.81,17.81,0,0,0-2.08-.78l-.4.55ZM33.74,38.21l.08-.32a3.94,3.94,0,0,0-.4-.26c-3-1.26-6.25-1.93-9.1-3.74-1.78-1.14-4-1.63-4.9-3.85-.13-.3-.57-.5-.9-.68a9,9,0,0,1-4.11-3.92c-.17-.35-.6-.57-.92-.85-.84-.75-2-1.35-2.49-2.28-1.19-2.21-3.71-3.43-4.36-6,0-.11-.14-.21-.24-.29a8.61,8.61,0,0,1-2.75-4.67c-.55-2-.39-2.67,1.22-4,.35-.3.67-.62,1-.94-4.06.76-5.3,4.74-3,8.33A74,74,0,0,0,15.5,29.5c3.06,2.82,6.14,5.64,10.19,7A25.56,25.56,0,0,0,33.74,38.21Zm55.93-5.05.17.38c7.37,1.48,15,1.25,22.36,3.69V35.54c0-3.17-.69-4.28-3.88-4.34-5.42-.08-10.86.24-16.28.54C91.22,31.79,90.46,32.67,89.67,33.16ZM57.57,30l0-.29c-2-.87-4-1.82-6-2.59a10.15,10.15,0,0,0-3.23-.6c-2.53-.07-5.1.29-7.59,0-2.87-.37-5.28.61-7.71,1.76-.35.16-.59.86-.61,1.32,0,.24.58.67.93.72,1.66.2,3.33.31,5,.43a5.57,5.57,0,0,0,1.15-.08,37.24,37.24,0,0,1,4-.53c4.24-.07,8.49,0,12.74,0C56.74,30.09,57.15,30.05,57.57,30Zm60.34-1.67a11.45,11.45,0,0,1-2-.69,9,9,0,0,0-5-1,59.44,59.44,0,0,1-7.18.12,14.88,14.88,0,0,0-9,2c-.71.42-1.43.81-2.14,1.21a2.53,2.53,0,0,0,1.45.35c3.6-.1,7.2-.14,10.79-.36s7.18.95,10.84.43C117.48,30.19,117.71,30.24,117.91,28.36Zm4.64-7.89a7.65,7.65,0,0,0-6.67-.06,11.76,11.76,0,0,1-6.5,1.08,3.8,3.8,0,0,0-2.13.21c-2,1.1-3.92,2.36-6.17,3.75a13.2,13.2,0,0,0,3.08.84,33.53,33.53,0,0,0,10.74-1.63,26,26,0,0,1,4.32-1.09C121.31,23.26,122.13,22.61,122.55,20.47ZM29.38,18.31c-2.31-1.24-4.38-2.45-6.54-3.45a9.43,9.43,0,0,0-5.79-.72c-2.43.46-4.87.93-7.29,1.48-.57.12-1.51.56-1.51.87a2.48,2.48,0,0,0,.82,1.88,4.84,4.84,0,0,0,2.46.63c.79,0,1.6-.4,2.4-.38,3.71.09,7.43.22,11.14.41C26.48,19.11,27.88,19.36,29.38,18.31Zm91.28.36.06.39a4.68,4.68,0,0,0,1.3.29c1.82-.08,3.66-.13,5.47-.39,4.06-.58,8.1-1.57,12.13.16a1.4,1.4,0,0,0,1.92-.81c.25-.49.49-1,.76-1.48.48-.86.08-1.24-.74-1.46a25.24,25.24,0,0,0-19,2A18.31,18.31,0,0,0,120.66,18.67ZM48.43,25.78l.12-.5c-1.85-1.21-3.67-2.46-5.57-3.59a2.64,2.64,0,0,0-1.84-.18A7.7,7.7,0,0,1,36,21.07c-1.1-.47-2.26-.82-3.31-1.38-2.08-1.12-3.72,0-5.49.75.7,1.81,1.77,2.87,3.72,2.7a1.86,1.86,0,0,1,.87.17c4.75,2.2,9.84,2.43,14.94,2.67A11.09,11.09,0,0,0,48.43,25.78Zm-19,15.27c-2.74.18-6,2.72-6.55,5a2.88,2.88,0,0,0,.84,3c1.72,1.55,3.43,3.11,5.07,4.73a16.25,16.25,0,0,0,6.89,3.83c4.75,1.46,9.42,1.66,14-.63a6.52,6.52,0,0,1,2-.39,3.24,3.24,0,0,0,2.67-3c-1.55.78-3,1.52-4.51,2.28a6.4,6.4,0,0,1-5.19.72,1.86,1.86,0,0,0-1.12,0c-3.24,1.15-6.13-.38-8.87-1.52-2.08-.86-4.41-1.46-6.07-3.55-1-1.29-2.36-2.37-3.11-3.93-1-2-.73-3.14,1.1-4.53C27.41,42.45,28.32,41.83,29.39,41.05Zm54.34,19.6c-1-.69-16-.94-18.44-.47.4,1.37.18,3,2.2,3.47a35.21,35.21,0,0,0,13.91.14,1.93,1.93,0,0,0,1.88-1.71c-1,.14-1.89,0-2.1-1.22Zm51.72-35.83a7,7,0,0,0-5.15-1.21c-2.56.21-5.11.44-7.67.62-1,.07-2.07-.09-3.07.08-1.63.28-3.23.76-4.84,1.15v.67a15.26,15.26,0,0,0,3.4,1.18c2.42.27,4.87.18,7.3.38,1.51.12,3,.53,4.51.76.53.08,1.26.26,1.57,0C132.83,27.37,134.06,26.13,135.45,24.82Zm-73,16.26-.29-.32c-1.82,1-3.56,2.21-5.46,3.05a22.94,22.94,0,0,0-11,10.46.87.87,0,0,1-.08.1c-.13.39-.47,1-.35,1.11A1.84,1.84,0,0,0,46.5,56a6,6,0,0,0,5-2.62,33.9,33.9,0,0,1,3.26-4.1c2.18-2.35,4.46-4.61,6.69-6.93C61.84,41.93,62.15,41.49,62.48,41.08ZM82.53,56.81c-.86-1.46-2.32-1.12-3.6-1.24a59.49,59.49,0,0,0-13.07,0c-1.19.16-1.3.88-1.29,1.81S64.93,59,66,59c5.22,0,10.44,0,15.58,0ZM36,26.06l-.08-.55A20.81,20.81,0,0,0,28,23.89c-3.25.08-6.51.24-9.76.45a13.67,13.67,0,0,0-2.48.63c.49.71.93,1.47,1.48,2.12A4,4,0,0,0,21.5,28.4c3.27-.6,6.62-.8,9.92-1.28C33,26.9,34.45,26.42,36,26.06ZM146.71,7.78c1.37,1.56,1.06,3.1.08,4.52a85,85,0,0,1-6.24,8.6c-3.29,3.64-7,7-10.48,10.38a13.16,13.16,0,0,1-1.9,1.28c-1.36.87-2.71,1.77-4.1,2.6a18.82,18.82,0,0,1-2.47,1.21c-.95.38-1.93.65-2.9,1l.13.36a15.18,15.18,0,0,0,7.75-2.58c3.85-2.66,8.07-4.85,11.08-8.64,2.33-2.94,5.09-5.56,7.26-8.61a40.12,40.12,0,0,0,3.62-7.31C149.15,9.15,148.46,8.19,146.71,7.78Zm-16.94,5.94a3.2,3.2,0,0,0-3.64-1c-4.65,1.31-9.32,2.53-13.95,3.9a5.14,5.14,0,0,0-2.3,1.67,6.68,6.68,0,0,0-.69,2.24,6.52,6.52,0,0,0,2.44.23c3.08-1,6.17-2,9.13-3.3,2.7-1.17,5.16-2.9,8.15-3.37A3.46,3.46,0,0,0,129.77,13.72ZM82,52.24A20.23,20.23,0,0,0,73.2,50.6L65.62,51c-.29,0-.8.07-.82.18a7.48,7.48,0,0,0-.23,2.72c.06.32,1.18.62,1.81.61,2.34-.05,4.69-.37,7-.32,2.91.06,5.82.4,8.73.59a11,11,0,0,0,1.61-.12l.07-.41-2.4-1.52Zm-60.44-39c.59.29,1,.53,1.49.75,3.9,1.8,7.83,3.54,11.68,5.43A12,12,0,0,0,40,20.6c1.07,0,1.26-.48,1-1.38A4,4,0,0,0,38,16.28c-1-.26-2.12-.35-3.14-.65-3.32-1-6.62-2-9.93-3.05A2.91,2.91,0,0,0,21.6,13.28ZM66.28,64.35c0,3.22.43,3.73,3.34,4.46a26.1,26.1,0,0,0,8.67.59c2.08-.19,2.08-.18,2.57-2.2.34-1.39.12-1.58-1.34-1.66-3.41-.17-6.83-.4-10.23-.66C68.29,64.8,67.3,64.53,66.28,64.35ZM90.21,42.24l-.26.24c.24.31.46.65.72.94,3.08,3.45,6.16,6.91,9.27,10.33a9.09,9.09,0,0,0,2,1.65,3.34,3.34,0,0,0,3.51.23C102.35,48.77,96.46,45.3,90.21,42.24Zm32.25-18.65a37.67,37.67,0,0,0,4.83-.41,14.72,14.72,0,0,1,8.59.36c1.23.48,3.51-1.78,3.17-3a1,1,0,0,0-.65-.65,17,17,0,0,0-4-.63c-2.65.12-5.27.6-7.92.79C124.26,20.16,123.26,21.49,122.46,23.59Zm-95.35-1c-.5-1.91-1.32-2.65-3.06-2.9a34.62,34.62,0,0,0-11.62.36c-1.2.23-1.48,1-.63,1.87a5,5,0,0,0,3.91,1.62c2.73-.12,5.47-.15,8.19-.32A24.26,24.26,0,0,0,27.11,22.63Zm13.54-5.46c.91,1.27,1.47,2.62,2.47,3.35C46,22.61,49,24.53,52,26.36A38.26,38.26,0,0,0,57,28.55a11.25,11.25,0,0,0,1.54.41l.27-.31a5.83,5.83,0,0,0-1-1.46c-1.13-.91-2.34-1.74-3.54-2.55Q49.13,21.21,44,17.81A3.26,3.26,0,0,0,40.65,17.17Zm84.12,17.2.11-.56-.56-.32a17.1,17.1,0,0,0-10.65-2c-.26,0-.64.63-.64,1,0,1.23.09,2.47.17,3.71s.5,1.68,1.72,1.32C118.22,36.53,121.49,35.43,124.77,34.37ZM21.63,12l-.1-.49a10.49,10.49,0,0,0-7.64-1.57c-2.4.43-4.77,1-7.13,1.61-.6.15-1.6.74-1.56,1a3,3,0,0,0,1.1,1.85,2.7,2.7,0,0,0,1.87.35q5.57-.84,11.12-1.84A12.49,12.49,0,0,0,21.63,12Zm111-2.47a5.29,5.29,0,0,0-1.1-.46,30.67,30.67,0,0,0-3.69-.34,10.79,10.79,0,0,0-4.12.36c-3.61,1.55-7.09,3.37-10.61,5.13a9.65,9.65,0,0,0-1.57,1.3c.43.14.64.29.79.25Zm-4,2a7.38,7.38,0,0,0,5.12,2.1,29.22,29.22,0,0,1,9,1,1.61,1.61,0,0,0,2.17-1.24c.24-1.11-.47-1.63-1.37-1.8-2.6-.5-5.21-1-7.83-1.34A11.89,11.89,0,0,0,128.61,11.54ZM37.46,31.88c-3-1.5-9.46-.33-11.13,2.27,3.05,1.08,6.05,2.17,9.07,3.21a1.79,1.79,0,0,0,1.25,0,1.48,1.48,0,0,0,.77-1C37.51,34.92,37.46,33.5,37.46,31.88ZM18.54,8.8c3.17,2.08,18.52,6.69,20.24,6.14a20.06,20.06,0,0,0-2.5-1.76c-2.86-1.44-5.81-2.73-8.65-4.21a6.21,6.21,0,0,0-4.42-.67A45.34,45.34,0,0,1,18.54,8.8ZM91.72,28.92a5.12,5.12,0,0,0,1.14-.26c2.79-1.4,5.59-2.75,8.32-4.26,1.64-.9,3.13-2.07,4.72-3.08a9.18,9.18,0,0,0,3.52-4.47C105.72,17.75,92.85,26.45,91.72,28.92Zm19,8.93c-7.21-2.14-14.77-2.13-22.34-3.68C95.44,38.54,102.76,40,110.67,37.85Zm-3,5-.05.38a11.49,11.49,0,0,0,1.45.62c4.46,1.22,8.94,2.39,13.39,3.65a2.56,2.56,0,0,0,2.49-.61c.9-.74.9-1.5-.13-2a8.74,8.74,0,0,0-2.89-1c-3.87-.47-7.76-.85-11.65-1.2A16.48,16.48,0,0,0,107.62,42.87Zm-64.47.25L43,42.7a2,2,0,0,0-.69-.18c-1.69.15-3.37.42-5.07.49-2.82.14-5.64.14-8.47.23-2,.06-3,1.28-2.74,3.16.16,1.07.57,1.29,1.64,1,4.46-1.17,8.95-2.22,13.42-3.37A12.15,12.15,0,0,0,43.15,43.12Zm17.41-9c-7,1.06-13.74,1.36-20.45,3.67C44.4,39.83,57.76,37.46,60.56,34.15ZM82.07,50.54a5.07,5.07,0,0,0-4.69-3.36c-1.58-.13-3.15-.27-4.73-.31a4.42,4.42,0,0,0-1.56.39,13.32,13.32,0,0,1-2,.83c-.91.19-1.88.12-2.81.25a4.14,4.14,0,0,0-1.11.56c.39.32.74.87,1.16.92a14.32,14.32,0,0,0,3.07,0c4-.36,7.93-.74,11.81.63A4.69,4.69,0,0,0,82.07,50.54ZM67.75,69.41c-.1,1.87.64,3.26,2.46,3.68a46,46,0,0,0,6.33.77,1.56,1.56,0,0,0,1.14-.44c.89-1,1.69-2,2.32-2.74a60,60,0,0,1-6.14-.05A59.48,59.48,0,0,1,67.75,69.41ZM31.28,29.89a2,2,0,0,0-2.17-1.95c-2.57.41-5.12.94-7.66,1.46a1,1,0,0,0-.7.61,1.05,1.05,0,0,0,.46.79c1.07.7,2.16,1.36,3.28,2a1.25,1.25,0,0,0,.93,0c1.74-.71,3.47-1.44,5.17-2.23C30.92,30.45,31.13,30.05,31.28,29.89Zm87.43.85A50.59,50.59,0,0,1,124.16,32a3.48,3.48,0,0,0,3.7-.41c.42-.35.93-.6,1.36-1a5.49,5.49,0,0,0,.71-.81c-.3-.2-.59-.54-.91-.58-2.69-.33-5.39-.68-8.1-.86C119.08,28.27,118.61,28.88,118.71,30.74ZM42.19,45.41,42,44.77a12.25,12.25,0,0,0-1.92.2c-3.23.83-6.45,1.71-9.67,2.57a17.68,17.68,0,0,0-2.21.67,4.53,4.53,0,0,0-1,.86,4.76,4.76,0,0,0,.89.85,3,3,0,0,0,3.05.22c.81-.39,1.7-.59,2.52-1C36.53,48,39.36,46.67,42.19,45.41ZM107.67,45c.23.38.26.49.32.52,4,1.64,8,3.31,12,4.88a2.42,2.42,0,0,0,3-1.68,8.17,8.17,0,0,0-1.24-.57c-4-1.11-8-2.21-12-3.25A7.62,7.62,0,0,0,107.67,45Zm-20.23-.21-.24,0a35.35,35.35,0,0,0,1.24,4.34,44.1,44.1,0,0,0,2.33,4.33l-.46.26-1.87-3-.41.2,1.26,3.4-1.11-.84c.1.93,0,1.76,1.27,2.09.75.19,1.08,1.88,1.85,2.13,1.79.59,3.53-.09,5.14-1.06-1.54-2.24-1.55-2.24-3.2-2,.55.82,2.1,1.36.56,2.86Zm-42.36.94-.26-.47a10.47,10.47,0,0,0-2,.47C39,47.49,35.17,49.26,31.32,51c-.11,0-.24.08-.35.14-.8.45-.77,1-.06,1.46a3.22,3.22,0,0,0,3.57,0c3.17-1.95,6.36-3.87,9.52-5.83A6.29,6.29,0,0,0,45.08,45.77Zm-2.21-1.6a11,11,0,0,0,7.48-.49c3.78-1.5,7.52-3.09,11.28-4.65.34-.14.66-.31,1-.47a1.85,1.85,0,0,0-1.06-.05C56,40,50.46,41.43,44.93,43A9.75,9.75,0,0,0,42.87,44.17Zm45.58-5.35a1.09,1.09,0,0,0,.29.24c4.93,1.92,9.84,3.88,14.81,5.7a4.22,4.22,0,0,0,4.06-.8C101.43,41.13,94.75,40.73,88.45,38.82Zm17.38,8.3a1.52,1.52,0,0,0,.33,2.27c1.86,1.64,3.73,3.27,5.56,5a2.54,2.54,0,0,0,2.73.53c1.24-.4,1.48-1.11.41-1.85C111.93,51,108.9,49.11,105.83,47.12ZM39,55.79c2.08.74,4.79.05,5.81-1.55,1.35-2.1,2.5-4.33,3.74-6.51a4.57,4.57,0,0,0-2.66.87c-2,1.86-3.86,3.88-5.76,5.84C39.76,54.83,39.45,55.27,39,55.79Zm81.12-4.09a5.32,5.32,0,0,0-.79-.5c-4.09-1.75-8.18-3.5-12.29-5.21a10.51,10.51,0,0,0-1.88-.44l-.15.36c.61.42,1.21.88,1.85,1.26,3.16,1.88,6.34,3.73,9.49,5.62C117.82,53.67,119.07,53.38,120.13,51.7ZM44.88,47.83c-4,1.22-7.23,3.59-10.39,6.3,1.13.39,2.43,1,3.29.57C40.9,53.27,43,50.65,44.88,47.83Zm56.74,0-.19.28,4.42,6.06a6.91,6.91,0,0,0,.81,1,3.77,3.77,0,0,0,4.79.19c-2.53-2.22-5-4.44-7.54-6.56A8.37,8.37,0,0,0,101.62,47.81ZM62.94,45.16l-.17-.1L54,56.67c1.1,1.59,2.54,2.16,4,1.65a4,4,0,0,0,2.44-4.21l-1.92,2.94-.26-.14.82-2.34a6.28,6.28,0,0,0-1.5,1.55c-.44.61-.85,1.23-1.34,1.94a4.37,4.37,0,0,1,2.18-5.17c.57-.24,1.4-1.15,1.29-1.49-.48-1.46.81-1.94,1.16-2.9l.44.11-.52,3.19c.65-.95,1.38-1.59,1.22-3C61.9,47.67,62.61,46.39,62.94,45.16Zm64.8-38c1.17,1.3,2.5.93,3.81.87,2.16-.11,4.34-.24,6.5-.17,2,.07,4,.25,6.17-.75A8.31,8.31,0,0,0,142,6a24.5,24.5,0,0,0-4.45,0C134.27,6.32,131,6.75,127.74,7.12ZM89.51,40.48c.09.24.1.35.16.38,3.46,2,6.88,4.13,10.42,6a5.51,5.51,0,0,0,4.73.11,14.27,14.27,0,0,0-2.08-1.51c-1.28-.6-2.62-1.06-3.94-1.55C95.76,42.79,92.7,41.66,89.51,40.48ZM133.08,8.39l0,.37a2.72,2.72,0,0,0,.58.26c3.86.7,7.73,1.41,11.6,2.06.92.15,1.33-.39,1.22-1.31a1.77,1.77,0,0,0-2.27-1.6,31.7,31.7,0,0,1-4.45.39c-1.88,0-3.75-.22-5.63-.32A5,5,0,0,0,133.08,8.39ZM29.64,42.27a4.89,4.89,0,0,0,1.27.23c2.94-.26,5.87-.51,8.79-.9.52-.06,1-.72,1.52-1.18C38.33,38.65,31.77,39.78,29.64,42.27Zm30.91-4.59-.12-.35a12.35,12.35,0,0,0-1.83.21c-2.44.63-4.83,1.5-7.3,1.9a75.15,75.15,0,0,1-7.81.57c-1,.06-1.57.38-1.24,1.7a8.6,8.6,0,0,0,2.92.3c4.78-1.15,9.52-2.46,14.26-3.74A5.72,5.72,0,0,0,60.55,37.68ZM109.3,40a2.06,2.06,0,0,0,2.06,2c1.74.25,3.47.55,5.21.77s3.57.39,5.35.58l.06-.44A25.17,25.17,0,0,0,109.3,40ZM7.61,6.51a68.38,68.38,0,0,0,15.68.73C18.22,5.43,11.55,4.69,7.61,6.51Zm38.1,40.36.26.37c5.69-.27,9.67-4.35,14.49-6.55-.16-.18-.26-.22-.32-.2-4.45,1.77-8.9,3.53-13.33,5.34C46.37,46,46.07,46.52,45.71,46.87ZM16.44,8.49c-3.39-.26-6.5-.49-9.6-.75a2.24,2.24,0,0,0-2.28,3.07Zm54,66-.17.28c1,1.18,2,2.4,3.12,3.5a1,1,0,0,0,1.86-.37c.42-1.28,1-2,2.46-1.23l.54-1.77Zm18.89-36.9-.12.44c.37.13.73.29,1.1.38,5.37,1.29,10.73,2.6,16.11,3.83A9.07,9.07,0,0,0,109,42c-.56-1.24-.93-2.12-2.25-1.92a26.45,26.45,0,0,1-13.35-1.54A35.6,35.6,0,0,0,89.37,37.54Zm-14-9.19c-1.06-1.31-.24-1.93.72-2.6a28.09,28.09,0,0,0,2.28-2c-1.48-.14-2.62-.29-3.76-.33s-2.3,0-3.66.07c.92,1.91,4.21,2,2.58,4.82ZM61.05,21l-.19,0a8.87,8.87,0,0,0,.38,1.73,1.5,1.5,0,0,0,2,.87,1.63,1.63,0,0,0,.53-1.44,36.58,36.58,0,0,0-1.59-4.55c-.13-.3-.79-.38-1.2-.57a3.87,3.87,0,0,0-.43,1.31A23.5,23.5,0,0,0,61.05,21Zm28.79-2.71-.64-.9c-.38.29-1,.51-1.11.89a25.53,25.53,0,0,0-1.25,3.89,5.46,5.46,0,0,0,.24,1.84c.6-.39,1.53-.66,1.73-1.19A36.06,36.06,0,0,0,89.84,18.33ZM67.76,29.06l-.05.49c3.72.82,13.92,1.13,14.9.35Zm23.12,1-.25-.35-5.73,3C88.92,34,89.87,33.25,90.88,30.05Zm-10.07-5.2c-.07-.15-.16-.62-.42-.76s-.7.12-.94.34a19.72,19.72,0,0,0-1.85,1.92c-.2.24-.4.79-.27.94a1.35,1.35,0,0,0,1,.35A3.19,3.19,0,0,0,80.81,24.85Zm-8.56,1.48-3.12-3.46c-.78.21-1.11.74-.41,1.65.51.68,1,1.37,1.59,2C71.21,27.48,71.5,27.42,72.25,26.33ZM92.54,46.25c.85,2.6,4.91,7.27,6.18,7.27Zm-8.2-2c-1.89-1.15-3.81-.64-6,1.54C80.61,46.15,82.33,44.81,84.34,44.28ZM75.13,21.07l1.29,1.51.33-.21V20.66c-1.72-.31-1.71-.3-3.07.93a3.83,3.83,0,0,1-1.05.45l-1,.45C73.16,22.8,74.49,22.58,75.13,21.07Zm10,24.39,1.59,5.4C87.86,48.66,86.92,45.66,85.12,45.46ZM79.39,28.31a2,2,0,0,0,2.38.83c.8-.23,1.38-.8.92-1.57-.22-.35-1.16-.49-1.69-.37S80,27.89,79.39,28.31ZM58.68,25.36l.23-.29a16.42,16.42,0,0,0-6.43-4.45l-.18.26Zm27,25.41v7.34C86.88,52.39,86.88,52.23,85.7,50.77ZM55,52.38l.29.25c1.87-2.22,4.17-4.11,5.45-6.8l-.32-.26ZM67.72,24.91c-.61,2.8.16,3.79,2.69,3.54Zm8.56,18.81c-.2-1.93-.84-2.41-2.73-2.19-.23,0-.43.26-.65.4.15.18.26.43.45.52C74.27,42.88,75.21,43.26,76.28,43.72Zm20-22.61.2.36,8.14-4.37-.25-.45ZM57.62,47.87l-.34-.29L52.39,53.2l.5.42Zm10.52-.93-2.52-.26c1.11,1.17,2.77,1.09,4.62-.25l-2.41-1.07ZM83.57,40a12.79,12.79,0,0,0-.41,2.47c0,.2.85.37,1.56.66C84.38,41.94,85.2,40.8,83.57,40Zm-5.78-19.7,2.36,2.48C80.2,20.26,79.5,19.53,77.79,20.32ZM70,45.16c-1.3-1.66-2.7-2.09-4.46-1.47Zm7-25.64c-1.44-1.59-2.38-1.55-3.11,0Zm6.6,28.27-2.07-.73.25-.62-.21-.14-1,.91C81.47,48.36,82.54,48.2,83.65,47.79ZM79.86,43.3l.27.24a4.26,4.26,0,0,0,2.19-2.94l-.43-.3ZM62,26c.8,1.95,2.38,3.34,3.16,3Zm8.31-3.55a2.51,2.51,0,0,0,2-2.5,1.6,1.6,0,0,0-1,.55A19.51,19.51,0,0,0,70.32,22.43Zm1,23.07,0,.14,4.67.31,0-.45ZM96.1,52.91l-2.53-3.16-.28.24C94.28,50.91,94.47,52.53,96.1,52.91ZM92,24.34l.41.45,2-1.8-.36-.4ZM84.42,27c1.27,1.13,1.61,1,2.11-.6Zm9.25-14.6-.28-.31-2.92,2.22.26.31Z" style="fill:#fff"/>
        <path d="M4,5.43A29.59,29.59,0,0,1,14.76,3.69c3.51.11,6.45.85,11.91,2.94A153.91,153.91,0,0,1,58.53,23.28a18.42,18.42,0,0,0,2.75,1.88c-.91-1.48-1.81-2.95-2.75-4.51l.88-.62a3.21,3.21,0,0,1-.62-1c-.07-.32,0-.87.21-1,1.09-.78.73-1.53,0-2.25-1.17-1.2-2.37-2.35-3.56-3.53a3.58,3.58,0,0,1-1.36-3c0-.47-.37-1-.39-1.46a26.76,26.76,0,0,0-1-4.37c-.3-1.21.69-2.36,1.92-2.85.89-.35,1.38,0,1.41.86a5.91,5.91,0,0,1-.29,2A6.23,6.23,0,0,0,57,10.27a41.48,41.48,0,0,0,3.07,3.28c2.9,2.48,4.12,5.82,5,9.34.36,1.41.81,1.63,2.29,1-.42-1.16-1.3-2.51-.14-3.52a12.88,12.88,0,0,1,3.3-1.49c-1-2.58-2-2.75-4.61-.71l-.27-.24a7.57,7.57,0,0,1,1.41-1.56,2.5,2.5,0,0,1,3,0A6.51,6.51,0,0,1,71.52,18c.44.69.89.84,1.57.43.14-.09.33-.11.47-.21a2.9,2.9,0,0,1,4.22.24c.94.89,1.65.11,2.25-.77,1.3-1.94,3.56-2,4.75-.2a1.25,1.25,0,0,1,0,.94c-1.8-1.78-3-1.91-4.14.75a4.47,4.47,0,0,0,.89.56c3,1.1,3.38,1.84,2.15,4.76,1.06.34,1.61-.2,1.89-1.1.54-1.71,1-3.44,1.56-5.16A9.81,9.81,0,0,1,91,12.76a22.5,22.5,0,0,0,2.65-2.23c1.78-1.68,2.06-3.89,2-6.15,0-.39-.53-.78-1-1.4a8.41,8.41,0,0,1,1.67-1.26,1.5,1.5,0,0,1,1.34.37,2.14,2.14,0,0,1,.4,1.52c-.21,1.23-.68,2.42-.85,3.65a9.44,9.44,0,0,1-1.55,3.56c-1.14,1.93-2.86,3.11-4.48,4.48-1.18,1-1,1.71.42,2.86-.16.32-.35.65-.53,1a1.36,1.36,0,0,0-.25,1.06,5.48,5.48,0,0,1,0,1.57c-.39,1.12-.9,2.2-1.42,3.46.31-.1.45-.1.51-.16,3.87-4.07,8.8-6.5,13.79-8.83,6.51-3.06,13-6.24,19.64-8.93,3.57-1.43,7.52-2,11.31-2.83s7.51-.1,11.17.94a6.49,6.49,0,0,1,1,.38c2.93,1.41,3.69,3.4,2.46,6.42a31.59,31.59,0,0,1-5.83,9.33,91.4,91.4,0,0,1-9.06,9.29c-3.72,3.11-7.69,6.05-12.62,7.18a32.19,32.19,0,0,0-3.4.82c1.39.45,2.77.93,4.16,1.34a11.1,11.1,0,0,1,5.34,3.65,5,5,0,0,1-.11,5.78,40.47,40.47,0,0,1-5.57,4.89c-5.24,3.91-11.13,5.92-17.73,5-1.94-.27-3.76-1.37-5.67-1.94a2.91,2.91,0,0,0-2.14.17,6,6,0,0,1-7.31-.21c-.3-.21-.63-.39-.87-.54a22.39,22.39,0,0,0,.61,13.55,11,11,0,0,0,.63,1.8c.44.78.11,1.12-.59,1.29a5.09,5.09,0,0,1-1.29.12c-.76,0-.93-.52-.52-1,.78-1,.42-1.85.07-2.77a36.54,36.54,0,0,1-1.47-3.56c-.34-1.22-.44-2.52-.89-3.86-.87,3.23-1.63,6.48-2.62,9.67a12.76,12.76,0,0,1-6.07,7.52,2.42,2.42,0,0,1-1.76.1,7.12,7.12,0,0,1-3.88-3.37c-.62-1.11-1.55-2-2.24-3.12a21.52,21.52,0,0,1-3.18-7.9c-.32-1.76-.7-3.51-1.05-5.27a22.11,22.11,0,0,1-.45-2.9c-.07-1.48,0-3-.13-4.44a5.7,5.7,0,0,0-.81,5.08c.21.87.56,1.72.69,2.6.18,1.29.62,2.4-.13,3.92-1,2-1.1,4.54-1.5,6.86-.07.46.24,1,.28,1.48s.15,1.12-.09,1.35a1.51,1.51,0,0,1-1.38.22,1.46,1.46,0,0,1-.61-1.22,36,36,0,0,1,1-5.17c.91-3.08.33-6.1-.1-9.14a4.62,4.62,0,0,0-.32-.89c-1,.39-1.84.82-2.76,1.12a3.53,3.53,0,0,1-4.11-1c-.91-1.09-2-.88-3.15-.48a36.34,36.34,0,0,1-6.24,1.89c-5.79.84-11-1-15.62-4.29a43.53,43.53,0,0,1-6.12-5.65,4.27,4.27,0,0,1,.8-6.32c1.8-1.23,3.69-2.33,5.54-3.49.39-.25.78-.48,1.17-.71-.09-.17-.14-.28-.17-.28-5.42-.57-9.56-3.71-13.46-7A68.63,68.63,0,0,1,2.14,15.19,36.26,36.26,0,0,1,.38,11.4v-.51c.09-.45.16-.91.27-1.36.5-2.29,2.68-3.93,3-3.74a.15.15,0,0,1,0,.06" style="fill:none;stroke:#000;stroke-miterlimit:10;stroke-width:0.75px"/></g></g></svg>