<svg xmlns="http://www.w3.org/2000/svg" viewBox="0 0 150.24 80.31"><g id="Calque_2" data-name="Calque 2">
    <g id="Calque_1-2" data-name="Calque 1">
        <path d="M.38,10.89c.09-.46.16-.91.27-1.37a4.56,4.56,0,0,1,3-3.67,29.87,29.87,0,0,1,23,.78c11,4.74,21.89,9.86,31.86,16.65a20.24,20.24,0,0,0,2.74,1.87l-2.74-4.5.88-.62a3.58,3.58,0,0,1-.62-1A1.23,1.23,0,0,1,59,18c1.09-.77.74-1.52,0-2.24-1.16-1.2-2.37-2.35-3.57-3.53a3.64,3.64,0,0,1-1.35-3.05c0-.47-.36-1-.4-1.46a24.93,24.93,0,0,0-1-4.36C52.37,2.14,53.36,1,54.6.51c.89-.35,1.37,0,1.4.85a5.49,5.49,0,0,1-.3,2A6.26,6.26,0,0,0,57,10.27c1,1.09,1.95,2.31,3.08,3.28,2.91,2.48,4.12,5.82,5,9.34.36,1.4.81,1.63,2.28,1-.4-1.16-1.3-2.51-.12-3.52a12.82,12.82,0,0,1,3.29-1.49c-1-2.58-1.94-2.76-4.6-.71l-.28-.25a7.73,7.73,0,0,1,1.4-1.55,2.52,2.52,0,0,1,3,0A6.34,6.34,0,0,1,71.52,18c.43.68.89.84,1.57.43.15-.09.33-.11.47-.21a2.9,2.9,0,0,1,4.22.24c.93.89,1.65.11,2.24-.77,1.31-1.94,3.58-2,4.76-.21a1.32,1.32,0,0,1,0,.95c-1.81-1.78-3-1.92-4.13.75a4.13,4.13,0,0,0,.87.55c3,1.1,3.38,1.85,2.16,4.77,1.07.34,1.6-.2,1.89-1.1.54-1.71,1-3.44,1.57-5.16a9.66,9.66,0,0,1,3.86-5.44,21.66,21.66,0,0,0,2.65-2.24c1.76-1.67,2-3.88,2-6.15,0-.39-.54-.78-1-1.39a7.49,7.49,0,0,1,1.66-1.26,1.48,1.48,0,0,1,1.35.37,2.13,2.13,0,0,1,.38,1.52c-.2,1.23-.67,2.41-.84,3.64a9.41,9.41,0,0,1-1.55,3.57c-1.14,1.93-2.87,3.1-4.48,4.48-1.19,1-1.06,1.7.42,2.86l-.52,1a1.33,1.33,0,0,0-.26,1.06,5.48,5.48,0,0,1,0,1.57c-.38,1.12-.9,2.19-1.43,3.46.33-.1.46-.1.52-.16,3.87-4.07,8.81-6.5,13.78-8.83,6.51-3.06,13-6.25,19.65-8.93,3.58-1.43,7.52-2,11.32-2.83s7.5-.1,11.16.94a5.88,5.88,0,0,1,1,.38c2.93,1.41,3.69,3.39,2.47,6.42a31.45,31.45,0,0,1-5.84,9.32,90.31,90.31,0,0,1-9.05,9.29c-3.73,3.11-7.7,6.06-12.62,7.19a35.12,35.12,0,0,0-3.42.81c1.39.45,2.77.94,4.18,1.34a11.09,11.09,0,0,1,5.33,3.66,5,5,0,0,1-.11,5.77,40,40,0,0,1-5.57,4.9c-5.25,3.91-11.14,5.91-17.73,5-1.94-.27-3.75-1.37-5.67-1.94a2.91,2.91,0,0,0-2.14.17,6,6,0,0,1-7.31-.21c-.3-.22-.63-.4-.86-.55a22.34,22.34,0,0,0,.6,13.56,11,11,0,0,0,.64,1.8c.43.78.09,1.12-.6,1.29a5.55,5.55,0,0,1-1.28.12c-.78,0-.93-.52-.53-1,.78-1,.42-1.86.06-2.77-.46-1.2-1.11-2.33-1.46-3.56s-.43-2.52-.89-3.86c-.86,3.22-1.63,6.48-2.62,9.67a12.74,12.74,0,0,1-6.06,7.52,2.4,2.4,0,0,1-1.77.09,7.1,7.1,0,0,1-3.89-3.37c-.61-1.11-1.55-2-2.24-3.11a21.74,21.74,0,0,1-3.17-7.9c-.32-1.77-.71-3.51-1-5.27a20.69,20.69,0,0,1-.45-2.91c-.08-1.47,0-3-.14-4.43a5.71,5.71,0,0,0-.81,5.07,24.5,24.5,0,0,1,.69,2.61c.18,1.28.62,2.39-.14,3.92-1,2-1.09,4.54-1.49,6.86-.08.46.23,1,.28,1.48s.16,1.12-.08,1.35a1.56,1.56,0,0,1-1.4.22,1.48,1.48,0,0,1-.6-1.23,37.3,37.3,0,0,1,1-5.16c.9-3.09.33-6.11-.11-9.15a4.87,4.87,0,0,0-.32-.89c-1,.4-1.85.83-2.77,1.13a3.53,3.53,0,0,1-4.1-1c-.91-1.09-2-.87-3.16-.48a35.26,35.26,0,0,1-6.24,1.9c-5.78.83-11-1-15.61-4.29a43.06,43.06,0,0,1-6.12-5.66,4.26,4.26,0,0,1,.79-6.31c1.8-1.23,3.69-2.34,5.55-3.49.38-.25.78-.48,1.17-.71-.1-.17-.14-.28-.18-.28-5.41-.57-9.55-3.71-13.45-7A68.31,68.31,0,0,1,2.13,15.18,37.15,37.15,0,0,1,.38,11.4ZM119.8,40.1l-5.31-.91-.07.56,5.39.35c.11.26.19.72.34.74,2.28.36,3.7,2.08,5.37,3.37,1.07.82,1.39,2.17.62,2.94-2.27,2.26-4.34,5-7.08,6.46-3.72,2-7.71,4.1-12.32,3.14a2.52,2.52,0,0,0-.9.06,7.29,7.29,0,0,1-5.16-1.07,13.53,13.53,0,0,0-2.56-1.19,4.71,4.71,0,0,0-1.5,0A8.08,8.08,0,0,0,97.09,56a1.6,1.6,0,0,0,.84.52c1.25.44,2.53.79,3.77,1.26a16.14,16.14,0,0,0,8.57.92c6.66-1.09,12-4.49,16.43-9.36a3.58,3.58,0,0,0,.58-4.5C125.51,42.17,122.83,40.85,119.8,40.1ZM77.24,43.45l.42.19c.44-3.06,2.64-5,4.32-7.3a5.3,5.3,0,0,0,.67-5.11c-.79,0-1.51,0-2.23,0a1.62,1.62,0,0,0-2,1.38,4.9,4.9,0,0,1-.74,1.21c-.61-2.46-.63-2.36-3.41-2.75-1.69-.24-1.9.75-2,2.1a12.41,12.41,0,0,1-.93-1.38c-.64-1-2.88-1.49-3.38-.76-.75,1.11-1.4,2.23-.59,3.67.64,1.16,1,2.45,1.65,3.62a14.7,14.7,0,0,0,1.48,2c1-1.11-.56-2.76,1.28-3.48a4.28,4.28,0,0,1,.4,1.17,1.82,1.82,0,0,0,2.12,2c.93-.07,1.86-.25,2.74-.37a4.24,4.24,0,0,1,.33-1.39c.19-.3.68-.4,1-.58a4.24,4.24,0,0,1,.31,1.1c0,.32-.28.62-.38.94C78,40.94,77.6,42.2,77.24,43.45Zm-16-10.78-.13.22a5.08,5.08,0,0,1-1.11-.5,5.83,5.83,0,0,0-4-1.16c-4.64,0-9.27,0-13.91,0-3.17,0-4.45,1.73-3.69,4.86.19.79.53,1,1.26.8,2.72-.57,5.43-1.23,8.17-1.64,4.83-.74,9.68-1.33,14.53-1.94a10.28,10.28,0,0,1,2.06.13l0,.37-1.35.43,1.26.52-.61.65c1.85.91,2.57,2.59,3.22,4.33a8.43,8.43,0,0,0,3.44,4.19c.69.44,1.48.76,2.1-.26a1.71,1.71,0,0,0-.47-.28c-3-.65-4.21-3-5-5.52a49.4,49.4,0,0,1-1.15-5.38c-1.56-.9-2.74-1.63-4-2.27a16.13,16.13,0,0,0-2.08-.77l-.4.54ZM33.74,38.2l.08-.31a2.11,2.11,0,0,0-.4-.26c-3-1.27-6.26-1.93-9.1-3.75-1.78-1.14-4-1.63-4.91-3.84-.12-.31-.56-.51-.89-.69a8.92,8.92,0,0,1-4.11-3.92c-.17-.35-.6-.57-.92-.85-.84-.75-2-1.34-2.49-2.28-1.2-2.2-3.71-3.42-4.36-6,0-.11-.14-.21-.24-.29a8.52,8.52,0,0,1-2.75-4.67c-.55-2-.4-2.66,1.22-4,.34-.29.67-.62,1-.93-4.06.75-5.3,4.73-3,8.32A73.73,73.73,0,0,0,15.5,29.49c3.06,2.82,6.14,5.64,10.19,7A25.56,25.56,0,0,0,33.74,38.2Zm55.93-5,.17.37c7.37,1.49,15,1.25,22.36,3.69V35.54c0-3.18-.69-4.29-3.88-4.34-5.42-.09-10.86.23-16.28.54C91.22,31.78,90.46,32.66,89.67,33.16ZM57.56,30l0-.29c-2-.88-4-1.83-6-2.6a10.15,10.15,0,0,0-3.23-.6c-2.53-.07-5.1.29-7.59,0-2.88-.38-5.28.61-7.71,1.75a1.75,1.75,0,0,0-.61,1.32c0,.24.58.68.93.72,1.66.21,3.33.32,5,.44a5.58,5.58,0,0,0,1.15-.09,34.71,34.71,0,0,1,4-.52c4.25-.08,8.5,0,12.75-.05C56.74,30.08,57.15,30.05,57.56,30Zm60.35-1.67a11.48,11.48,0,0,1-2-.7,8.88,8.88,0,0,0-5-1,59.57,59.57,0,0,1-7.19.12,14.75,14.75,0,0,0-9,2c-.7.41-1.42.81-2.13,1.21a2.61,2.61,0,0,0,1.45.35c3.6-.11,7.2-.14,10.79-.36s7.18.95,10.84.42C117.48,30.18,117.71,30.24,117.91,28.36Zm4.64-7.89a7.61,7.61,0,0,0-6.68-.06,11.74,11.74,0,0,1-6.5,1.07,4,4,0,0,0-2.12.21c-2,1.11-3.92,2.37-6.17,3.75a12.73,12.73,0,0,0,3.08.84,33.52,33.52,0,0,0,10.74-1.62,24.63,24.63,0,0,1,4.32-1.09C121.31,23.26,122.13,22.61,122.55,20.47ZM29.38,18.3c-2.31-1.23-4.38-2.45-6.54-3.45a9.44,9.44,0,0,0-5.79-.72c-2.44.47-4.87.94-7.29,1.48-.57.13-1.51.57-1.51.88a2.5,2.5,0,0,0,.82,1.88,4.84,4.84,0,0,0,2.46.62c.79,0,1.6-.39,2.4-.37,3.71.08,7.43.22,11.14.41C26.48,19.1,27.87,19.35,29.38,18.3Zm91.28.37.06.39a5.07,5.07,0,0,0,1.3.29c1.82-.09,3.66-.13,5.47-.39,4.06-.59,8.1-1.57,12.13.15a1.4,1.4,0,0,0,1.92-.8c.25-.5.49-1,.76-1.48.48-.86.08-1.24-.74-1.47a25.28,25.28,0,0,0-19,2A16.92,16.92,0,0,0,120.66,18.67Zm-72.24,7.1.13-.49c-1.85-1.21-3.67-2.47-5.58-3.59a2.61,2.61,0,0,0-1.83-.18A7.77,7.77,0,0,1,36,21.06c-1.1-.47-2.26-.82-3.31-1.38-2.08-1.12-3.72,0-5.49.75.7,1.81,1.77,2.87,3.72,2.71a1.66,1.66,0,0,1,.87.17c4.75,2.2,9.84,2.43,14.94,2.66A9.74,9.74,0,0,0,48.42,25.77Zm-19,15.28c-2.73.17-6,2.71-6.54,5a2.87,2.87,0,0,0,.84,3c1.72,1.55,3.43,3.11,5.07,4.74a16.25,16.25,0,0,0,6.89,3.83c4.75,1.46,9.42,1.66,14-.63a6,6,0,0,1,2-.39,3.24,3.24,0,0,0,2.67-3c-1.55.78-3,1.52-4.51,2.28a6.36,6.36,0,0,1-5.19.73,1.79,1.79,0,0,0-1.12,0c-3.24,1.16-6.14-.38-8.87-1.51-2.08-.86-4.42-1.46-6.07-3.55-1-1.29-2.36-2.38-3.11-3.94-1-2-.73-3.14,1.1-4.53C27.41,42.45,28.32,41.82,29.38,41.05ZM83.73,60.64c-1-.69-16-.94-18.44-.47.4,1.38.18,3,2.2,3.47a35,35,0,0,0,13.91.14,1.92,1.92,0,0,0,1.88-1.71c-1,.14-1.89,0-2.1-1.22Zm51.72-35.83a7,7,0,0,0-5.15-1.2c-2.56.2-5.11.44-7.67.62a28.47,28.47,0,0,0-3.07.08c-1.63.28-3.23.75-4.84,1.14v.67a15.82,15.82,0,0,0,3.4,1.19c2.42.26,4.87.18,7.3.37,1.51.13,3,.53,4.51.77.53.08,1.26.26,1.57,0C132.83,27.36,134.05,26.12,135.45,24.81Zm-73,16.27-.29-.32c-1.82,1-3.56,2.2-5.46,3a23,23,0,0,0-11,10.46.76.76,0,0,0-.08.11c-.13.38-.47,1-.35,1.1A1.84,1.84,0,0,0,46.5,56a6,6,0,0,0,5-2.62,34.6,34.6,0,0,1,3.26-4.09c2.18-2.36,4.46-4.62,6.69-6.93C61.84,41.93,62.15,41.49,62.48,41.08ZM82.53,56.81c-.86-1.47-2.32-1.13-3.6-1.24a58.88,58.88,0,0,0-13.07,0c-1.19.15-1.3.87-1.29,1.8S64.93,59,66,59H81.55ZM36,26.05l-.08-.55A21,21,0,0,0,28,23.88c-3.26.09-6.51.25-9.76.46a13.18,13.18,0,0,0-2.49.63c.5.71.94,1.46,1.49,2.12a4,4,0,0,0,4.24,1.3c3.27-.59,6.62-.8,9.92-1.28C33,26.89,34.44,26.41,36,26.05ZM146.71,7.78c1.37,1.55,1.06,3.09.08,4.51a85,85,0,0,1-6.24,8.6c-3.29,3.65-7,7-10.49,10.38a11.83,11.83,0,0,1-1.89,1.28c-1.36.88-2.71,1.77-4.1,2.6a17.64,17.64,0,0,1-2.47,1.21c-.95.38-1.93.65-2.9,1l.13.35a15.09,15.09,0,0,0,7.75-2.58c3.85-2.66,8.07-4.84,11.08-8.64,2.33-2.94,5.09-5.56,7.26-8.61a39.8,39.8,0,0,0,3.62-7.31C149.15,9.15,148.46,8.18,146.71,7.78Zm-16.94,5.93a3.22,3.22,0,0,0-3.64-1c-4.65,1.31-9.32,2.52-13.95,3.9a5,5,0,0,0-2.3,1.67,6.41,6.41,0,0,0-.69,2.23,6.32,6.32,0,0,0,2.44.23c3.08-1,6.17-2,9.13-3.3,2.7-1.17,5.16-2.89,8.15-3.37A3.46,3.46,0,0,0,129.77,13.71ZM82,52.23A20.13,20.13,0,0,0,73.2,50.6c-2.53.12-5,.24-7.58.38-.29,0-.8.07-.82.18a7.47,7.47,0,0,0-.23,2.72c.06.32,1.18.61,1.81.6,2.34,0,4.69-.36,7-.31,2.91.06,5.82.4,8.73.59a11,11,0,0,0,1.61-.13l.07-.4L81.41,52.7Zm-60.44-39c.59.3,1,.54,1.49.75,3.9,1.81,7.82,3.55,11.68,5.44A12.12,12.12,0,0,0,40,20.6c1.06,0,1.26-.49,1-1.38A4,4,0,0,0,38,16.28c-1-.26-2.12-.36-3.14-.66-3.32-1-6.62-2-9.93-3A2.89,2.89,0,0,0,21.6,13.27ZM66.28,64.34c0,3.23.43,3.74,3.34,4.46a25.82,25.82,0,0,0,8.67.59c2.08-.19,2.08-.18,2.57-2.19.33-1.4.11-1.59-1.34-1.66-3.41-.18-6.83-.41-10.24-.67A29.52,29.52,0,0,1,66.28,64.34ZM90.21,42.23l-.26.24c.24.32.46.65.72,1q4.62,5.17,9.27,10.33a9.59,9.59,0,0,0,2,1.65,3.35,3.35,0,0,0,3.52.22C102.35,48.77,96.45,45.3,90.21,42.23Zm32.24-18.65a37.74,37.74,0,0,0,4.84-.4,14.64,14.64,0,0,1,8.59.36c1.22.47,3.51-1.79,3.17-3a1.06,1.06,0,0,0-.65-.66,17,17,0,0,0-4-.63c-2.65.12-5.28.61-7.92.79C124.26,20.15,123.26,21.48,122.45,23.58Zm-95.35-1c-.49-1.91-1.31-2.65-3.05-2.9a34.94,34.94,0,0,0-11.63.36c-1.19.24-1.47,1-.62,1.88a5,5,0,0,0,3.9,1.61c2.74-.12,5.47-.15,8.2-.32A22.34,22.34,0,0,0,27.1,22.62Zm13.55-5.46c.91,1.28,1.47,2.62,2.47,3.35C46,22.6,49,24.53,52,26.35A36.81,36.81,0,0,0,57,28.54a11.82,11.82,0,0,0,1.55.42l.27-.31a5.89,5.89,0,0,0-1-1.47c-1.13-.91-2.34-1.73-3.55-2.54Q49.14,21.19,44,17.8A3.28,3.28,0,0,0,40.65,17.16Zm84.12,17.21.11-.57-.56-.32a17.09,17.09,0,0,0-10.65-2c-.26,0-.64.62-.65,1,0,1.24.1,2.48.18,3.72s.5,1.68,1.72,1.31C118.22,36.52,121.49,35.42,124.77,34.37ZM21.63,12l-.1-.5a10.5,10.5,0,0,0-7.64-1.57c-2.4.43-4.77,1-7.13,1.61-.6.16-1.6.74-1.56,1a3,3,0,0,0,1.09,1.85,2.68,2.68,0,0,0,1.88.34q5.57-.83,11.12-1.84A13.16,13.16,0,0,0,21.63,12Zm111-2.48a5.29,5.29,0,0,0-1.1-.46,32.86,32.86,0,0,0-3.69-.34,11,11,0,0,0-4.12.36c-3.61,1.55-7.09,3.38-10.61,5.14a9.53,9.53,0,0,0-1.57,1.29c.43.14.64.3.79.25C119,13.72,125.64,11.66,132.58,9.52Zm-4,2a7.34,7.34,0,0,0,5.12,2.1,29.22,29.22,0,0,1,9,1,1.6,1.6,0,0,0,2.17-1.23c.23-1.12-.47-1.63-1.37-1.8-2.6-.51-5.21-1-7.83-1.35A11.89,11.89,0,0,0,128.61,11.53ZM37.45,31.87c-3-1.5-9.45-.33-11.12,2.27,3.05,1.09,6.05,2.18,9.07,3.22a1.73,1.73,0,0,0,1.25,0,1.48,1.48,0,0,0,.77-1C37.51,34.92,37.45,33.5,37.45,31.87ZM18.54,8.79c3.16,2.08,18.52,6.69,20.24,6.14a21,21,0,0,0-2.5-1.75c-2.87-1.44-5.81-2.74-8.65-4.22a6.28,6.28,0,0,0-4.43-.67A42.28,42.28,0,0,1,18.54,8.79ZM91.72,28.92a5.76,5.76,0,0,0,1.14-.26c2.78-1.4,5.59-2.76,8.32-4.26,1.64-.91,3.13-2.08,4.72-3.09a9.24,9.24,0,0,0,3.52-4.47C105.72,17.74,92.85,26.44,91.72,28.92Zm19,8.92c-7.21-2.13-14.77-2.12-22.34-3.67C95.44,38.53,102.76,40,110.67,37.84Zm-3,5-.05.38a11.56,11.56,0,0,0,1.45.63c4.46,1.22,8.94,2.39,13.39,3.64a2.54,2.54,0,0,0,2.49-.61c.9-.74.9-1.5-.13-2a9,9,0,0,0-2.89-1c-3.87-.48-7.76-.85-11.65-1.2A16.39,16.39,0,0,0,107.62,42.86Zm-64.47.25L43,42.69a2.2,2.2,0,0,0-.69-.18c-1.69.16-3.37.42-5.07.5-2.82.13-5.65.13-8.47.22-2,.07-3,1.29-2.74,3.16.16,1.08.57,1.29,1.63,1,4.47-1.17,9-2.23,13.43-3.37A12.2,12.2,0,0,0,43.15,43.11Zm17.41-9c-7,1.05-13.75,1.36-20.45,3.66C44.4,39.82,57.76,37.46,60.56,34.15ZM82.07,50.53a5.08,5.08,0,0,0-4.69-3.36c-1.58-.13-3.15-.26-4.73-.31a4.44,4.44,0,0,0-1.56.4,14.44,14.44,0,0,1-2,.83c-.92.18-1.88.11-2.81.25a3.83,3.83,0,0,0-1.11.55c.38.33.74.87,1.16.93a13.7,13.7,0,0,0,3.07,0c4-.36,7.93-.74,11.81.63A3.89,3.89,0,0,0,82.07,50.53ZM67.75,69.41c-.1,1.86.64,3.25,2.46,3.68a49.29,49.29,0,0,0,6.33.77,1.57,1.57,0,0,0,1.14-.45c.89-1,1.69-2,2.32-2.74a60,60,0,0,1-6.14,0A62.28,62.28,0,0,1,67.75,69.41ZM31.28,29.89a2,2,0,0,0-2.17-2c-2.57.42-5.12.94-7.67,1.46a1,1,0,0,0-.69.61,1,1,0,0,0,.46.79c1.07.71,2.16,1.37,3.28,2a1.2,1.2,0,0,0,.93,0Q28,31.76,30.59,30.6C30.92,30.45,31.13,30,31.28,29.89Zm87.43.85A50.61,50.61,0,0,1,124.16,32a3.46,3.46,0,0,0,3.69-.41c.43-.35.94-.6,1.37-.94a6.14,6.14,0,0,0,.71-.82c-.3-.2-.59-.54-.91-.58-2.7-.32-5.39-.67-8.1-.86C119.08,28.27,118.61,28.88,118.71,30.74ZM42.19,45.41,42,44.76a13.59,13.59,0,0,0-1.92.21c-3.23.83-6.45,1.7-9.68,2.57a16.45,16.45,0,0,0-2.2.67,4.28,4.28,0,0,0-1,.86,5.54,5.54,0,0,0,.9.85,3.07,3.07,0,0,0,3.05.22c.81-.39,1.7-.6,2.52-1C36.52,47.94,39.35,46.67,42.19,45.41ZM107.66,45c.24.39.26.5.32.52,4,1.64,8,3.32,12,4.89a2.43,2.43,0,0,0,3-1.69,8.64,8.64,0,0,0-1.24-.57c-4-1.1-8-2.2-12-3.24A7.25,7.25,0,0,0,107.66,45Zm-20.22-.21-.24,0a35.35,35.35,0,0,0,1.24,4.34,45.28,45.28,0,0,0,2.33,4.33l-.47.25-1.86-3-.41.19,1.26,3.4-1.11-.83c.1.92,0,1.75,1.27,2.09.74.19,1.08,1.87,1.85,2.13,1.79.59,3.53-.09,5.14-1.07-1.55-2.24-1.55-2.24-3.2-2,.55.81,2.1,1.35.56,2.85Zm-42.36.94-.26-.47a10.77,10.77,0,0,0-2,.47C39,47.48,35.17,49.25,31.32,51c-.11.05-.24.08-.35.14-.8.46-.77,1-.06,1.46a3.22,3.22,0,0,0,3.57,0c3.17-2,6.36-3.86,9.52-5.82A7.19,7.19,0,0,0,45.08,45.76Zm-2.21-1.6a11,11,0,0,0,7.48-.49c3.78-1.5,7.52-3.09,11.28-4.65.33-.13.65-.31,1-.47a1.84,1.84,0,0,0-1.06,0C56,40,50.46,41.43,44.93,42.94A10.21,10.21,0,0,0,42.87,44.16Zm45.58-5.34a1.32,1.32,0,0,0,.29.24c4.93,1.91,9.84,3.88,14.81,5.7a4.25,4.25,0,0,0,4.06-.8C101.43,41.12,94.75,40.73,88.45,38.82Zm17.38,8.29c-.7,1.22-.26,1.76.33,2.27,1.86,1.65,3.73,3.27,5.56,4.95a2.55,2.55,0,0,0,2.73.54c1.24-.4,1.48-1.12.41-1.86C111.93,51,108.9,49.1,105.83,47.11ZM39,55.79c2.08.74,4.79,0,5.81-1.56,1.35-2.1,2.5-4.33,3.74-6.51a4.58,4.58,0,0,0-2.66.88c-2,1.86-3.86,3.87-5.77,5.84C39.76,54.82,39.44,55.26,39,55.79Zm81.12-4.09a5.45,5.45,0,0,0-.79-.51c-4.09-1.75-8.18-3.5-12.29-5.21a11.69,11.69,0,0,0-1.88-.44l-.15.36c.61.43,1.21.88,1.85,1.26,3.15,1.89,6.33,3.73,9.49,5.63C117.82,53.66,119.07,53.37,120.13,51.7ZM44.88,47.82c-4,1.23-7.23,3.59-10.39,6.31,1.13.38,2.43,1,3.29.57C40.89,53.26,43,50.64,44.88,47.82Zm56.74,0-.19.29,4.42,6a7,7,0,0,0,.81,1,3.75,3.75,0,0,0,4.79.18c-2.53-2.21-5-4.44-7.54-6.56A8.69,8.69,0,0,0,101.62,47.8ZM62.94,45.16l-.18-.1L54,56.67c1.1,1.58,2.54,2.15,4,1.64a4,4,0,0,0,2.44-4.2L58.55,57l-.26-.13.82-2.35a6.15,6.15,0,0,0-1.5,1.56c-.44.6-.85,1.23-1.34,1.93a4.37,4.37,0,0,1,2.18-5.17c.57-.24,1.39-1.15,1.29-1.48-.49-1.47.81-1.94,1.16-2.91l.44.12-.53,3.19c.66-1,1.39-1.6,1.23-3C61.9,47.66,62.61,46.39,62.94,45.16Zm64.8-38c1.17,1.31,2.5.94,3.8.87,2.17-.1,4.35-.23,6.51-.16,2,.07,4,.25,6.16-.76A8.27,8.27,0,0,0,142,6a23.52,23.52,0,0,0-4.44,0C134.27,6.32,131,6.74,127.74,7.11ZM89.51,40.48c.09.23.1.35.16.38,3.46,2,6.88,4.12,10.42,6a5.54,5.54,0,0,0,4.73.11,13.92,13.92,0,0,0-2.09-1.52c-1.27-.59-2.61-1.06-3.93-1.55C95.75,42.78,92.7,41.66,89.51,40.48Zm43.57-32.1,0,.38a3.28,3.28,0,0,0,.58.25c3.86.7,7.73,1.41,11.6,2.06.92.16,1.33-.38,1.22-1.31a1.78,1.78,0,0,0-2.27-1.6,33.44,33.44,0,0,1-4.45.4c-1.88,0-3.75-.23-5.63-.33A6.68,6.68,0,0,0,133.08,8.38ZM29.64,42.27a5.35,5.35,0,0,0,1.27.23c2.93-.26,5.87-.52,8.79-.9.52-.07,1-.73,1.51-1.18C38.33,38.65,31.77,39.78,29.64,42.27Zm30.91-4.6-.12-.35a13.85,13.85,0,0,0-1.83.21c-2.44.63-4.83,1.5-7.3,1.91a78,78,0,0,1-7.81.57c-1,.06-1.57.38-1.24,1.7a8.86,8.86,0,0,0,2.92.3c4.77-1.16,9.52-2.47,14.26-3.75A5.72,5.72,0,0,0,60.55,37.67ZM109.29,40A2.06,2.06,0,0,0,111.36,42c1.74.26,3.47.55,5.21.77s3.57.39,5.35.59l.06-.45A25.28,25.28,0,0,0,109.29,40ZM7.61,6.5a67.82,67.82,0,0,0,15.68.73C18.22,5.43,11.55,4.68,7.61,6.5ZM45.7,46.87l.27.37c5.69-.28,9.66-4.36,14.49-6.56-.16-.17-.26-.22-.32-.19-4.45,1.77-8.9,3.53-13.33,5.34C46.37,46,46.07,46.51,45.7,46.87ZM16.44,8.49c-3.39-.27-6.5-.5-9.6-.76a2.25,2.25,0,0,0-2.29,3.08Zm54,65.94-.17.29c1,1.17,2,2.4,3.12,3.5.66.66,1.54.58,1.85-.37.43-1.29,1-2,2.47-1.24l.54-1.77ZM89.37,37.54l-.12.43c.37.13.73.29,1.1.38,5.37,1.3,10.73,2.61,16.11,3.83A9,9,0,0,0,109,42c-.55-1.25-.92-2.12-2.24-1.93a26.24,26.24,0,0,1-13.35-1.54A33.54,33.54,0,0,0,89.37,37.54Zm-14-9.19c-1-1.32-.23-1.94.73-2.6.76-.54,1.43-1.22,2.28-2-1.48-.13-2.62-.29-3.76-.33s-2.3,0-3.67.07c.93,1.92,4.21,2,2.59,4.83ZM61.05,21l-.19,0a8.87,8.87,0,0,0,.38,1.73,1.49,1.49,0,0,0,2,.87,1.61,1.61,0,0,0,.53-1.44,37,37,0,0,0-1.59-4.54c-.13-.31-.79-.39-1.2-.57a3.54,3.54,0,0,0-.43,1.31A23.94,23.94,0,0,0,61.05,21Zm28.78-2.72-.63-.89c-.38.29-1,.5-1.11.88a25.65,25.65,0,0,0-1.25,3.9A5.4,5.4,0,0,0,87.08,24c.6-.39,1.53-.65,1.72-1.18A32.68,32.68,0,0,0,89.83,18.32ZM67.76,29.05l-.05.49c3.72.83,13.92,1.14,14.9.35Zm23.12,1-.25-.35-5.73,3C88.92,33.94,89.87,33.24,90.88,30Zm-10.07-5.2c-.07-.15-.16-.61-.42-.76s-.7.13-.94.35a18.54,18.54,0,0,0-1.85,1.91c-.21.25-.4.79-.28.94a1.38,1.38,0,0,0,1,.36A3.2,3.2,0,0,0,80.81,24.84Zm-8.56,1.49-3.12-3.47c-.79.22-1.11.75-.41,1.66.51.67,1,1.36,1.59,2C71.21,27.47,71.5,27.41,72.25,26.33ZM92.54,46.25c.85,2.6,4.9,7.26,6.17,7.27Zm-8.2-2c-1.89-1.15-3.82-.63-6,1.55C80.61,46.14,82.32,44.8,84.34,44.27Zm-9.21-23.2,1.29,1.5.33-.21V20.65c-1.72-.31-1.71-.29-3.07.93a3.84,3.84,0,0,1-1.05.46l-1,.44C73.16,22.8,74.49,22.58,75.13,21.07Zm10,24.39,1.59,5.4C87.86,48.66,86.92,45.66,85.12,45.46ZM79.39,28.31a2,2,0,0,0,2.37.82c.81-.22,1.39-.8.92-1.56-.21-.36-1.15-.5-1.68-.38S80,27.88,79.39,28.31Zm-20.72-3,.24-.29a16.57,16.57,0,0,0-6.43-4.45l-.18.26Zm27,25.41V58.1C86.88,52.38,86.88,52.23,85.7,50.76ZM55,52.37l.29.25c1.87-2.22,4.17-4.1,5.45-6.8l-.32-.25ZM67.72,24.91c-.61,2.79.16,3.78,2.69,3.53Zm8.56,18.8c-.21-1.93-.84-2.41-2.73-2.19-.23,0-.44.27-.65.41.14.18.26.43.45.52C74.27,42.87,75.2,43.25,76.28,43.71Zm20-22.61.19.37,8.15-4.37-.25-.45ZM57.62,47.86l-.34-.29-4.89,5.62.5.42Zm10.51-.92-2.51-.26c1.11,1.16,2.76,1.08,4.62-.26l-2.41-1.07ZM83.57,40a12,12,0,0,0-.41,2.48c0,.19.85.37,1.56.65C84.38,41.93,85.2,40.79,83.57,40Zm-5.79-19.7,2.37,2.48C80.2,20.26,79.5,19.53,77.78,20.31ZM70,45.15c-1.3-1.66-2.7-2.09-4.46-1.46Zm7-25.63c-1.44-1.6-2.38-1.55-3.11,0Zm6.59,28.26-2.06-.73.25-.62-.21-.14-1,.91C81.47,48.36,82.53,48.19,83.64,47.78Zm-3.78-4.49.27.24a4.24,4.24,0,0,0,2.19-2.94l-.43-.29ZM62,26c.8,1.94,2.38,3.34,3.16,3Zm8.31-3.55a2.52,2.52,0,0,0,2-2.5,1.59,1.59,0,0,0-1,.54A20.8,20.8,0,0,0,70.32,22.43Zm1,23.06,0,.15,4.67.31,0-.46ZM96.1,52.91l-2.53-3.17-.28.24C94.28,50.91,94.46,52.53,96.1,52.91ZM92,24.33l.41.46,2-1.8-.36-.4ZM84.42,27c1.27,1.13,1.6,1,2.11-.61Zm9.25-14.61L93.39,12l-2.92,2.23.26.31Z" style="fill:#fff"/>
        <path d="M149.3,12.22a31.39,31.39,0,0,1-5.83,9.33,91.4,91.4,0,0,1-9.06,9.29C130.7,34,126.72,36.89,121.79,38a32.19,32.19,0,0,0-3.4.82c1.39.45,2.77.93,4.16,1.34a11.05,11.05,0,0,1,5.34,3.65,5,5,0,0,1-.11,5.78,40.47,40.47,0,0,1-5.57,4.89c-5.24,3.91-11.13,5.92-17.73,5-1.94-.27-3.76-1.37-5.66-1.94a2.94,2.94,0,0,0-2.15.17,6,6,0,0,1-7.31-.21c-.29-.21-.63-.39-.87-.54a22.39,22.39,0,0,0,.61,13.55,11,11,0,0,0,.63,1.8c.44.78.11,1.12-.59,1.29a5.09,5.09,0,0,1-1.29.12c-.76,0-.93-.52-.52-1,.78-1,.43-1.85.07-2.77a36.54,36.54,0,0,1-1.47-3.56c-.34-1.22-.44-2.52-.89-3.86-.87,3.23-1.63,6.48-2.62,9.67a12.76,12.76,0,0,1-6.07,7.52,2.42,2.42,0,0,1-1.76.1,7.12,7.12,0,0,1-3.88-3.37c-.62-1.11-1.55-2-2.24-3.12a21.52,21.52,0,0,1-3.18-7.9c-.32-1.76-.7-3.51-1.05-5.27a23.92,23.92,0,0,1-.45-2.9c-.07-1.48,0-3-.13-4.44a5.7,5.7,0,0,0-.81,5.08c.22.87.56,1.72.69,2.6.18,1.29.62,2.4-.13,3.92-1,2-1.09,4.54-1.5,6.86-.07.46.24,1,.29,1.48s.14,1.12-.1,1.35a1.51,1.51,0,0,1-1.38.22,1.46,1.46,0,0,1-.61-1.22,36,36,0,0,1,1-5.17c.92-3.08.33-6.1-.1-9.14a4.62,4.62,0,0,0-.32-.89c-1,.39-1.84.82-2.76,1.12a3.53,3.53,0,0,1-4.11-1c-.91-1.09-2-.88-3.15-.48a36.34,36.34,0,0,1-6.24,1.89c-5.79.84-11-1-15.62-4.29a43.53,43.53,0,0,1-6.12-5.65,4.27,4.27,0,0,1,.8-6.32c1.8-1.23,3.69-2.33,5.54-3.49.39-.25.78-.48,1.17-.71-.09-.17-.14-.28-.17-.28-5.42-.57-9.56-3.71-13.46-7A68.63,68.63,0,0,1,2.14,15.19,36.26,36.26,0,0,1,.38,11.4v-.51c.09-.45.16-.91.27-1.36a4.6,4.6,0,0,1,3-3.68,29.85,29.85,0,0,1,23,.78c11,4.74,21.9,9.86,31.86,16.65a19,19,0,0,0,2.75,1.88c-.9-1.48-1.81-2.95-2.75-4.51l.88-.62a3.21,3.21,0,0,1-.62-1c-.07-.32,0-.87.22-1,1.08-.78.72-1.53,0-2.25-1.17-1.2-2.37-2.35-3.56-3.53a3.58,3.58,0,0,1-1.36-3c0-.47-.37-1-.39-1.46a26.76,26.76,0,0,0-1-4.37A2.67,2.67,0,0,1,54.59.51c.89-.35,1.38,0,1.42.86a6.18,6.18,0,0,1-.3,2A6.25,6.25,0,0,0,57,10.27a41.48,41.48,0,0,0,3.07,3.28c2.91,2.48,4.12,5.82,5,9.34.36,1.41.81,1.63,2.29,1-.42-1.16-1.3-2.51-.13-3.52a12.66,12.66,0,0,1,3.29-1.49c-1-2.58-2-2.75-4.6-.71l-.28-.24a7.86,7.86,0,0,1,1.41-1.56,2.5,2.5,0,0,1,3,0A6.51,6.51,0,0,1,71.52,18c.44.69.89.84,1.57.43.14-.09.33-.11.48-.21a2.89,2.89,0,0,1,4.21.24c.94.89,1.65.11,2.25-.77,1.3-1.94,3.56-2,4.75-.2a1.2,1.2,0,0,1,0,.94c-1.8-1.78-3-1.91-4.13.75a4.13,4.13,0,0,0,.88.56c3,1.1,3.38,1.84,2.15,4.76,1.06.34,1.61-.2,1.89-1.1.54-1.71,1-3.44,1.56-5.16A9.81,9.81,0,0,1,91,12.76a23.45,23.45,0,0,0,2.66-2.23c1.77-1.68,2.06-3.89,2-6.15,0-.39-.53-.78-1-1.4a8.71,8.71,0,0,1,1.67-1.26,1.52,1.52,0,0,1,1.35.37,2.14,2.14,0,0,1,.39,1.52C98,4.84,97.47,6,97.3,7.26a9.42,9.42,0,0,1-1.54,3.56c-1.15,1.93-2.87,3.11-4.49,4.48-1.18,1-1,1.71.43,2.86-.17.32-.36.65-.54,1a1.36,1.36,0,0,0-.25,1.06,5.48,5.48,0,0,1,0,1.57c-.38,1.12-.9,2.2-1.42,3.46.31-.1.45-.1.51-.16,3.87-4.07,8.8-6.5,13.79-8.83,6.51-3.06,13-6.24,19.64-8.93,3.57-1.43,7.52-2,11.31-2.83s7.51-.1,11.17.94a6.49,6.49,0,0,1,1,.38C149.77,7.21,150.53,9.2,149.3,12.22Z" style="fill:none;stroke:#000;stroke-miterlimit:10;stroke-width:0.75px"/></g></g></svg>