<svg id="Calque_1" data-name="Calque 1" xmlns="http://www.w3.org/2000/svg" viewBox="0 0 119.29 63.62"><defs><style>.cls-1{fill:none;stroke:#000;stroke-miterlimit:10;stroke-width:0.25px;}</style></defs><path class="cls-1" d="M-169.57-195.81a6.36,6.36,0,0,0-.76-.31c-2.91-.81-5.85-1.42-8.87-.74s-6.17,1.11-9,2.25c-5.32,2.14-10.47,4.68-15.65,7.11-4,1.86-7.88,3.79-11,7,0,.06-.15.06-.41.13.42-1,.83-1.82,1.13-2.74a4.36,4.36,0,0,0,0-1.25,1.06,1.06,0,0,1,.21-.84l.41-.79c-1.18-.91-1.28-1.48-.34-2.28a15,15,0,0,0,3.58-3.57,7.65,7.65,0,0,0,1.23-2.84c.13-1,.51-1.92.67-2.9a1.73,1.73,0,0,0-.31-1.21,1.17,1.17,0,0,0-1.07-.29,5.85,5.85,0,0,0-1.32,1c.36.5.79.81.79,1.12,0,1.8-.23,3.57-1.63,4.89a17.3,17.3,0,0,1-2.12,1.79,7.72,7.72,0,0,0-3.07,4.33c-.41,1.37-.81,2.74-1.25,4.11-.22.72-.65,1.15-1.5.88,1-2.33.69-2.92-1.72-3.79a4,4,0,0,1-.7-.46c.94-2.12,1.86-2,3.29-.6a1,1,0,0,0,0-.75c-.94-1.45-2.75-1.38-3.8.16-.47.71-1,1.33-1.78.62a2.3,2.3,0,0,0-3.36-.19l-.37.16c-.54.33-.91.21-1.26-.34a4.94,4.94,0,0,0-1.1-1.27,2,2,0,0,0-2.4,0,5.75,5.75,0,0,0-1.12,1.24l.22.19c2.11-1.63,2.89-1.49,3.65.56a10.3,10.3,0,0,0-2.62,1.2c-.94.8-.23,1.88.1,2.79-1.19.5-1.55.32-1.83-.8-.71-2.8-1.67-5.46-4-7.43a35,35,0,0,1-2.48-2.68,5,5,0,0,1-1-5.48,4.32,4.32,0,0,0,.24-1.6c0-.67-.41-1-1.12-.67a2.13,2.13,0,0,0-1.53,2.28,21.76,21.76,0,0,1,.83,3.48c0,.39.35.79.32,1.16a2.89,2.89,0,0,0,1.07,2.43c1,.93,1.93,1.85,2.85,2.81.58.57.86,1.17,0,1.78a1,1,0,0,0-.18.82,2.9,2.9,0,0,0,.5.8l-.7.49,2.18,3.59a16.44,16.44,0,0,1-2.18-1.49c-7.94-5.4-16.6-9.47-25.38-13.25a23.75,23.75,0,0,0-18.34-.62,3.62,3.62,0,0,0-2.38,2.93c-.08.36-.14.72-.21,1.08v.41a27.42,27.42,0,0,0,1.4,3,54.21,54.21,0,0,0,11.48,13.14c3.11,2.65,6.4,5.15,10.73,5.6,0,0,.06.09.14.23l-.93.56c-1.48.92-3,1.8-4.42,2.78l-.31.24a3.4,3.4,0,0,0-.32,4.79,35.16,35.16,0,0,0,4.87,4.5c3.69,2.61,7.83,4.08,12.43,3.42a28.7,28.7,0,0,0,5-1.51c.94-.32,1.79-.49,2.52.38a2.8,2.8,0,0,0,3.27.78c.73-.26,1.43-.59,2.2-.91a4.16,4.16,0,0,1,.25.7c.35,2.45.81,4.86.09,7.31a28.78,28.78,0,0,0-.78,4.12,1.12,1.12,0,0,0,.47,1,1.24,1.24,0,0,0,1.12-.17c.19-.19.1-.68.06-1.08s-.28-.81-.22-1.18c.32-1.86.38-3.86,1.19-5.48.6-1.21.25-2.1.11-3.12a19.16,19.16,0,0,0-.55-2.07,4.61,4.61,0,0,1,.64-4c.11,1.19,0,2.37.11,3.54a18.17,18.17,0,0,0,.36,2.31c.26,1.4.58,2.79.83,4.19A17.3,17.3,0,0,0-232-142c.54.85,1.29,1.59,1.78,2.48a5.6,5.6,0,0,0,3.1,2.68,1.84,1.84,0,0,0,1.4-.08,10.15,10.15,0,0,0,4.84-6c.78-2.54,1.39-5.13,2.08-7.7.36,1.06.43,2.09.71,3.07s.79,1.88,1.16,2.83c.29.74.57,1.46-.05,2.22-.32.38-.19.8.42.8a4.36,4.36,0,0,0,1-.1c.54-.11.8-.4.46-1a8.08,8.08,0,0,1-.5-1.43,17.76,17.76,0,0,1-.49-10.79c.19.12.45.26.69.43a4.77,4.77,0,0,0,5.82.17,2.33,2.33,0,0,1,1.7-.14c1.53.45,3,1.33,4.52,1.55a18.74,18.74,0,0,0,14.12-4,30.94,30.94,0,0,0,4.43-3.89,4,4,0,0,0,.09-4.6,8.72,8.72,0,0,0-4.25-2.91c-1.11-.33-2.21-.72-3.32-1.07a25.51,25.51,0,0,1,2.72-.63c3.91-.9,7.09-3.25,10-5.72a71,71,0,0,0,7.21-7.4,25.2,25.2,0,0,0,4.65-7.43C-166.63-193.11-167.24-194.69-169.57-195.81Zm.06,3.24c.08.74-.24,1.17-1,1-3.08-.52-6.15-1.08-9.23-1.64a2.37,2.37,0,0,1-.46-.2l0-.26a4.9,4.9,0,0,1,.85-.16c1.5.08,3,.26,4.48.26a26.15,26.15,0,0,0,3.54-.31C-170.31-194-169.62-193.54-169.51-192.57Zm-13.21,14.89c-1.2-.18-2.38-.5-3.59-.6-1.94-.16-3.89-.09-5.82-.3a12.43,12.43,0,0,1-2.7-.95v-.53c1.28-.31,2.55-.69,3.85-.91a22.21,22.21,0,0,1,2.45-.06c2-.15,4.06-.33,6.1-.5a5.63,5.63,0,0,1,4.11,1c-1.12,1-2.08,2-3.15,2.89C-181.72-177.47-182.3-177.61-182.72-177.68Zm0,1.11a5.81,5.81,0,0,1-.56.65c-.35.29-.75.47-1.09.75a2.79,2.79,0,0,1-2.95.33,40.17,40.17,0,0,0-4.34-1c-.07-1.48.3-2,1.76-1.86,2.16.15,4.31.42,6.45.68C-183.17-177-182.95-176.73-182.71-176.57Zm-29.78,13.09,4.92,5.79C-208.58-157.69-211.82-161.41-212.49-163.48Zm2.84,5.29c-1.31-.31-1.45-1.6-2.24-2.34l.22-.18Zm-4.33-7.55c-.21-.23-.38-.5-.57-.75l.21-.19c5,2.43,9.66,5.19,12.1,10.66a2.69,2.69,0,0,1-2.8-.18,7.23,7.23,0,0,1-1.55-1.32C-209.07-160.26-211.52-163-214-165.74Zm15.91-4.45c-6.29,1.68-12.12.55-17.81-2.93C-209.83-171.88-203.81-171.89-198.07-170.19Zm-16.72-3.73h0c.62-.39,1.24-1.1,1.89-1.13,4.31-.25,8.64-.5,13-.43,2.54,0,3.08.92,3.08,3.45v1.34c-5.86-1.94-11.95-1.75-17.81-2.93Zm-.22,3.49a25.41,25.41,0,0,1,3.2.81,20.93,20.93,0,0,0,10.62,1.22c1.06-.15,1.34.54,1.8,1.54a7.17,7.17,0,0,1-2,.14c-4.28-1-8.55-2-12.82-3-.3-.08-.59-.21-.88-.31l.1-.35Zm14.52,5.1a3.35,3.35,0,0,1-3.23.64c-4-1.45-7.87-3-11.8-4.54-.09,0-.15-.12-.23-.19C-210.73-167.89-205.41-167.59-200.49-165.33Zm-7,0c1.05.39,2.12.78,3.13,1.23a11.76,11.76,0,0,1,1.66,1.21,4.41,4.41,0,0,1-3.77-.08c-2.81-1.52-5.56-3.19-8.3-4.8,0,0-.05-.11-.12-.3C-212.36-167.14-209.93-166.26-207.5-165.35Zm2.09,3.33.15-.22v0a6.13,6.13,0,0,1,1.83.78c2,1.68,4,3.46,6,5.22a3,3,0,0,1-3.81-.15,5,5,0,0,1-.65-.79Zm3.76,1a1.22,1.22,0,0,1-.25-1.82c2.44,1.58,4.85,3.08,7.19,4.71.85.59.66,1.16-.33,1.48a2,2,0,0,1-2.18-.43C-198.67-158.38-200.16-159.68-201.65-161Zm.59-1.78c-.5-.31-1-.67-1.47-1l.12-.29a8.6,8.6,0,0,1,1.5.35q4.88,2.06,9.77,4.15a5.16,5.16,0,0,1,.63.4c-.85,1.34-1.85,1.57-3,.87C-196-159.8-198.54-161.27-201.06-162.77Zm10.42,2.61c-3.2-1.25-6.36-2.59-9.56-3.89,0,0-.07-.11-.25-.41a6.05,6.05,0,0,1,1.59-.09c3.2.83,6.4,1.71,9.6,2.59a6.33,6.33,0,0,1,1,.46A1.94,1.94,0,0,1-190.64-160.16Zm2-2.33c-3.54-1-7.11-1.93-10.66-2.91a8.39,8.39,0,0,1-1.16-.49l.05-.31a14.57,14.57,0,0,1,2.09-.12c3.1.28,6.2.58,9.28,1a6.84,6.84,0,0,1,2.28.77c.82.42.82,1,.1,1.62A2,2,0,0,1-188.68-162.49Zm-.41-3.35-4.26-.46c-1.41-.15-2.78-.41-4.15-.61a1.64,1.64,0,0,1-1.64-1.55,20,20,0,0,1,10.1,2.27Zm-13.59-10.59c-2.86.18-5.73.2-8.59.28a2,2,0,0,1-1.16-.27c.56-.32,1.14-.63,1.7-1a11.77,11.77,0,0,1,7.14-1.63,47.52,47.52,0,0,0,5.72-.1,7.19,7.19,0,0,1,3.94.81,9.31,9.31,0,0,0,1.61.56h0c-.17,1.49-.35,1.47-1.77,1.65C-197-175.67-199.82-176.6-202.68-176.43Zm-3-3.64c1.79-1.1,3.32-2.11,4.92-3a3.05,3.05,0,0,1,1.69-.17,9.4,9.4,0,0,0,5.19-.86,6.07,6.07,0,0,1,5.31,0c-.34,1.71-1,2.23-2.66,2.48a20.4,20.4,0,0,0-3.44.87,27,27,0,0,1-8.56,1.3A10.57,10.57,0,0,1-205.69-180.07Zm20.88-1.79a30.36,30.36,0,0,1-3.85.33h0c.63-1.68,1.45-2.74,3.2-2.85,2.11-.17,4.2-.53,6.31-.62a13.16,13.16,0,0,1,3.2.5.86.86,0,0,1,.52.52c.27,1-1.55,2.8-2.53,2.42A11.77,11.77,0,0,0-184.81-181.86Zm.15-3.37c-1.44.21-2.9.24-4.36.31a4,4,0,0,1-1-.23l0-.31a13.78,13.78,0,0,1,1.51-1,20.08,20.08,0,0,1,15.13-1.61c.65.18,1,.48.59,1.16-.22.39-.41.79-.61,1.18a.61.61,0,0,1-.05.12,1.1,1.1,0,0,1-1.48.52C-178.21-186.48-181.42-185.69-184.66-185.23Zm5-4.24a5.87,5.87,0,0,1-4.08-1.67,9.48,9.48,0,0,1,5.68-1c2.09.27,4.17.67,6.24,1.07.72.14,1.28.54,1.09,1.43a1.67,1.67,0,0,1-.08.3,1.28,1.28,0,0,1-1.67.69A23.47,23.47,0,0,0-179.69-189.47Zm3-6.06a19,19,0,0,1,3.54,0,6.54,6.54,0,0,1,1.77.83,10,10,0,0,1-4.9.6c-1.73-.06-3.46,0-5.19.13-1,.05-2.11.35-3-.69C-181.86-195-179.26-195.3-176.66-195.53ZM-196.14-189c2.79-1.42,5.57-2.88,8.44-4.11a8.66,8.66,0,0,1,3.28-.29,28.67,28.67,0,0,1,2.94.27,4.72,4.72,0,0,1,.86.36h0l-16.15,5c-.12,0-.29-.09-.63-.19A7.42,7.42,0,0,1-196.14-189Zm-.71,1.92c3.69-1.1,7.41-2.06,11.11-3.11a2.58,2.58,0,0,1,2.91.76,3.12,3.12,0,0,1-.69.33c-2.38.38-4.34,1.77-6.49,2.68a77,77,0,0,1-7.28,2.63,5.28,5.28,0,0,1-1.94-.18,5.16,5.16,0,0,1,.55-1.78A4,4,0,0,1-196.85-187.06Zm-2.19.14a7.26,7.26,0,0,1-2.81,3.56c-1.26.81-2.45,1.74-3.75,2.46-2.18,1.2-4.41,2.28-6.63,3.39a3.54,3.54,0,0,1-.91.21C-212.25-179.27-202-186.2-199-186.92Zm-18,4.27a20.72,20.72,0,0,1,1-3.1c.15-.31.61-.48.91-.71l.51.72h0a28,28,0,0,1-.84,3.6c-.16.42-.92.63-1.37.94A4.18,4.18,0,0,1-217-182.65Zm-.22,3.31c-.41,1.29-.67,1.4-1.69.48Zm-3.07,1c.37.61-.1,1.06-.74,1.24a1.57,1.57,0,0,1-1.89-.66h0c.46-.31.84-.79,1.27-.88S-220.52-178.66-220.34-178.37Zm0,1.85c-.8.64-8.92.38-11.88-.28l0-.39Zm-1.78-4.62c.21.11.28.48.34.6a2.57,2.57,0,0,1-2,2.23,1.13,1.13,0,0,1-.79-.28c-.1-.13,0-.56.21-.75a16.43,16.43,0,0,1,1.48-1.53C-222.72-181-222.37-181.26-222.16-181.14Zm-.19-1-1.89-2C-222.87-184.77-222.31-184.19-222.35-182.18Zm-1.37.82a20.92,20.92,0,0,1-1.83,1.56c-.76.53-1.41,1-.57,2.07h-1.45c1.29-2.23-1.32-2.31-2.06-3.84,1.09,0,2-.08,2.92-.05S-224.89-181.47-223.72-181.36Zm-1.11-3.42h-2.47C-226.72-186-226-186-224.83-184.78Zm-2.68,1.63c1.08-1,1.08-1,2.45-.74v1.37l-.27.17-1-1.2c-.51,1.2-1.57,1.38-2.83,1.12l.84-.36A2.9,2.9,0,0,0-227.51-183.15Zm-1.92-.85a1.29,1.29,0,0,1,.82-.46,2,2,0,0,1-1.57,2A14.44,14.44,0,0,1-229.43-184Zm-1.7,1.9,2.48,2.74c-.58.86-.82.91-1.54.16a19.5,19.5,0,0,1-1.27-1.58C-232-181.5-231.76-181.92-231.13-182.1Zm-1.12,1.61,2.14,2.81C-232.13-177.47-232.74-178.26-232.25-180.49Zm.2,4.87c.4-.58,2.18-.15,2.69.61a10.07,10.07,0,0,0,.74,1.1c.1-1.07.24-1.86,1.61-1.67,2.22.31,2.23.23,2.72,2.19a4.13,4.13,0,0,0,.59-1,1.3,1.3,0,0,1,1.57-1.11c.57,0,1.15,0,1.78,0a4.26,4.26,0,0,1-.54,4.08c-1.33,1.82-3.09,3.37-3.44,5.81l-.34-.15c.29-1,.57-2,.9-3,.08-.26.3-.49.3-.75a2.69,2.69,0,0,0-.24-.87c-.28.14-.68.22-.83.45a3.33,3.33,0,0,0-.26,1.11c-.71.1-1.44.25-2.19.3a1.44,1.44,0,0,1-1.68-1.58A3.35,3.35,0,0,0-229-171c-1.48.58-.25,1.89-1,2.78a12.21,12.21,0,0,1-1.18-1.6c-.49-.93-.8-2-1.32-2.88C-233.17-173.83-232.65-174.73-232-175.62Zm11.43,7.62a3.4,3.4,0,0,1-1.75,2.34l-.22-.19,1.62-2.39Zm1.05,5.72a1.84,1.84,0,0,1-2.43-.46l.81-.72.17.11-.19.49Zm-1.25,2.19a3.25,3.25,0,0,1-.7,0c-3.09-1.09-6.25-.79-9.41-.5a11.15,11.15,0,0,1-2.45,0c-.32,0-.61-.48-.91-.74a3.33,3.33,0,0,1,.88-.45c.74-.11,1.51,0,2.24-.2a11.71,11.71,0,0,0,1.6-.66,3.55,3.55,0,0,1,1.24-.32c1.26,0,2.51.14,3.77.25A4,4,0,0,1-220.82-160.09Zm-11.37-4.12,1.92.86c-1.45,1.06-2.77,1.11-3.66.19l2,.21C-232-163.38-232.07-163.71-232.19-164.21Zm-1.77-1.33a2.88,2.88,0,0,1,3.56,1.17Zm8.35,1.44v.36l-3.72-.24,0-.12Zm-2.52-2.84c.17-.11.34-.32.52-.32,1.5-.18,2,.21,2.17,1.74-.85-.36-1.6-.67-2.33-1C-227.92-166.59-228-166.79-228.13-166.94Zm-6.15-10.31c-.62.27-1.88-.84-2.52-2.39Zm-3.67-8.42a2.94,2.94,0,0,1,.33-1c.34.15.86.21,1,.46a28.61,28.61,0,0,1,1.27,3.61,1.31,1.31,0,0,1-.42,1.15l-.08,0a1.2,1.2,0,0,1-1.53-.72,7.11,7.11,0,0,1-.29-1.37l.15,0A18.32,18.32,0,0,1-237.95-185.67Zm-13.21-.48q4.11,2.7,8.18,5.44c1,.66,1.91,1.3,2.83,2a5,5,0,0,1,.77,1.16l-.21.25a10.59,10.59,0,0,1-1.23-.32,30.59,30.59,0,0,1-3.92-1.75c-2.43-1.45-4.82-3-7.1-4.65a11.28,11.28,0,0,1-2-2.67A2.63,2.63,0,0,1-251.16-186.15Zm-27.25-1.74c1.93-.43,3.87-.8,5.81-1.17a7.36,7.36,0,0,1,4.6.57c1.73.79,3.38,1.76,5.21,2.74a4.91,4.91,0,0,1-3.42.59c-3-.16-5.92-.26-8.88-.33-.64,0-1.28.32-1.91.3a3.84,3.84,0,0,1-2-.5,2,2,0,0,1-.65-1.5C-279.61-187.43-278.87-187.79-278.41-187.89Zm-1.27-.68a2.17,2.17,0,0,1-1.49-.28,2.41,2.41,0,0,1-.87-1.47c0-.22.78-.69,1.24-.81,1.88-.48,3.77-.94,5.68-1.28a8.36,8.36,0,0,1,6.08,1.25l.08.39a10.13,10.13,0,0,1-1.85.72Q-275.23-189.24-279.68-188.57Zm19.53,3.91a27.12,27.12,0,0,0,2.64,1.11,6.13,6.13,0,0,0,4.09.35,2.11,2.11,0,0,1,1.46.14c1.51.9,3,1.9,4.44,2.86l-.1.4a9,9,0,0,1-1.37.16c-4-.19-8.1-.37-11.88-2.13a1.47,1.47,0,0,0-.69-.13c-1.55.13-2.4-.71-3-2.16C-263.11-184.66-261.81-185.55-260.15-184.66Zm-16.14.33a27.43,27.43,0,0,1,9.26-.29,2.58,2.58,0,0,1,2.43,2.31,19.81,19.81,0,0,1-2.55.5c-2.17.14-4.35.16-6.52.26a4,4,0,0,1-3.12-1.29C-277.47-183.54-277.24-184.14-276.29-184.33Zm4.66,3.4c2.58-.17,5.17-.3,7.76-.37a16.64,16.64,0,0,1,6.25,1.26l.06.46c-1.19.29-2.38.67-3.59.86-2.63.38-5.29.56-7.9,1a3.22,3.22,0,0,1-3.38-1c-.44-.53-.79-1.12-1.18-1.69A10.26,10.26,0,0,1-271.63-180.93Zm2.52,4c2-.42,4.06-.83,6.11-1.16h.22a1.54,1.54,0,0,1,1.5,1.58c-.11.13-.28.45-.54.55-1.36.62-2.73,1.22-4.12,1.78a1,1,0,0,1-.74,0c-.89-.49-1.76-1-2.61-1.58a.84.84,0,0,1-.37-.64A.83.83,0,0,1-269.11-176.94Zm12.75,2c0,1.3,0,2.43,0,3.57a1.21,1.21,0,0,1-.61.79,1.43,1.43,0,0,1-1,0c-2.4-.83-4.8-1.69-7.22-2.56C-263.89-175.21-258.72-176.14-256.36-174.95Zm-3.2-1.25c-.28,0-.74-.37-.74-.57a1.35,1.35,0,0,1,.43-1,11,11,0,0,1,6.14-1.37c2,.23,4-.05,6,0a8.09,8.09,0,0,1,2.57.46c1.62.61,3.18,1.37,4.77,2.06l0,.24c-.31,0-.62,0-.94,0-3.38,0-6.77,0-10.15,0a28.86,28.86,0,0,0-3.2.41,4,4,0,0,1-.91.07C-256.91-175.94-258.24-176-259.56-176.2Zm6-8.82c.22.72.06,1.1-.79,1.1a9.54,9.54,0,0,1-4.14-.91c-3.09-1.49-6.22-2.9-9.33-4.33l-1.18-.59a2.33,2.33,0,0,1,2.7-.56c2.63.82,5.26,1.65,7.9,2.43.81.24,1.67.31,2.5.52A3.23,3.23,0,0,1-253.54-185Zm-10.62-8.17c2.27,1.18,4.61,2.21,6.89,3.36a16.22,16.22,0,0,1,2,1.39c-1.4.44-13.6-3.22-16.15-4.89a33.62,33.62,0,0,0,3.74-.39A4.92,4.92,0,0,1-264.16-193.19Zm-3.45-1.36a54,54,0,0,1-12.51-.6C-277-196.6-271.67-196-267.61-194.55Zm-5.48,1-9.47,1.85a1.8,1.8,0,0,1,1.83-2.45C-278.26-194-275.79-193.78-273.09-193.57Zm7.37,22.32c-3.23-1.1-5.68-3.35-8.12-5.57a59.18,59.18,0,0,1-10.08-11.79c-1.81-2.88-.82-6,2.41-6.64-.26.25-.52.5-.81.75-1.29,1.07-1.43,1.61-1,3.2a7,7,0,0,0,2.19,3.72.47.47,0,0,1,.2.22c.51,2,2.52,3,3.47,4.78.41.76,1.31,1.23,2,1.83.27.22.6.4.73.68a7.13,7.13,0,0,0,3.28,3.12c.26.14.61.3.71.54.75,1.77,2.49,2.15,3.91,3.07,2.26,1.44,4.84,2,7.24,3a2.49,2.49,0,0,1,.32.2l-.06.26A20.61,20.61,0,0,1-265.72-171.25Zm12.36,3.13c-.45.33-.8.86-1.21.91-2.33.31-4.66.51-7,.72a3.76,3.76,0,0,1-1-.19C-260.88-168.65-255.66-169.55-253.36-168.12Zm15.29,4.08.25.2c-1,2.15-2.85,3.65-4.34,5.42l-.24-.2Zm-6,6.41-.41-.34,3.9-4.47.28.23Zm1.51-3.49a27.13,27.13,0,0,0-2.6,3.26,4.72,4.72,0,0,1-4,2.09,1.46,1.46,0,0,1-1-.38c-.1-.1.17-.58.28-.88,0,0,.06-.06.06-.08a18.26,18.26,0,0,1,8.78-8.31c1.52-.67,2.9-1.61,4.35-2.42l.23.25c-.26.3-.51.65-.79,1C-239-164.79-240.82-163-242.55-161.12Zm-9.91-5.35a1.54,1.54,0,0,1,.56.14l.08.34a10.17,10.17,0,0,1-1.61.73c-3.56.91-7.13,1.76-10.69,2.68-.84.22-1.17.06-1.3-.8a2,2,0,0,1,2.18-2.52c2.25-.07,4.5-.07,6.75-.18C-255.14-166.14-253.83-166.35-252.46-166.47Zm.9-2a61.52,61.52,0,0,0,6.22-.46c2-.32,3.88-1,5.82-1.52a10.19,10.19,0,0,1,1.46-.16l.09.28a4.76,4.76,0,0,1-.89.48c-3.78,1-7.55,2.07-11.36,3a6.87,6.87,0,0,1-2.32-.23C-252.8-168.17-252.34-168.43-251.56-168.47Zm-12.14,6.53a13.23,13.23,0,0,1,1.76-.53c2.56-.68,5.13-1.39,7.7-2.05a11.18,11.18,0,0,1,1.53-.16l.13.51c-2.24,1-4.52,2-6.78,3-.64.31-1.37.45-2,.76a2.43,2.43,0,0,1-2.43-.18,4.09,4.09,0,0,1-.71-.67A3.57,3.57,0,0,1-263.7-161.94Zm2.18,2.35c.09,0,.19-.07.28-.11,3.07-1.4,6.12-2.81,9.19-4.18a8.45,8.45,0,0,1,1.56-.38l.2.38a5.45,5.45,0,0,1-.87.86c-2.5,1.54-5,3.06-7.57,4.59a2.54,2.54,0,0,1-2.84,0C-262.14-158.83-262.15-159.23-261.52-159.59Zm11.07-2.65a14.24,14.24,0,0,1-5.65,5.48c-.68.31-1.7-.15-2.62-.46A23.11,23.11,0,0,1-250.45-162.24ZM-254.2-157c1.49-1.56,3-3.17,4.57-4.65a3.61,3.61,0,0,1,2.12-.69c-1,1.73-1.9,3.51-3,5.18a4.14,4.14,0,0,1-4.62,1.24A11.94,11.94,0,0,1-254.2-157Zm4.41-6c.3-.29.54-.69.88-.83,3.53-1.44,7.08-2.85,10.61-4.26.06,0,.13,0,.26.16-3.84,1.75-7,5-11.54,5.22Zm12.68-6.25c-3,1.24-6,2.51-9,3.7a8.74,8.74,0,0,1-5.94.39,8,8,0,0,1,1.64-1c4.4-1.21,8.83-2.38,13.22-3.53a1.54,1.54,0,0,1,.85,0C-236.59-169.5-236.85-169.36-237.11-169.25Zm-17.13-1c5.32-1.84,10.74-2.08,16.28-2.92C-240.2-170.5-250.82-168.61-254.24-170.21Zm9.18,15a5.1,5.1,0,0,0-1.59.31c-3.65,1.83-7.37,1.67-11.15.51a12.93,12.93,0,0,1-5.48-3c-1.3-1.29-2.67-2.54-4-3.78a2.28,2.28,0,0,1-.67-2.42c.45-1.83,3-3.85,5.21-4-.85.62-1.57,1.12-2.27,1.65-1.45,1.1-1.65,2-.87,3.6a17.63,17.63,0,0,0,2.47,3.14c1.32,1.66,3.18,2.14,4.83,2.84,2.18.9,4.48,2.12,7.06,1.2a1.42,1.42,0,0,1,.91,0,5,5,0,0,0,4.12-.58c1.17-.62,2.36-1.2,3.59-1.83A2.58,2.58,0,0,1-245.06-155.22Zm8.27-6.21c.13,1.09-.45,1.6-1,2.36l.42-2.54-.36-.09c-.26.76-1.29,1.14-.91,2.31.09.27-.57,1-1,1.18a3.48,3.48,0,0,0-1.74,4.11c.39-.56.72-1.08,1.07-1.54a5,5,0,0,1,1.19-1.24l-.65,1.87.21.11,1.53-2.34a3.19,3.19,0,0,1-1.94,3.35,2.72,2.72,0,0,1-3.2-1.31l7-9.23.14.08A8.89,8.89,0,0,0-236.79-161.43Zm1.41-10.69.49-.52-1-.41,1.07-.34v-.3a8.08,8.08,0,0,0-1.63-.11c-3.86.49-7.73,1-11.57,1.55-2.19.33-4.35.85-6.51,1.31-.58.12-.85,0-1-.64-.61-2.5.41-3.87,2.94-3.87,3.69,0,7.38,0,11.07,0a4.76,4.76,0,0,1,3.16.91,4,4,0,0,0,.86.41l.11-.18-1.42-2.1.32-.46a13.77,13.77,0,0,1,1.66.62c1,.51,1.92,1.09,3.16,1.8a41.38,41.38,0,0,0,.91,4.29c.64,2,1.61,3.88,4,4.39a1.83,1.83,0,0,1,.38.23c-.5.81-1.13.56-1.68.21a6.74,6.74,0,0,1-2.74-3.35C-233.34-170.06-233.91-171.4-235.38-172.12Zm.64,17.5c0-.74.08-1.31,1-1.43a46.46,46.46,0,0,1,10.41,0c1,.07,2.17-.18,2.86,1l-.78,1.72h-12.4C-234.45-153.35-234.73-153.87-234.74-154.62Zm10.48,15.32c-1.17-.59-1.63,0-2,1a.82.82,0,0,1-1.48.3c-.89-.88-1.66-1.88-2.48-2.79l.13-.22,6.22.32Zm-.09-2.56a1.27,1.27,0,0,1-.91.35,38.59,38.59,0,0,1-5-.61,2.53,2.53,0,0,1-2-2.93h0c1.62.33,3.23.8,4.82,1s3.26.11,4.89,0C-223-143.44-223.64-142.62-224.35-141.86Zm2.56-5c-.39,1.59-.39,1.59-2,1.74a20.58,20.58,0,0,1-6.91-.46c-2.32-.57-2.66-1-2.66-3.54a18.63,18.63,0,0,0,2.39.4c2.72.21,5.41.39,8.15.53C-221.7-148.1-221.52-147.95-221.79-146.83Zm1.92-4.08a1.52,1.52,0,0,1-1.49,1.38,27.88,27.88,0,0,1-11.07-.11c-1.62-.4-1.44-1.68-1.76-2.77,1.95-.37,13.93-.18,14.69.38l-2,.16C-221.37-150.87-220.68-150.79-219.87-150.91Zm.4-5.92a10.86,10.86,0,0,1-1.28.1c-2.32-.14-4.63-.41-6.95-.46-1.86,0-3.73.21-5.6.25-.5,0-1.39-.23-1.44-.48a5.87,5.87,0,0,1,.19-2.17c0-.09.42-.14.65-.14q3-.17,6-.3a16.08,16.08,0,0,1,7,1.3l-.48.36,1.92,1.21ZM-219-165h0c-1.59.42-3,1.48-4.72,1.24,1.69-1.73,3.23-2.15,4.72-1.24h0Zm-.95-1.44a9.32,9.32,0,0,1,.33-2c1.31.62.65,1.52.91,2.49C-219.29-166.2-220-166.34-220-166.49Zm6-10.19.2.28c-.81,2.54-1.56,3.11-4.77,2.09ZM-217.94-154v-5.85h0C-217-158.74-217-158.61-217.94-154Zm.81-5.78c-.45-1.55-.85-2.89-1.27-4.3C-217-164-216.21-161.58-217.13-159.83Zm3.66,5.44c-.62-.2-.88-1.54-1.47-1.7-1.05-.26-.94-.92-1-1.66l.88.66-1-2.69.32-.15,1.49,2.38.37-.2a36.91,36.91,0,0,1-1.86-3.45,29.21,29.21,0,0,1-1-3.43h.19l5.1,10.11c1.22-1.2,0-1.63-.46-2.28,1.32-.22,1.32-.22,2.56,1.56A5,5,0,0,1-213.47-154.39Zm22.69-14a9.24,9.24,0,0,1,5.95,3.81,2.84,2.84,0,0,1-.45,3.59,22.32,22.32,0,0,1-13.08,7.45,12.85,12.85,0,0,1-6.83-.73c-1-.37-2-.66-3-1a1.21,1.21,0,0,1-.67-.41,5.48,5.48,0,0,1-.37-1.19,4,4,0,0,1,1.19,0,11.12,11.12,0,0,1,2,.95,5.77,5.77,0,0,0,4.11.85,2.11,2.11,0,0,1,.71,0c3.67.76,6.85-.93,9.82-2.51,2.18-1.15,3.8-3.32,5.63-5.14a1.6,1.6,0,0,0-.49-2.34c-1.34-1-2.46-2.4-4.28-2.68-.12,0-.19-.39-.27-.59l-4.3-.28.06-.45Zm-3.9-2.07c-1,.29-1.31-.06-1.37-1s-.14-2-.14-3c0-.27.31-.77.51-.77a13.64,13.64,0,0,1,8.49,1.58l.45.25-.08.45C-189.44-172.12-192-171.25-194.68-170.46Zm26.79-21.46a32.49,32.49,0,0,1-2.88,5.82c-1.73,2.42-3.93,4.51-5.78,6.85-2.4,3-5.76,4.76-8.83,6.88a12.09,12.09,0,0,1-6.18,2.06l-.1-.28c.78-.26,1.56-.47,2.31-.77a13.33,13.33,0,0,0,2-1c1.11-.65,2.18-1.37,3.26-2.07a9.69,9.69,0,0,0,1.51-1c2.82-2.73,5.74-5.37,8.35-8.27a66.7,66.7,0,0,0,5-6.86,2.65,2.65,0,0,0-.07-3.59C-168-193.81-167.41-193-167.89-191.92Z" transform="translate(286.32 200.28)"/></svg>