<svg xmlns="http://www.w3.org/2000/svg" viewBox="0 0 196.23 196.23"><g id="Calque_2" data-name="Calque 2"><g id="Calque_1-2" data-name="Calque 1">
    
    <path class="cica-circle" d="M194.72,98.12c.46,28.84-13.06,49.7-19.57,58.3a97.4,97.4,0,0,1-40.91,31.23,95.52,95.52,0,0,1-36.13,7.08c-34.44-.45-57.59-21-64.29-27.08A101.36,101.36,0,0,1,9.17,133.37,94.23,94.23,0,0,1,1.51,98.12a96.14,96.14,0,0,1,8.78-39.89A97.85,97.85,0,0,1,29.72,29.89C34.82,24.77,59.78,1,98.11,1.51c27.51.4,46.58,13.13,53.15,17.66a101,101,0,0,1,31.53,35.18A93.94,93.94,0,0,1,194.72,98.12Z" style="fill:none;stroke:#000;stroke-miterlimit:10;stroke-width:3px"/>
    
    <path d="M22.41,79.76c.09-.45.17-.91.27-1.36a4.6,4.6,0,0,1,3-3.68,29.87,29.87,0,0,1,23,.79c11,4.74,21.89,9.85,31.85,16.64A19.52,19.52,0,0,0,83.31,94l-2.75-4.5.89-.62a3.63,3.63,0,0,1-.63-1c-.06-.32,0-.87.22-1,1.09-.77.73-1.52,0-2.24-1.17-1.2-2.38-2.36-3.57-3.53a3.65,3.65,0,0,1-1.36-3c0-.47-.36-1-.39-1.46a26.87,26.87,0,0,0-1-4.36,2.65,2.65,0,0,1,1.92-2.85c.89-.35,1.38,0,1.41.85a5.66,5.66,0,0,1-.31,2,6.3,6.3,0,0,0,1.33,6.91,43.55,43.55,0,0,0,3.08,3.28c2.9,2.48,4.11,5.81,5,9.34.35,1.4.8,1.63,2.28,1-.41-1.16-1.3-2.5-.13-3.51a12.75,12.75,0,0,1,3.3-1.5c-1-2.58-2-2.75-4.61-.71l-.28-.24a7.76,7.76,0,0,1,1.4-1.55,2.49,2.49,0,0,1,3,0,6.29,6.29,0,0,1,1.43,1.61c.44.69.89.85,1.58.43a4.73,4.73,0,0,0,.47-.2,2.89,2.89,0,0,1,4.21.23c.94.9,1.65.12,2.25-.76,1.3-2,3.57-2,4.76-.21a1.25,1.25,0,0,1,0,.94c-1.8-1.78-3-1.91-4.13.76a5.22,5.22,0,0,0,.88.55c3,1.1,3.38,1.85,2.15,4.76,1.07.34,1.61-.2,1.89-1.1.55-1.71,1.06-3.43,1.57-5.15a9.72,9.72,0,0,1,3.86-5.44,22.59,22.59,0,0,0,2.65-2.24c1.77-1.67,2.06-3.89,2-6.15,0-.39-.54-.78-1-1.4a7.94,7.94,0,0,1,1.66-1.25,1.48,1.48,0,0,1,1.35.37,2.12,2.12,0,0,1,.39,1.52c-.2,1.22-.68,2.41-.84,3.64a9.37,9.37,0,0,1-1.55,3.56c-1.14,1.94-2.87,3.11-4.49,4.49-1.18,1-1,1.7.43,2.85l-.53,1a1.34,1.34,0,0,0-.25,1,5.2,5.2,0,0,1,0,1.58c-.38,1.12-.89,2.19-1.42,3.46.32-.1.46-.1.52-.17,3.87-4.07,8.8-6.49,13.78-8.83,6.51-3,13-6.24,19.65-8.92,3.57-1.44,7.52-2,11.31-2.83s7.5-.11,11.16.94a5.64,5.64,0,0,1,1,.38c2.92,1.41,3.68,3.39,2.46,6.41a31.47,31.47,0,0,1-5.83,9.33,91.43,91.43,0,0,1-9.06,9.29c-3.72,3.11-7.7,6.05-12.62,7.19a32.86,32.86,0,0,0-3.41.81c1.39.45,2.77.94,4.17,1.34a11,11,0,0,1,5.33,3.66,5,5,0,0,1-.11,5.77,39.33,39.33,0,0,1-5.57,4.89c-5.25,3.91-11.13,5.92-17.72,5-1.94-.28-3.76-1.38-5.67-2a2.91,2.91,0,0,0-2.14.18,6,6,0,0,1-7.31-.21c-.3-.22-.63-.4-.87-.55a22.39,22.39,0,0,0,.61,13.55,10.64,10.64,0,0,0,.63,1.8c.44.79.1,1.12-.6,1.29a5.45,5.45,0,0,1-1.28.13c-.77,0-.93-.53-.53-1,.79-.95.43-1.86.07-2.78-.47-1.19-1.11-2.33-1.46-3.55s-.44-2.52-.89-3.87c-.87,3.23-1.64,6.48-2.62,9.67a12.73,12.73,0,0,1-6.07,7.52,2.33,2.33,0,0,1-1.76.1,7.06,7.06,0,0,1-3.89-3.37c-.62-1.11-1.55-2-2.24-3.11a21.74,21.74,0,0,1-3.18-7.91c-.31-1.76-.7-3.51-1-5.27a22.11,22.11,0,0,1-.45-2.9c-.07-1.47,0-2.95-.14-4.44a5.73,5.73,0,0,0-.8,5.08c.21.87.56,1.72.69,2.6.18,1.29.61,2.4-.14,3.92-1,2-1.09,4.54-1.49,6.86-.08.47.23,1,.27,1.49s.16,1.12-.08,1.34a1.51,1.51,0,0,1-1.39.22,1.44,1.44,0,0,1-.6-1.22,36,36,0,0,1,1-5.17c.91-3.08.33-6.1-.1-9.14a5,5,0,0,0-.33-.89c-1,.4-1.84.83-2.76,1.12a3.51,3.51,0,0,1-4.1-1c-.92-1.09-2-.88-3.16-.48a36.22,36.22,0,0,1-6.25,1.9c-5.77.83-11-1-15.6-4.3a43,43,0,0,1-6.12-5.65,4.24,4.24,0,0,1,.79-6.31c1.8-1.23,3.69-2.34,5.54-3.5l1.18-.71c-.11-.16-.14-.27-.18-.28-5.42-.56-9.56-3.7-13.45-7a68.31,68.31,0,0,1-14.42-16.5,38.25,38.25,0,0,1-1.76-3.78ZM141.84,109l-5.32-.91-.07.56,5.39.35c.11.25.19.71.34.74,2.28.35,3.7,2.08,5.38,3.37,1.06.82,1.38,2.16.61,2.93-2.27,2.27-4.33,5-7.07,6.46-3.73,2-7.71,4.1-12.33,3.15a2.47,2.47,0,0,0-.89.06,7.37,7.37,0,0,1-5.17-1.07,12.08,12.08,0,0,0-2.55-1.19,4.49,4.49,0,0,0-1.51,0,7.41,7.41,0,0,0,.48,1.49,1.49,1.49,0,0,0,.84.51c1.25.44,2.53.8,3.77,1.27a16.13,16.13,0,0,0,8.57.92c6.66-1.09,12-4.49,16.42-9.36a3.57,3.57,0,0,0,.58-4.5C147.55,111.05,144.87,109.72,141.84,109Zm-42.57,3.35.43.19c.44-3.06,2.64-5,4.32-7.3a5.32,5.32,0,0,0,.66-5.12c-.78,0-1.51,0-2.23,0a1.62,1.62,0,0,0-2,1.39,5.19,5.19,0,0,1-.75,1.21c-.61-2.46-.62-2.37-3.4-2.76-1.7-.23-1.91.76-2,2.1a12.89,12.89,0,0,1-.93-1.38c-.63-1-2.88-1.48-3.37-.76-.75,1.11-1.4,2.24-.6,3.68.65,1.15,1,2.45,1.65,3.62a16.32,16.32,0,0,0,1.48,2c1-1.12-.56-2.76,1.29-3.48a4.28,4.28,0,0,1,.4,1.17,1.82,1.82,0,0,0,2.12,2c.93-.07,1.85-.25,2.74-.37a4,4,0,0,1,.33-1.4c.19-.29.68-.39,1-.57a3.68,3.68,0,0,1,.3,1.1c0,.31-.28.61-.37.94C100,109.82,99.64,111.08,99.27,112.33Zm-16-10.79-.13.23a5.11,5.11,0,0,1-1.11-.51,5.91,5.91,0,0,0-4-1.16c-4.63,0-9.27,0-13.9,0-3.18,0-4.46,1.72-3.7,4.86.2.78.54,1,1.26.8,2.72-.58,5.43-1.23,8.18-1.65,4.83-.73,9.68-1.33,14.53-1.94a10.92,10.92,0,0,1,2,.13l0,.38-1.36.43,1.27.52-.61.65c1.84.9,2.57,2.59,3.22,4.32a8.36,8.36,0,0,0,3.44,4.2c.69.44,1.47.75,2.1-.26a1.74,1.74,0,0,0-.47-.28c-3-.65-4.21-3-5-5.52a49.54,49.54,0,0,1-1.15-5.39c-1.56-.89-2.74-1.62-4-2.26a16.27,16.27,0,0,0-2.09-.77l-.4.54Zm-27.51,5.54.08-.32a4.37,4.37,0,0,0-.4-.25c-3-1.27-6.26-1.94-9.1-3.75-1.78-1.14-4-1.63-4.91-3.85-.13-.3-.57-.5-.9-.68a9,9,0,0,1-4.11-3.92c-.16-.35-.6-.57-.91-.85-.85-.75-2-1.35-2.49-2.28-1.2-2.21-3.72-3.43-4.36-6a.69.69,0,0,0-.25-.29,8.61,8.61,0,0,1-2.75-4.67c-.54-2-.39-2.67,1.22-4,.35-.3.67-.62,1-.94-4.06.76-5.3,4.74-3,8.33a74,74,0,0,0,12.65,14.8c3.07,2.82,6.15,5.64,10.2,7A25.56,25.56,0,0,0,55.78,107.08Zm55.92-5,.18.38c7.36,1.48,15,1.25,22.35,3.69,0-.67,0-1.18,0-1.69,0-3.17-.69-4.28-3.87-4.33-5.43-.09-10.86.23-16.29.53C113.26,100.66,112.49,101.54,111.7,102ZM79.6,98.9l0-.29c-2-.87-3.95-1.82-6-2.59a10.1,10.1,0,0,0-3.23-.6c-2.53-.07-5.09.29-7.58,0C60,95,57.54,96,55.11,97.14a1.69,1.69,0,0,0-.6,1.32c0,.24.57.67.93.72,1.65.2,3.33.31,5,.43a5.57,5.57,0,0,0,1.15-.08,37.24,37.24,0,0,1,4-.53c4.25-.07,8.5,0,12.75,0C78.78,99,79.19,98.92,79.6,98.9ZM140,97.23a11.45,11.45,0,0,1-2-.69,9,9,0,0,0-5-1,61.49,61.49,0,0,1-7.18.13,14.8,14.8,0,0,0-9,2c-.71.42-1.43.81-2.14,1.22a2.65,2.65,0,0,0,1.46.34c3.59-.1,7.19-.14,10.78-.35s7.18,1,10.84.42C139.52,99.06,139.75,99.11,140,97.23Zm4.64-7.89a7.68,7.68,0,0,0-6.68-.06,11.66,11.66,0,0,1-6.5,1.08,3.76,3.76,0,0,0-2.12.21c-2,1.1-3.93,2.36-6.18,3.75a12.79,12.79,0,0,0,3.09.84,33.85,33.85,0,0,0,10.74-1.62,24.77,24.77,0,0,1,4.31-1.1C143.34,92.13,144.16,91.48,144.59,89.34ZM51.41,87.18C49.1,86,47,84.73,44.87,83.73A9.39,9.39,0,0,0,39.09,83c-2.44.46-4.88.93-7.3,1.48-.57.13-1.5.56-1.51.87a2.5,2.5,0,0,0,.82,1.88,4.88,4.88,0,0,0,2.47.63c.79,0,1.6-.4,2.39-.38,3.72.09,7.44.22,11.15.41C48.52,88,49.91,88.23,51.41,87.18Zm91.28.36.06.39a4.85,4.85,0,0,0,1.3.29c1.83-.08,3.67-.13,5.47-.39,4.06-.58,8.1-1.57,12.14.16a1.39,1.39,0,0,0,1.91-.81c.25-.49.5-1,.77-1.47.47-.86.07-1.25-.74-1.47a25.27,25.27,0,0,0-19,2A20.79,20.79,0,0,0,142.69,87.54ZM70.46,94.65l.12-.5c-1.85-1.21-3.67-2.46-5.57-3.59a2.64,2.64,0,0,0-1.84-.18A7.67,7.67,0,0,1,58,89.94c-1.1-.47-2.27-.82-3.32-1.38-2.07-1.12-3.72,0-5.49.75C49.93,91.12,51,92.18,53,92a1.9,1.9,0,0,1,.88.17c4.74,2.2,9.84,2.43,14.93,2.67A11.09,11.09,0,0,0,70.46,94.65Zm-19,15.27c-2.74.18-6,2.72-6.55,5a2.88,2.88,0,0,0,.85,3c1.71,1.55,3.42,3.11,5.07,4.73a16.28,16.28,0,0,0,6.88,3.83c4.75,1.46,9.42,1.66,14-.63a6.46,6.46,0,0,1,2-.39,3.26,3.26,0,0,0,2.68-3c-1.55.78-3,1.52-4.52,2.28a6.37,6.37,0,0,1-5.18.72,1.89,1.89,0,0,0-1.13,0c-3.23,1.15-6.13-.38-8.87-1.52-2.08-.86-4.41-1.46-6.07-3.55-1-1.29-2.35-2.37-3.11-3.93-1-2-.72-3.14,1.1-4.53C49.45,111.32,50.35,110.7,51.42,109.92Zm54.35,19.6c-1-.69-16-.94-18.44-.47.4,1.37.18,3,2.2,3.47a35.21,35.21,0,0,0,13.91.14,1.92,1.92,0,0,0,1.87-1.71c-1,.14-1.88,0-2.09-1.22Zm51.72-35.83a7.06,7.06,0,0,0-5.16-1.21c-2.55.21-5.11.44-7.66.62-1,.07-2.08-.09-3.07.08-1.63.29-3.23.76-4.84,1.15V95a15.19,15.19,0,0,0,3.39,1.18c2.42.27,4.88.18,7.3.38,1.52.12,3,.53,4.52.76.52.08,1.25.26,1.57,0C154.87,96.24,156.09,95,157.49,93.69ZM84.52,110l-.3-.32c-1.81,1-3.56,2.21-5.45,3.05a23,23,0,0,0-11,10.46s-.06.07-.07.1c-.14.39-.48,1-.35,1.11a1.82,1.82,0,0,0,1.24.48,6,6,0,0,0,5-2.62,34,34,0,0,1,3.27-4.1c2.18-2.35,4.46-4.61,6.68-6.92C83.87,110.8,84.18,110.37,84.52,110Zm20,15.74c-.87-1.47-2.32-1.13-3.6-1.25a59,59,0,0,0-13.08,0c-1.19.15-1.3.87-1.29,1.8s.37,1.6,1.41,1.6c5.21,0,10.43,0,15.57,0ZM58,94.93l-.08-.55a20.8,20.8,0,0,0-7.85-1.62c-3.26.08-6.52.25-9.77.45a13.88,13.88,0,0,0-2.48.63A24.41,24.41,0,0,0,39.3,96a4,4,0,0,0,4.23,1.31c3.28-.6,6.62-.8,9.92-1.28C55,95.77,56.48,95.29,58,94.93ZM168.74,76.65c1.37,1.56,1.07,3.1.08,4.52a82,82,0,0,1-6.24,8.6c-3.28,3.65-7,7-10.48,10.38a12.63,12.63,0,0,1-1.9,1.28c-1.36.87-2.71,1.77-4.1,2.6a17.12,17.12,0,0,1-2.47,1.21c-.94.38-1.93.65-2.89,1l.12.36a15.15,15.15,0,0,0,7.75-2.58c3.85-2.66,8.08-4.85,11.08-8.64,2.33-2.94,5.1-5.56,7.26-8.61a40.12,40.12,0,0,0,3.62-7.31C171.18,78,170.49,77.06,168.74,76.65Zm-16.93,5.94a3.21,3.21,0,0,0-3.64-1c-4.65,1.31-9.33,2.53-14,3.9a5.11,5.11,0,0,0-2.29,1.67,6.26,6.26,0,0,0-.69,2.24,6.47,6.47,0,0,0,2.43.23c3.09-1,6.17-2,9.14-3.3,2.7-1.17,5.15-2.9,8.14-3.37A3.5,3.5,0,0,0,151.81,82.59Zm-47.73,38.52a20.13,20.13,0,0,0-8.84-1.63l-7.58.37c-.29,0-.8.07-.82.18a7.72,7.72,0,0,0-.24,2.72c.06.32,1.18.62,1.81.61,2.35,0,4.7-.37,7-.32,2.91.06,5.81.4,8.72.59a9.7,9.7,0,0,0,1.61-.12l.07-.41-2.4-1.52Zm-60.44-39,1.48.75C49,84.7,53,86.44,56.81,88.33A12,12,0,0,0,62,89.47c1.07,0,1.27-.48,1-1.38a4,4,0,0,0-2.94-2.93c-1-.27-2.11-.36-3.14-.66-3.31-1-6.62-2-9.92-3A2.91,2.91,0,0,0,43.64,82.15Zm44.68,51.07c0,3.22.43,3.73,3.33,4.46a26.14,26.14,0,0,0,8.68.59c2.08-.19,2.08-.18,2.56-2.2.34-1.39.12-1.58-1.33-1.66-3.42-.17-6.83-.4-10.24-.66C90.32,133.67,89.33,133.4,88.32,133.22Zm23.93-22.11-.26.24a11.12,11.12,0,0,0,.72.94c3.08,3.45,6.16,6.91,9.27,10.33a9,9,0,0,0,2,1.65,3.34,3.34,0,0,0,3.51.23C124.38,117.64,118.49,114.17,112.25,111.11Zm32.24-18.65a37.68,37.68,0,0,0,4.84-.41,14.6,14.6,0,0,1,8.58.37c1.23.47,3.52-1.79,3.18-3a1.08,1.08,0,0,0-.66-.66,17,17,0,0,0-4-.63c-2.65.12-5.28.6-7.93.79C146.3,89,145.29,90.36,144.49,92.46Zm-95.35-1c-.5-1.91-1.31-2.65-3-2.9A34.67,34.67,0,0,0,34.46,89c-1.2.23-1.48,1-.62,1.87a5,5,0,0,0,3.9,1.62c2.73-.12,5.47-.15,8.2-.32A24.12,24.12,0,0,0,49.14,91.5ZM62.68,86c.91,1.27,1.47,2.62,2.48,3.35,2.87,2.09,5.87,4,8.91,5.84A38.26,38.26,0,0,0,79,97.42a10.1,10.1,0,0,0,1.55.41l.26-.31a6.09,6.09,0,0,0-1-1.46c-1.14-.91-2.34-1.74-3.55-2.55-3.42-2.29-6.84-4.57-10.29-6.83A3.25,3.25,0,0,0,62.68,86Zm84.13,17.2.1-.56-.55-.32a17.11,17.11,0,0,0-10.65-2c-.26,0-.65.63-.65,1,0,1.24.1,2.47.17,3.71s.5,1.68,1.72,1.32C140.26,105.4,143.53,104.3,146.81,103.24ZM43.67,80.88l-.11-.5a10.48,10.48,0,0,0-7.63-1.57c-2.4.43-4.78,1-7.14,1.61-.6.15-1.59.74-1.56,1a3.1,3.1,0,0,0,1.1,1.86,2.76,2.76,0,0,0,1.87.34q5.58-.84,11.12-1.84A13.26,13.26,0,0,0,43.67,80.88ZM154.61,78.4a5.29,5.29,0,0,0-1.1-.46,30.49,30.49,0,0,0-3.69-.34,10.72,10.72,0,0,0-4.11.36c-3.61,1.55-7.1,3.37-10.61,5.13a9.67,9.67,0,0,0-1.58,1.3c.43.14.65.29.8.25C141,82.6,147.67,80.54,154.61,78.4Zm-4,2a7.41,7.41,0,0,0,5.13,2.1,29.12,29.12,0,0,1,9,1A1.61,1.61,0,0,0,167,82.32c.24-1.11-.46-1.62-1.36-1.8-2.6-.5-5.21-1-7.84-1.34A11.9,11.9,0,0,0,150.64,80.41ZM59.49,100.75c-3-1.5-9.45-.33-11.12,2.27,3,1.08,6.05,2.17,9.07,3.21a1.79,1.79,0,0,0,1.25,0,1.5,1.5,0,0,0,.76-1C59.54,103.79,59.49,102.37,59.49,100.75ZM40.57,77.67c3.17,2.08,18.52,6.69,20.25,6.14a22,22,0,0,0-2.5-1.76c-2.87-1.44-5.81-2.73-8.66-4.21a6.19,6.19,0,0,0-4.42-.67A45,45,0,0,1,40.57,77.67Zm73.18,20.12a5.38,5.38,0,0,0,1.15-.26c2.78-1.4,5.59-2.75,8.31-4.26,1.64-.9,3.14-2.07,4.72-3.08a9.26,9.26,0,0,0,3.53-4.47C127.75,86.62,114.88,95.32,113.75,97.79Zm19,8.93c-7.21-2.14-14.78-2.12-22.35-3.68C117.47,107.41,124.8,108.85,132.71,106.72Zm-3.05,5,0,.38a11.36,11.36,0,0,0,1.44.62c4.47,1.22,8.94,2.39,13.4,3.65a2.55,2.55,0,0,0,2.48-.61c.9-.74.9-1.5-.12-2a8.89,8.89,0,0,0-2.89-1c-3.88-.47-7.76-.85-11.65-1.2A16.41,16.41,0,0,0,129.66,111.74ZM65.18,112l-.1-.42a2,2,0,0,0-.69-.18c-1.69.15-3.38.42-5.07.5-2.82.13-5.65.13-8.47.22-2,.06-3,1.29-2.74,3.16.16,1.08.56,1.29,1.63,1,4.46-1.18,9-2.23,13.43-3.38A12.43,12.43,0,0,0,65.18,112Zm17.41-9c-7,1.06-13.74,1.37-20.45,3.67C66.43,108.7,79.79,106.33,82.59,103Zm21.52,16.39a5.08,5.08,0,0,0-4.7-3.36c-1.57-.13-3.15-.27-4.73-.31a4.37,4.37,0,0,0-1.55.39,15,15,0,0,1-2,.84c-.92.18-1.88.11-2.81.24a4.14,4.14,0,0,0-1.11.56c.38.32.73.87,1.15.92a14.32,14.32,0,0,0,3.07,0c4-.36,7.94-.74,11.81.63A4.81,4.81,0,0,0,104.11,119.41ZM89.79,138.28c-.11,1.87.64,3.26,2.46,3.68a46,46,0,0,0,6.32.77,1.58,1.58,0,0,0,1.15-.44c.88-.95,1.68-2,2.32-2.74a60,60,0,0,1-6.14-.05A58.43,58.43,0,0,1,89.79,138.28ZM53.31,98.76a1.94,1.94,0,0,0-2.16-2c-2.57.41-5.12.94-7.67,1.46a1,1,0,0,0-.7.61,1.05,1.05,0,0,0,.46.79c1.07.7,2.17,1.37,3.28,2a1.27,1.27,0,0,0,.94,0c1.73-.71,3.46-1.44,5.16-2.23C53,99.32,53.17,98.92,53.31,98.76Zm87.44.85a49.85,49.85,0,0,1,5.44,1.27,3.48,3.48,0,0,0,3.7-.41c.43-.35.94-.6,1.37-1a7,7,0,0,0,.71-.81c-.31-.2-.59-.54-.91-.58-2.7-.33-5.4-.68-8.11-.86C141.11,97.14,140.65,97.75,140.75,99.61ZM64.23,114.28l-.16-.64a12.38,12.38,0,0,0-1.93.2c-3.23.83-6.45,1.71-9.67,2.57a18.76,18.76,0,0,0-2.21.67,4.53,4.53,0,0,0-1,.86,5.09,5.09,0,0,0,.89.85,3.07,3.07,0,0,0,3.06.22c.8-.39,1.69-.59,2.52-1C58.56,116.82,61.39,115.54,64.23,114.28Zm65.47-.37c.23.39.26.49.32.52,4,1.64,8,3.31,12,4.88a2.42,2.42,0,0,0,3-1.68,8.28,8.28,0,0,0-1.25-.57c-4-1.11-8-2.21-12-3.25A7.63,7.63,0,0,0,129.7,113.91Zm-20.22-.21-.24,0a37.17,37.17,0,0,0,1.23,4.34,45.11,45.11,0,0,0,2.33,4.33l-.46.26-1.87-3-.41.2,1.26,3.4-1.1-.84c.09.93,0,1.76,1.26,2.09.75.19,1.08,1.88,1.85,2.13,1.79.59,3.54-.09,5.15-1.06-1.55-2.24-1.55-2.24-3.21-2,.56.82,2.11,1.36.57,2.86Zm-42.37.94-.25-.47a10.39,10.39,0,0,0-2,.47c-3.86,1.72-7.7,3.49-11.54,5.25A3.84,3.84,0,0,0,53,120c-.79.45-.77,1-.06,1.46a3.22,3.22,0,0,0,3.57,0c3.17-2,6.36-3.87,9.52-5.82A6.36,6.36,0,0,0,67.11,114.64Zm-2.2-1.6a11,11,0,0,0,7.47-.49c3.78-1.5,7.53-3.09,11.29-4.65.33-.14.65-.31,1-.47a1.89,1.89,0,0,0-1.07-.05C78,108.85,72.5,110.3,67,111.82A10.21,10.21,0,0,0,64.91,113Zm45.57-5.35a1.06,1.06,0,0,0,.29.24c4.93,1.92,9.85,3.88,14.82,5.71a4.25,4.25,0,0,0,4.06-.81C123.47,110,116.78,109.6,110.48,107.69Zm17.39,8.3a1.51,1.51,0,0,0,.32,2.27c1.86,1.64,3.74,3.27,5.57,4.95a2.54,2.54,0,0,0,2.73.53c1.24-.4,1.47-1.11.41-1.85C134,119.86,130.94,118,127.87,116Zm-66.82,8.67c2.07.74,4.78,0,5.81-1.55,1.35-2.1,2.5-4.33,3.73-6.51a4.6,4.6,0,0,0-2.66.87c-2,1.86-3.86,3.88-5.76,5.84C61.8,123.7,61.48,124.14,61.05,124.66Zm81.12-4.08a6.06,6.06,0,0,0-.79-.51c-4.1-1.75-8.19-3.5-12.29-5.21a10.71,10.71,0,0,0-1.88-.44l-.16.36c.62.42,1.21.88,1.85,1.26,3.16,1.88,6.34,3.73,9.49,5.62C139.85,122.54,141.11,122.25,142.17,120.58ZM66.91,116.7c-4,1.22-7.23,3.59-10.39,6.3,1.13.39,2.44,1,3.29.57C62.93,122.14,65.05,119.52,66.91,116.7Zm56.74,0-.19.28,4.43,6.06a8.45,8.45,0,0,0,.8,1,3.78,3.78,0,0,0,4.79.18c-2.52-2.21-5-4.44-7.54-6.56A8.42,8.42,0,0,0,123.65,116.68ZM85,114l-.18-.1-8.74,11.61c1.11,1.59,2.55,2.16,4,1.65A4,4,0,0,0,82.51,123l-1.92,2.94-.26-.14.81-2.34a6.47,6.47,0,0,0-1.5,1.55c-.44.61-.85,1.23-1.33,1.94a4.38,4.38,0,0,1,2.17-5.17c.57-.24,1.4-1.15,1.29-1.48-.48-1.47.81-2,1.16-2.91l.44.11-.52,3.19c.65-1,1.38-1.59,1.22-3C83.94,116.54,84.64,115.26,85,114Zm64.8-38c1.17,1.3,2.49.93,3.8.87,2.17-.11,4.34-.24,6.51-.16,2,.06,4,.25,6.16-.76a8,8,0,0,0-2.23-1,24.39,24.39,0,0,0-4.44,0C156.3,75.19,153,75.62,149.78,76Zm-38.23,33.36c.09.24.1.35.15.39,3.46,2,6.89,4.12,10.42,6a5.49,5.49,0,0,0,4.74.11,14.84,14.84,0,0,0-2.09-1.51c-1.27-.6-2.61-1.06-3.93-1.55Zm43.56-32.09,0,.37a2.64,2.64,0,0,0,.57.26c3.87.7,7.73,1.41,11.6,2.06.93.15,1.34-.39,1.23-1.31a1.78,1.78,0,0,0-2.28-1.6,33.15,33.15,0,0,1-4.44.4c-1.88,0-3.76-.23-5.63-.33A5.11,5.11,0,0,0,155.11,77.26ZM51.68,111.14a4.75,4.75,0,0,0,1.27.23c2.93-.26,5.87-.51,8.79-.9.51-.06.95-.72,1.51-1.17C60.37,107.53,53.81,108.65,51.68,111.14Zm30.9-4.59-.11-.35a12.35,12.35,0,0,0-1.83.21c-2.44.63-4.83,1.5-7.31,1.9a75,75,0,0,1-7.8.57c-1,.06-1.57.39-1.25,1.7a8.63,8.63,0,0,0,2.92.3c4.78-1.15,9.52-2.46,14.27-3.74A5.94,5.94,0,0,0,82.58,106.55Zm48.75,2.34a2.06,2.06,0,0,0,2.06,2c1.74.25,3.47.55,5.22.77s3.56.39,5.34.58l.07-.44A25.28,25.28,0,0,0,131.33,108.89ZM29.65,75.38a68.36,68.36,0,0,0,15.68.73C40.26,74.3,33.58,73.56,29.65,75.38Zm38.09,40.37.26.36c5.69-.27,9.67-4.35,14.49-6.55-.15-.18-.25-.22-.32-.2-4.44,1.77-8.9,3.53-13.32,5.35C68.41,114.88,68.11,115.39,67.74,115.75ZM38.47,77.36c-3.38-.26-6.49-.49-9.59-.75a2.24,2.24,0,0,0-2.29,3.07Zm54.05,66-.17.28c1,1.18,2,2.4,3.11,3.5a1,1,0,0,0,1.86-.37c.42-1.28,1-2,2.46-1.23l.55-1.77Zm18.89-36.9-.13.44a11.18,11.18,0,0,0,1.11.38c5.36,1.29,10.73,2.6,16.11,3.83a9,9,0,0,0,2.51-.19c-.55-1.24-.93-2.12-2.25-1.92a26.42,26.42,0,0,1-13.34-1.54A35.6,35.6,0,0,0,111.41,106.41Zm-14-9.19c-1.06-1.31-.24-1.93.72-2.6a28.09,28.09,0,0,0,2.28-2c-1.47-.14-2.61-.29-3.75-.33s-2.3,0-3.67.07c.93,1.91,4.21,2,2.59,4.82ZM83.09,89.91l-.19,0a9.66,9.66,0,0,0,.37,1.73,1.51,1.51,0,0,0,2,.87,1.58,1.58,0,0,0,.53-1.44,33.6,33.6,0,0,0-1.59-4.55c-.13-.3-.78-.38-1.2-.57a3.84,3.84,0,0,0-.42,1.31A21.4,21.4,0,0,0,83.09,89.91Zm28.78-2.71-.63-.9c-.39.29-1,.51-1.12.89a25.49,25.49,0,0,0-1.24,3.89,5.46,5.46,0,0,0,.24,1.84c.59-.39,1.53-.66,1.72-1.19A36.06,36.06,0,0,0,111.87,87.2ZM89.79,97.93l0,.49c3.71.83,13.91,1.13,14.89.35Zm23.12,1-.24-.35-5.74,3C111,102.82,111.91,102.12,112.91,98.92Zm-10.06-5.2c-.07-.15-.16-.62-.43-.76s-.69.12-.93.34a19.82,19.82,0,0,0-1.86,1.92c-.2.24-.39.79-.27.94a1.36,1.36,0,0,0,1,.35A3.2,3.2,0,0,0,102.85,93.72ZM94.28,95.2l-3.12-3.46c-.78.21-1.11.74-.41,1.65.52.68,1,1.37,1.6,2C93.25,96.35,93.54,96.29,94.28,95.2Zm20.29,19.92c.85,2.6,4.91,7.27,6.18,7.27Zm-8.19-2c-1.89-1.15-3.82-.63-6,1.54C102.64,115,104.36,113.68,106.38,113.15ZM97.16,89.94l1.29,1.51.34-.21V89.53c-1.72-.31-1.71-.3-3.08.93a3.49,3.49,0,0,1-1,.45l-1,.45C95.19,91.67,96.52,91.45,97.16,89.94Zm10,24.39,1.6,5.4C109.9,117.53,109,114.53,107.15,114.33Zm-5.72-17.15a2,2,0,0,0,2.37.83c.81-.23,1.38-.8.92-1.57-.21-.35-1.16-.49-1.68-.37S102,96.76,101.43,97.18Zm-20.72-3,.24-.29a16.53,16.53,0,0,0-6.44-4.45l-.18.26Zm27,25.41V127C108.92,121.26,108.92,121.1,107.74,119.64ZM77,121.25l.29.25c1.88-2.22,4.18-4.11,5.45-6.8l-.32-.26ZM89.75,93.79c-.61,2.79.16,3.78,2.7,3.53Zm8.56,18.8c-.2-1.93-.84-2.41-2.72-2.19-.23,0-.44.26-.66.4.15.18.26.43.45.52C96.3,111.75,97.24,112.13,98.31,112.59Zm20-22.61.2.36L126.63,86l-.24-.45ZM79.66,116.74l-.35-.29-4.89,5.62.5.42Zm10.51-.93-2.51-.26c1.11,1.17,2.76,1.09,4.61-.25l-2.4-1.07Zm15.44-6.92a12.15,12.15,0,0,0-.42,2.47c0,.2.85.37,1.56.66C106.41,110.81,107.23,109.67,105.61,108.89Zm-5.79-19.7,2.37,2.48C102.24,89.13,101.54,88.41,99.82,89.19ZM92.08,114c-1.31-1.66-2.71-2.09-4.46-1.47Zm7-25.63c-1.44-1.6-2.37-1.56-3.1,0Zm6.6,28.26-2.06-.73.24-.62-.21-.14-1,.91C103.51,117.24,104.57,117.07,105.68,116.66Zm-3.79-4.49.28.24a4.26,4.26,0,0,0,2.19-2.94l-.43-.3ZM84,94.85c.81,2,2.39,3.34,3.17,3Zm8.31-3.55a2.53,2.53,0,0,0,2-2.5,1.57,1.57,0,0,0-1,.55A17.62,17.62,0,0,0,92.35,91.3Zm1,23.07,0,.14,4.67.31,0-.45Zm24.74,7.41-2.53-3.16-.28.24C116.32,119.78,116.5,121.4,118.13,121.78ZM114,93.21l.42.45,2-1.8-.35-.39Zm-7.58,2.62c1.28,1.13,1.61,1,2.12-.6Zm9.25-14.6-.27-.31-2.93,2.22.26.31Z" style="fill:#fff"/></g></g></svg>