<svg id="Calque_1" data-name="Calque 1" xmlns="http://www.w3.org/2000/svg" viewBox="0 0 143.59 76.42"><path d="M126.41,71.11c.09-.44.16-.88.26-1.31a4.41,4.41,0,0,1,2.86-3.53,28.7,28.7,0,0,1,22.14.75c10.58,4.55,21,9.47,30.59,16a20,20,0,0,0,2.64,1.8l-2.63-4.32.84-.6a3.37,3.37,0,0,1-.59-1,1.14,1.14,0,0,1,.2-1c1.05-.74.71-1.46,0-2.15-1.12-1.15-2.28-2.26-3.43-3.39a3.51,3.51,0,0,1-1.3-2.93c0-.45-.35-.93-.38-1.4a24.82,24.82,0,0,0-1-4.19,2.54,2.54,0,0,1,1.85-2.74c.85-.34,1.32,0,1.35.82a5.43,5.43,0,0,1-.29,1.92,6.06,6.06,0,0,0,1.27,6.64,42.05,42.05,0,0,0,3,3.15c2.79,2.38,3.95,5.58,4.8,9,.34,1.34.77,1.56,2.19,1-.39-1.11-1.25-2.4-.12-3.37a11.77,11.77,0,0,1,3.17-1.44c-.93-2.48-1.87-2.64-4.43-.68l-.26-.23a7.15,7.15,0,0,1,1.34-1.49,2.4,2.4,0,0,1,2.9,0,6,6,0,0,1,1.37,1.56c.42.66.86.81,1.51.41a3.07,3.07,0,0,0,.45-.2,2.8,2.8,0,0,1,4.06.23c.9.86,1.58.11,2.15-.74,1.25-1.86,3.44-1.95,4.58-.2a1.28,1.28,0,0,1,0,.91c-1.74-1.71-2.85-1.84-4,.73a4.78,4.78,0,0,0,.84.53c2.91,1.05,3.25,1.77,2.07,4.57,1,.33,1.54-.19,1.82-1,.52-1.65,1-3.3,1.51-5a9.28,9.28,0,0,1,3.7-5.22,22.66,22.66,0,0,0,2.55-2.15c1.69-1.61,2-3.74,2-5.91,0-.38-.51-.75-.95-1.34a7.41,7.41,0,0,1,1.59-1.21,1.44,1.44,0,0,1,1.3.36,2,2,0,0,1,.36,1.46c-.19,1.18-.64,2.32-.8,3.5A9,9,0,0,1,218,71c-1.09,1.86-2.76,3-4.31,4.31-1.14,1-1,1.63.41,2.74l-.5.94a1.32,1.32,0,0,0-.25,1,5.07,5.07,0,0,1,0,1.51c-.37,1.08-.86,2.11-1.37,3.33.31-.1.44-.1.5-.16,3.72-3.91,8.46-6.24,13.23-8.48,6.26-2.94,12.47-6,18.88-8.58,3.43-1.38,7.22-1.9,10.87-2.71s7.2-.11,10.72.9a5.07,5.07,0,0,1,.91.36c2.82,1.36,3.55,3.26,2.37,6.16a30.19,30.19,0,0,1-5.6,9,88.47,88.47,0,0,1-8.7,8.93c-3.58,3-7.4,5.81-12.12,6.9a32.34,32.34,0,0,0-3.28.78c1.33.43,2.66.9,4,1.29a10.57,10.57,0,0,1,5.12,3.51,4.78,4.78,0,0,1-.11,5.55,38.07,38.07,0,0,1-5.35,4.7c-5,3.75-10.69,5.68-17,4.79-1.87-.26-3.61-1.32-5.45-1.87a2.85,2.85,0,0,0-2.06.17,5.75,5.75,0,0,1-7-.2c-.29-.21-.6-.38-.83-.52a21.44,21.44,0,0,0,.59,13,10,10,0,0,0,.6,1.72c.42.76.1,1.08-.57,1.24a5.08,5.08,0,0,1-1.23.12c-.74,0-.9-.5-.51-1,.75-.91.41-1.78.06-2.66-.44-1.15-1.06-2.24-1.4-3.42s-.42-2.42-.86-3.71c-.83,3.1-1.57,6.22-2.51,9.29a12.25,12.25,0,0,1-5.83,7.22,2.24,2.24,0,0,1-1.69.09,6.81,6.81,0,0,1-3.74-3.23c-.59-1.07-1.49-2-2.15-3a20.89,20.89,0,0,1-3.05-7.6c-.3-1.69-.68-3.37-1-5.06a20.22,20.22,0,0,1-.43-2.79c-.08-1.41,0-2.83-.14-4.26a5.53,5.53,0,0,0-.77,4.88,24.9,24.9,0,0,1,.66,2.5c.17,1.24.6,2.3-.13,3.76-1,2-1,4.37-1.43,6.59-.08.45.22.95.26,1.43s.15,1.07-.08,1.29a1.44,1.44,0,0,1-1.33.21,1.37,1.37,0,0,1-.58-1.17,34.44,34.44,0,0,1,.94-5c.87-3,.32-5.87-.1-8.79a4.25,4.25,0,0,0-.31-.85c-.93.38-1.77.79-2.66,1.08a3.37,3.37,0,0,1-3.93-.95c-.88-1-1.91-.84-3-.46a35.28,35.28,0,0,1-6,1.83c-5.55.79-10.55-1-15-4.13a41.27,41.27,0,0,1-5.87-5.43,4.08,4.08,0,0,1,.75-6.06c1.73-1.19,3.55-2.25,5.33-3.36.37-.24.75-.46,1.13-.68-.1-.16-.13-.27-.18-.27-5.2-.54-9.17-3.56-12.91-6.76A65.52,65.52,0,0,1,128.1,75.24a35.44,35.44,0,0,1-1.69-3.64ZM241.12,99.17l-5.1-.88-.07.54,5.18.34c.1.25.18.68.32.71,2.2.34,3.56,2,5.17,3.24,1,.79,1.33,2.08.59,2.82-2.18,2.17-4.17,4.81-6.8,6.2-3.58,1.9-7.41,3.94-11.83,3a2.5,2.5,0,0,0-.86.06,7,7,0,0,1-5-1,12.14,12.14,0,0,0-2.45-1.14,4.4,4.4,0,0,0-1.45,0,7.47,7.47,0,0,0,.46,1.43,1.54,1.54,0,0,0,.81.5c1.2.42,2.43.76,3.61,1.21a15.52,15.52,0,0,0,8.24.88c6.4-1,11.49-4.31,15.77-9a3.41,3.41,0,0,0,.56-4.32C246.61,101.16,244,99.88,241.12,99.17Zm-40.88,3.22.4.18c.43-2.94,2.54-4.81,4.15-7a5.09,5.09,0,0,0,.64-4.92c-.75,0-1.45,0-2.14,0A1.57,1.57,0,0,0,201.4,92a4.83,4.83,0,0,1-.71,1.17c-.59-2.37-.6-2.27-3.27-2.65-1.63-.23-1.83.73-2,2a11.82,11.82,0,0,1-.89-1.33c-.61-.92-2.77-1.43-3.24-.73-.72,1.07-1.35,2.15-.57,3.53.62,1.11,1,2.35,1.58,3.48a16.05,16.05,0,0,0,1.42,1.92c.94-1.07-.53-2.65,1.24-3.34a4.24,4.24,0,0,1,.38,1.12,1.75,1.75,0,0,0,2,1.91c.89-.06,1.78-.24,2.63-.35a3.88,3.88,0,0,1,.32-1.34c.18-.29.65-.38,1-.56a3.91,3.91,0,0,1,.29,1.06c0,.3-.27.59-.36.91C200.93,100,200.59,101.18,200.24,102.39ZM184.88,92l-.12.21a4.72,4.72,0,0,1-1.07-.48,5.67,5.67,0,0,0-3.81-1.12c-4.45,0-8.9,0-13.35,0-3.05,0-4.28,1.66-3.55,4.67.18.75.51.91,1.21.77,2.61-.55,5.21-1.18,7.85-1.58,4.64-.71,9.3-1.28,14-1.87a10.14,10.14,0,0,1,2,.13l0,.36-1.3.41,1.22.5-.58.63c1.77.87,2.46,2.48,3.09,4.15a8.08,8.08,0,0,0,3.3,4c.66.42,1.42.72,2-.25a1.72,1.72,0,0,0-.45-.27c-2.87-.62-4.05-2.85-4.81-5.3a47.16,47.16,0,0,1-1.11-5.18c-1.5-.86-2.63-1.56-3.81-2.17a15.44,15.44,0,0,0-2-.74l-.39.52Zm-26.42,5.31.07-.3a2.49,2.49,0,0,0-.38-.25c-2.9-1.21-6-1.85-8.74-3.59-1.71-1.1-3.81-1.57-4.71-3.7-.13-.29-.55-.48-.87-.66a8.66,8.66,0,0,1-4-3.76c-.15-.34-.57-.55-.87-.82-.82-.72-1.91-1.29-2.39-2.19-1.15-2.12-3.57-3.29-4.19-5.76a.59.59,0,0,0-.24-.28,8.27,8.27,0,0,1-2.64-4.49c-.52-1.91-.38-2.56,1.17-3.87.34-.29.65-.6,1-.9-3.9.72-5.1,4.54-2.91,8A70.63,70.63,0,0,0,140.94,89c2.94,2.71,5.89,5.42,9.78,6.73A24.77,24.77,0,0,0,158.46,97.34Zm53.72-4.84.17.36c7.07,1.43,14.41,1.2,21.47,3.54V94.78c0-3-.66-4.11-3.73-4.16-5.21-.09-10.43.22-15.64.52C213.67,91.18,212.93,92,212.18,92.5Zm-30.84-3,0-.28c-1.91-.84-3.8-1.75-5.75-2.49a9.89,9.89,0,0,0-3.1-.58c-2.43-.06-4.9.28-7.29,0-2.76-.36-5.08.59-7.41,1.69-.34.15-.57.82-.58,1.27,0,.23.55.64.89.68,1.59.2,3.2.31,4.8.42a5.05,5.05,0,0,0,1.1-.08,34.61,34.61,0,0,1,3.88-.5c4.08-.07,8.16,0,12.25,0Zm58-1.6a11.49,11.49,0,0,1-1.95-.67,8.52,8.52,0,0,0-4.75-1,56.83,56.83,0,0,1-6.9.12,14.27,14.27,0,0,0-8.61,2c-.68.4-1.37.78-2,1.16a2.53,2.53,0,0,0,1.4.34c3.45-.1,6.91-.14,10.35-.35s6.9.92,10.42.41C238.89,89.64,239.11,89.69,239.31,87.89Zm4.45-7.58a7.36,7.36,0,0,0-6.41-.06,11.19,11.19,0,0,1-6.24,1,3.65,3.65,0,0,0-2,.21c-1.93,1.06-3.77,2.27-5.93,3.59a12,12,0,0,0,3,.82,32.68,32.68,0,0,0,10.32-1.56,23.7,23.7,0,0,1,4.14-1C242.57,83,243.36,82.36,243.76,80.31Zm-89.49-2.08c-2.22-1.18-4.21-2.35-6.29-3.32a9,9,0,0,0-5.55-.68c-2.34.44-4.69.89-7,1.41-.55.13-1.44.55-1.45.84a2.39,2.39,0,0,0,.79,1.81,4.71,4.71,0,0,0,2.36.6c.76,0,1.54-.38,2.3-.36q5.36.12,10.71.4C151.48,79,152.82,79.24,154.27,78.23Zm87.68.35L242,79a4.78,4.78,0,0,0,1.25.28c1.75-.08,3.52-.12,5.26-.37,3.89-.56,7.77-1.51,11.65.15a1.35,1.35,0,0,0,1.84-.77c.24-.48.48-1,.73-1.43.46-.82.08-1.19-.7-1.4a24.24,24.24,0,0,0-18.28,1.94A16.37,16.37,0,0,0,242,78.58ZM172.56,85.4l.12-.47c-1.78-1.16-3.53-2.37-5.35-3.45a2.5,2.5,0,0,0-1.77-.17,7.4,7.4,0,0,1-4.93-.43c-1.06-.45-2.18-.79-3.18-1.33-2-1.07-3.58,0-5.28.73.68,1.73,1.7,2.75,3.58,2.59a1.78,1.78,0,0,1,.84.17c4.55,2.11,9.45,2.33,14.34,2.56A10.08,10.08,0,0,0,172.56,85.4Zm-18.29,14.68c-2.63.16-5.74,2.6-6.28,4.81a2.73,2.73,0,0,0,.8,2.92c1.65,1.49,3.29,3,4.88,4.55a15.51,15.51,0,0,0,6.61,3.68c4.56,1.4,9.05,1.59,13.45-.61a6,6,0,0,1,1.92-.37,3.12,3.12,0,0,0,2.57-2.89c-1.49.75-2.92,1.45-4.34,2.18a6.07,6.07,0,0,1-5,.7,1.73,1.73,0,0,0-1.08,0c-3.11,1.11-5.89-.37-8.52-1.46-2-.83-4.24-1.4-5.83-3.41a21.27,21.27,0,0,1-3-3.78c-.93-1.94-.69-3,1.06-4.35C152.38,101.42,153.25,100.82,154.27,100.08Zm52.2,18.82c-.91-.67-15.36-.91-17.71-.46.39,1.33.18,2.87,2.12,3.34a33.58,33.58,0,0,0,13.36.13,1.84,1.84,0,0,0,1.8-1.64c-1,.14-1.81,0-2-1.17Zm49.68-34.42a6.76,6.76,0,0,0-4.95-1.15c-2.45.19-4.9.42-7.36.59a28.9,28.9,0,0,0-3,.08c-1.57.27-3.1.72-4.65,1.1v.64a14.62,14.62,0,0,0,3.27,1.14c2.32.25,4.68.17,7,.36,1.45.12,2.88.51,4.33.73.51.08,1.21.25,1.51,0C253.64,86.93,254.81,85.74,256.15,84.48Zm-70.08,15.63-.29-.31c-1.74,1-3.42,2.11-5.24,2.92a22.09,22.09,0,0,0-10.61,10s-.06.07-.07.1c-.13.37-.46.95-.34,1.06a1.76,1.76,0,0,0,1.2.46,5.73,5.73,0,0,0,4.81-2.51,33.08,33.08,0,0,1,3.14-3.94c2.09-2.26,4.28-4.43,6.42-6.65C185.44,100.92,185.74,100.5,186.07,100.11Zm19.25,15.11c-.83-1.41-2.22-1.08-3.46-1.19a56.63,56.63,0,0,0-12.55,0c-1.15.15-1.25.83-1.24,1.73s.35,1.53,1.34,1.53c5,0,10,0,15,0ZM160.59,85.67l-.08-.52A20,20,0,0,0,153,83.59c-3.13.08-6.25.24-9.38.44a12.77,12.77,0,0,0-2.38.6c.47.68.9,1.41,1.43,2a3.87,3.87,0,0,0,4.07,1.25c3.14-.57,6.35-.77,9.52-1.23C157.7,86.48,159.13,86,160.59,85.67ZM267,68.12a3.2,3.2,0,0,1,.07,4.34,80.5,80.5,0,0,1-6,8.26c-3.16,3.5-6.68,6.68-10.07,10a12.1,12.1,0,0,1-1.82,1.23c-1.31.84-2.61,1.7-3.94,2.49a18,18,0,0,1-2.37,1.17c-.91.36-1.86.62-2.78.92l.12.35a14.61,14.61,0,0,0,7.44-2.48c3.7-2.56,7.75-4.66,10.64-8.3,2.24-2.83,4.89-5.35,7-8.27a38.2,38.2,0,0,0,3.47-7C269.31,69.44,268.65,68.51,267,68.12Zm-16.27,5.7a3.09,3.09,0,0,0-3.5-.92c-4.46,1.26-9,2.43-13.4,3.75a4.92,4.92,0,0,0-2.21,1.6,6.23,6.23,0,0,0-.66,2.15,6.2,6.2,0,0,0,2.34.22c3-1,5.93-1.94,8.78-3.17,2.59-1.12,4.95-2.78,7.82-3.23A4.1,4.1,0,0,0,250.7,73.82Zm-45.85,37a19.39,19.39,0,0,0-8.49-1.57l-7.28.36c-.28,0-.77.07-.79.18a7.29,7.29,0,0,0-.22,2.61c.06.31,1.13.59,1.74.58,2.25,0,4.5-.35,6.75-.3,2.8.06,5.59.38,8.38.57a11.68,11.68,0,0,0,1.55-.12l.07-.4-2.31-1.46Zm-58-37.42c.56.28,1,.51,1.42.72,3.75,1.73,7.52,3.4,11.23,5.22a11.45,11.45,0,0,0,5,1.09c1,0,1.21-.46,1-1.32a3.85,3.85,0,0,0-2.83-2.82c-1-.25-2-.35-3-.64-3.19-.94-6.36-1.94-9.54-2.92A2.77,2.77,0,0,0,146.8,73.4Zm42.92,49.05c0,3.1.41,3.59,3.2,4.29a24.84,24.84,0,0,0,8.33.56c2-.18,2-.17,2.46-2.11.33-1.34.12-1.52-1.28-1.59-3.28-.17-6.56-.39-9.83-.64C191.64,122.88,190.69,122.63,189.72,122.45Zm23-21.23-.25.23c.23.3.44.62.69.9q4.44,5,8.91,9.93a8.57,8.57,0,0,0,1.87,1.58,3.24,3.24,0,0,0,3.38.22C224.36,107.49,218.7,104.16,212.7,101.22Zm31-17.92a36.7,36.7,0,0,0,4.65-.39,14,14,0,0,1,8.24.35c1.18.45,3.38-1.71,3.05-2.92a1,1,0,0,0-.63-.63,16.08,16.08,0,0,0-3.85-.61c-2.55.12-5.07.58-7.61.76C245.41,80,244.44,81.28,243.67,83.3Zm-91.59-.92c-.47-1.84-1.26-2.55-2.93-2.78a33.26,33.26,0,0,0-11.17.34c-1.15.23-1.42,1-.6,1.8a4.75,4.75,0,0,0,3.75,1.55c2.63-.11,5.26-.14,7.88-.3A23.81,23.81,0,0,0,152.08,82.38Zm13-5.24c.88,1.22,1.41,2.51,2.38,3.21,2.75,2,5.64,3.86,8.56,5.61a37.2,37.2,0,0,0,4.73,2.11,12.06,12.06,0,0,0,1.49.39l.25-.29a5.4,5.4,0,0,0-.93-1.41c-1.09-.88-2.25-1.67-3.41-2.45q-4.92-3.3-9.88-6.56A3.14,3.14,0,0,0,165.09,77.14ZM245.9,93.66l.1-.54-.54-.31a16.41,16.41,0,0,0-10.23-1.9c-.25,0-.61.61-.62.93,0,1.19.1,2.38.17,3.57s.48,1.61,1.65,1.26C239.6,95.73,242.74,94.67,245.9,93.66ZM146.82,72.17l-.1-.47a10,10,0,0,0-7.33-1.51c-2.3.41-4.58,1-6.85,1.55-.58.14-1.53.7-1.5,1a3,3,0,0,0,1.05,1.78,2.63,2.63,0,0,0,1.8.33c3.57-.54,7.13-1.12,10.68-1.77A11.92,11.92,0,0,0,146.82,72.17Zm106.57-2.38a5.83,5.83,0,0,0-1-.44,30.2,30.2,0,0,0-3.55-.32,10.33,10.33,0,0,0-3.95.35c-3.47,1.48-6.82,3.23-10.19,4.93a9.31,9.31,0,0,0-1.51,1.24c.41.13.61.28.76.24C240.32,73.83,246.73,71.85,253.39,69.79Zm-3.81,1.94a7.08,7.08,0,0,0,4.92,2,28.08,28.08,0,0,1,8.66,1,1.55,1.55,0,0,0,2.09-1.18c.22-1.08-.45-1.57-1.32-1.73-2.49-.49-5-1-7.52-1.29A11.36,11.36,0,0,0,249.58,71.73ZM162,91.26c-2.85-1.44-9.08-.31-10.68,2.18,2.93,1,5.81,2.09,8.71,3.09a1.65,1.65,0,0,0,1.2,0,1.42,1.42,0,0,0,.74-.95C162.07,94.19,162,92.83,162,91.26ZM143.85,69.1c3.05,2,17.79,6.42,19.45,5.89a21.38,21.38,0,0,0-2.4-1.68c-2.76-1.39-5.58-2.63-8.32-4a6,6,0,0,0-4.24-.65A41.93,41.93,0,0,1,143.85,69.1Zm70.3,19.33a5.9,5.9,0,0,0,1.1-.25c2.67-1.35,5.36-2.65,8-4.1,1.58-.87,3-2,4.54-3a8.85,8.85,0,0,0,3.38-4.3C227.59,77.69,215.23,86.05,214.15,88.43ZM232.35,97c-6.92-2-14.19-2-21.46-3.53C217.72,97.66,224.75,99,232.35,97Zm-2.93,4.82,0,.37a10.66,10.66,0,0,0,1.4.59c4.28,1.18,8.58,2.3,12.86,3.51a2.46,2.46,0,0,0,2.39-.59c.86-.71.86-1.44-.12-2a8.69,8.69,0,0,0-2.78-.93c-3.72-.45-7.45-.81-11.19-1.15A16.41,16.41,0,0,0,229.42,101.82Zm-61.93.24-.1-.41a2.08,2.08,0,0,0-.66-.17c-1.63.15-3.24.41-4.87.48-2.71.13-5.43.13-8.14.22-1.94.06-2.89,1.23-2.63,3,.15,1,.54,1.24,1.57,1,4.29-1.13,8.6-2.14,12.9-3.24A11.5,11.5,0,0,0,167.49,102.06Zm16.73-8.61c-6.69,1-13.2,1.31-19.65,3.52C168.69,98.9,181.52,96.63,184.22,93.45Zm20.66,15.74a4.87,4.87,0,0,0-4.51-3.23c-1.51-.12-3-.26-4.54-.3a4.2,4.2,0,0,0-1.49.38,15.27,15.27,0,0,1-1.94.8c-.88.18-1.8.11-2.7.24a3.76,3.76,0,0,0-1.06.53c.37.31.71.84,1.11.89a13.22,13.22,0,0,0,2.95,0c3.81-.35,7.62-.71,11.34.6A3.72,3.72,0,0,0,204.88,109.19Zm-13.76,18.13c-.1,1.79.62,3.13,2.37,3.53a43.94,43.94,0,0,0,6.07.74,1.5,1.5,0,0,0,1.11-.43c.85-.91,1.61-1.9,2.22-2.63a58,58,0,0,1-5.89,0A59.93,59.93,0,0,1,191.12,127.32Zm-35-38A1.87,1.87,0,0,0,154,87.48c-2.47.4-4.92.9-7.36,1.4a1,1,0,0,0-.67.59,1,1,0,0,0,.44.76c1,.67,2.08,1.31,3.15,1.91a1.17,1.17,0,0,0,.9,0c1.66-.68,3.32-1.39,5-2.14C155.74,89.89,156,89.51,156.09,89.36Zm84,.81a48.7,48.7,0,0,1,5.22,1.22,3.34,3.34,0,0,0,3.56-.4c.41-.33.9-.57,1.31-.9a5.15,5.15,0,0,0,.68-.79c-.29-.19-.56-.51-.87-.55-2.59-.32-5.19-.65-7.79-.83C240.43,87.8,240,88.39,240.08,90.17Zm-73.51,14.09-.15-.61a12.61,12.61,0,0,0-1.85.19c-3.1.8-6.19,1.64-9.29,2.47a17.26,17.26,0,0,0-2.12.64,4.41,4.41,0,0,0-1,.83,4.38,4.38,0,0,0,.86.81,2.92,2.92,0,0,0,2.93.22c.77-.38,1.63-.57,2.42-.92C161.13,106.7,163.85,105.48,166.57,104.26Zm62.89-.36c.23.38.25.48.31.5,3.84,1.58,7.67,3.19,11.53,4.69a2.33,2.33,0,0,0,2.86-1.61,8.08,8.08,0,0,0-1.2-.55c-3.84-1.06-7.69-2.12-11.55-3.12A7.46,7.46,0,0,0,229.46,103.9ZM210,103.7l-.23,0a34.83,34.83,0,0,0,1.18,4.17,46.39,46.39,0,0,0,2.24,4.16l-.44.24-1.8-2.88-.39.19,1.21,3.27-1.06-.81c.09.9,0,1.69,1.22,2,.71.19,1,1.81,1.77,2,1.72.57,3.4-.09,4.94-1-1.48-2.15-1.48-2.16-3.07-1.89.53.78,2,1.3.54,2.74Zm-40.69.91-.25-.46a11.46,11.46,0,0,0-1.88.45c-3.71,1.66-7.39,3.36-11.09,5.05-.11,0-.23.08-.34.14-.76.43-.74.92-.06,1.4a3.08,3.08,0,0,0,3.43,0c3.05-1.87,6.11-3.71,9.15-5.59A7.07,7.07,0,0,0,169.35,104.61Zm-2.12-1.54a10.58,10.58,0,0,0,7.18-.47c3.63-1.44,7.23-3,10.84-4.47.32-.13.62-.3.94-.45a1.71,1.71,0,0,0-1,0c-5.33,1.4-10.65,2.8-16,4.26A9.33,9.33,0,0,0,167.23,103.07ZM211,97.94a2.83,2.83,0,0,0,.28.23c4.74,1.84,9.46,3.72,14.23,5.47a4.06,4.06,0,0,0,3.9-.77C223.48,100.15,217.06,99.77,211,97.94Zm16.7,8a1.46,1.46,0,0,0,.31,2.18c1.79,1.58,3.59,3.14,5.35,4.76a2.46,2.46,0,0,0,2.62.51c1.19-.38,1.42-1.07.4-1.78C233.56,109.62,230.65,107.81,227.7,105.9Zm-64.18,8.33c2,.72,4.6,0,5.58-1.49,1.3-2,2.4-4.16,3.59-6.25a4.43,4.43,0,0,0-2.56.84c-1.92,1.78-3.71,3.72-5.53,5.61C164.24,113.31,163.94,113.73,163.52,114.23Zm77.92-3.92a6,6,0,0,0-.76-.49c-3.93-1.68-7.86-3.36-11.81-5a11.79,11.79,0,0,0-1.8-.42l-.15.35c.59.41,1.16.84,1.78,1.21,3,1.81,6.09,3.59,9.11,5.4C239.21,112.19,240.42,111.92,241.44,110.31Zm-72.29-3.73c-3.84,1.18-6.94,3.45-10,6.06,1.08.37,2.33.93,3.16.55C165.33,111.81,167.36,109.29,169.15,106.58Zm54.51,0-.19.28c1.42,1.94,2.83,3.88,4.25,5.81a6.46,6.46,0,0,0,.78.95,3.62,3.62,0,0,0,4.6.18c-2.43-2.13-4.79-4.27-7.24-6.3A8.5,8.5,0,0,0,223.66,106.56ZM186.5,104l-.16-.1-8.4,11.15c1.06,1.52,2.45,2.07,3.85,1.58a3.82,3.82,0,0,0,2.34-4l-1.84,2.82-.25-.13.78-2.25a6,6,0,0,0-1.44,1.49c-.42.58-.81,1.18-1.28,1.86a4.19,4.19,0,0,1,2.09-5c.55-.24,1.34-1.11,1.24-1.43-.47-1.41.78-1.86,1.11-2.79l.42.11-.5,3.06c.63-.91,1.33-1.53,1.18-2.84C185.51,106.43,186.18,105.21,186.5,104Zm62.25-36.55c1.12,1.25,2.39.9,3.65.84,2.08-.11,4.17-.23,6.25-.16s3.83.24,5.92-.73a7.63,7.63,0,0,0-2.14-1,22.56,22.56,0,0,0-4.27,0C255,66.72,251.88,67.12,248.75,67.48ZM212,99.53c.08.23.09.34.15.37,3.32,1.94,6.61,4,10,5.78a5.32,5.32,0,0,0,4.55.1,13.9,13.9,0,0,0-2-1.45c-1.23-.57-2.51-1-3.78-1.49C218,101.74,215.09,100.66,212,99.53ZM253.87,68.7l0,.36a2.42,2.42,0,0,0,.55.24c3.71.68,7.42,1.36,11.14,2,.89.14,1.28-.38,1.18-1.27a1.71,1.71,0,0,0-2.19-1.53,32.1,32.1,0,0,1-4.27.38c-1.8,0-3.6-.22-5.41-.31A5.41,5.41,0,0,0,253.87,68.7Zm-99.35,32.55a5.35,5.35,0,0,0,1.22.22c2.82-.25,5.64-.5,8.44-.86.5-.07.92-.7,1.46-1.14C162.87,97.77,156.57,98.86,154.52,101.25Zm29.68-4.41-.1-.34a12.63,12.63,0,0,0-1.76.2c-2.35.6-4.64,1.44-7,1.83a74.78,74.78,0,0,1-7.5.55c-.94.06-1.51.36-1.19,1.63a8.44,8.44,0,0,0,2.8.29c4.59-1.11,9.15-2.37,13.71-3.6A5.14,5.14,0,0,0,184.2,96.84ZM231,99.09a2,2,0,0,0,2,1.88c1.67.24,3.34.52,5,.74s3.42.37,5.14.56l.06-.43A24.13,24.13,0,0,0,231,99.09ZM133.36,66.9a65.75,65.75,0,0,0,15.06.7C143.55,65.86,137.14,65.14,133.36,66.9ZM170,105.67l.25.35c5.47-.26,9.29-4.18,13.92-6.29-.15-.17-.24-.22-.31-.19-4.27,1.7-8.55,3.39-12.8,5.13C170.59,104.84,170.3,105.33,170,105.67ZM141.84,68.8c-3.26-.25-6.24-.47-9.22-.72a2.15,2.15,0,0,0-2.2,3Zm51.91,63.35-.16.27c1,1.12,1.93,2.3,3,3.36a1,1,0,0,0,1.78-.36c.41-1.23,1-1.89,2.37-1.18l.52-1.7ZM211.9,96.7l-.13.42a10.41,10.41,0,0,0,1.07.37c5.15,1.24,10.3,2.5,15.47,3.68a8.63,8.63,0,0,0,2.41-.18c-.53-1.2-.89-2-2.16-1.85a25.24,25.24,0,0,1-12.81-1.48A35.5,35.5,0,0,0,211.9,96.7Zm-13.41-8.82c-1-1.26-.23-1.86.69-2.5a26.09,26.09,0,0,0,2.19-1.89c-1.42-.13-2.51-.27-3.61-.31s-2.21,0-3.52.06c.89,1.84,4,1.94,2.49,4.64Zm-13.8-7-.18,0a8.16,8.16,0,0,0,.36,1.66,1.44,1.44,0,0,0,1.93.84,1.54,1.54,0,0,0,.51-1.38,33.76,33.76,0,0,0-1.53-4.37c-.12-.29-.76-.37-1.15-.55a3.51,3.51,0,0,0-.41,1.26A22.13,22.13,0,0,0,184.69,80.86Zm27.65-2.61-.61-.86c-.37.28-.92.48-1.07.85a24.67,24.67,0,0,0-1.2,3.74,5.5,5.5,0,0,0,.23,1.76c.58-.37,1.47-.62,1.66-1.14A33.25,33.25,0,0,0,212.34,78.25ZM191.13,88.56l0,.46c3.57.8,13.36,1.1,14.3.34Zm22.21,1-.24-.34L207.6,92C211.46,93.25,212.37,92.58,213.34,89.51Zm-9.67-5c-.07-.14-.15-.59-.41-.73s-.66.12-.9.33A19.33,19.33,0,0,0,200.58,86c-.19.24-.38.76-.26.91a1.31,1.31,0,0,0,1,.33A3,3,0,0,0,203.67,84.51Zm-8.23,1.43-3-3.33c-.75.21-1.07.71-.4,1.59.5.65,1,1.31,1.54,1.91C194.45,87,194.73,87,195.44,85.94Zm19.49,19.13c.82,2.5,4.72,7,5.94,7Zm-7.87-1.89c-1.81-1.11-3.67-.61-5.72,1.48C203.48,105,205.12,103.69,207.06,103.18Zm-8.85-22.29,1.24,1.44.32-.2V80.49c-1.65-.3-1.64-.29-3,.89a3.86,3.86,0,0,1-1,.44l-1,.42C196.32,82.55,197.6,82.33,198.21,80.89Zm9.6,23.42,1.53,5.19C210.44,107.39,209.54,104.5,207.81,104.31Zm-5.5-16.47a1.92,1.92,0,0,0,2.28.79c.77-.21,1.32-.77.88-1.5-.21-.34-1.11-.48-1.62-.36A5.25,5.25,0,0,0,202.31,87.84ZM182.41,85l.22-.28a15.78,15.78,0,0,0-6.18-4.27l-.17.25Zm26,24.41v7C209.5,111,209.5,110.82,208.37,109.41ZM178.86,111l.28.23c1.81-2.13,4-3.94,5.24-6.53l-.31-.24Zm12.23-26.38c-.58,2.68.16,3.63,2.59,3.39Zm8.22,18.06c-.19-1.86-.8-2.32-2.61-2.11-.23,0-.42.26-.63.39.14.17.25.42.43.5C197.38,101.83,198.28,102.2,199.31,102.64Zm19.2-21.72.19.35,7.82-4.2-.24-.43Zm-37.12,25.7-.33-.27-4.69,5.39.48.4Zm10.1-.88-2.41-.26c1.07,1.13,2.65,1,4.43-.24l-2.31-1Zm14.83-6.66a11.92,11.92,0,0,0-.4,2.38c0,.19.82.35,1.5.63C207.09,100.93,207.88,99.83,206.32,99.08Zm-5.56-18.92L203,82.54C203.08,80.11,202.41,79.41,200.76,80.16ZM193.33,104c-1.26-1.6-2.6-2-4.29-1.41Zm6.72-24.62c-1.38-1.54-2.28-1.49-3,0Zm6.34,27.15-2-.7.24-.6-.21-.14-1,.88C204.31,107.1,205.33,106.94,206.39,106.55Zm-3.64-4.32.27.23a4.06,4.06,0,0,0,2.1-2.82l-.41-.28ZM185.61,85.6c.77,1.87,2.29,3.21,3,2.88Zm8-3.41a2.43,2.43,0,0,0,1.9-2.4,1.56,1.56,0,0,0-1,.52A19.21,19.21,0,0,0,193.59,82.19Zm1,22.16,0,.14,4.49.29,0-.43Zm23.76,7.12-2.43-3-.27.23C216.61,109.55,216.78,111.1,218.35,111.47ZM214.42,84l.39.44,1.9-1.73-.34-.38Zm-7.29,2.52c1.23,1.09,1.55,1,2-.58Zm8.89-14-.27-.29L213,74.35l.24.3Z" transform="translate(-126.41 -61.01)"/></svg>