<svg id="Calque_1" data-name="Calque 1" xmlns="http://www.w3.org/2000/svg" viewBox="0 0 119.29 63.62"><path d="M-163.77-198.88a6.36,6.36,0,0,0-.76-.31c-2.91-.81-5.85-1.42-8.87-.74s-6.17,1.11-9,2.25c-5.32,2.14-10.47,4.68-15.65,7.11-4,1.86-7.88,3.79-11,7-.05.06-.15.06-.41.13.42-1,.83-1.82,1.13-2.74a4.36,4.36,0,0,0,0-1.25,1.06,1.06,0,0,1,.21-.84l.41-.79c-1.18-.91-1.28-1.48-.34-2.28a15,15,0,0,0,3.58-3.57,7.65,7.65,0,0,0,1.23-2.84c.13-1,.51-1.92.67-2.9a1.73,1.73,0,0,0-.31-1.21,1.17,1.17,0,0,0-1.07-.29,5.85,5.85,0,0,0-1.32,1c.36.5.79.81.79,1.12,0,1.8-.23,3.57-1.63,4.89a17.3,17.3,0,0,1-2.12,1.79,7.72,7.72,0,0,0-3.07,4.33c-.41,1.37-.81,2.74-1.25,4.11-.22.72-.65,1.15-1.5.88,1-2.33.69-2.92-1.72-3.79a4,4,0,0,1-.7-.46c.94-2.12,1.86-2,3.29-.6a1,1,0,0,0,0-.75c-.94-1.45-2.75-1.38-3.8.16-.47.71-1,1.33-1.78.62a2.3,2.3,0,0,0-3.36-.19l-.37.16c-.54.33-.91.21-1.26-.34a4.94,4.94,0,0,0-1.1-1.27,2,2,0,0,0-2.4,0,5.75,5.75,0,0,0-1.12,1.24l.22.19c2.11-1.63,2.89-1.49,3.65.56a10.3,10.3,0,0,0-2.62,1.2c-.94.8-.23,1.88.1,2.79-1.19.5-1.55.32-1.83-.8-.71-2.8-1.67-5.46-4-7.43a35,35,0,0,1-2.48-2.68,5,5,0,0,1-1.05-5.48,4.32,4.32,0,0,0,.24-1.6c0-.67-.41-1-1.12-.67a2.13,2.13,0,0,0-1.53,2.28,21.76,21.76,0,0,1,.83,3.48c0,.39.35.79.32,1.16a2.89,2.89,0,0,0,1.07,2.43c.95.93,1.93,1.85,2.85,2.81.58.57.86,1.17,0,1.78a1,1,0,0,0-.18.82,2.9,2.9,0,0,0,.5.8l-.7.49,2.18,3.59a16.44,16.44,0,0,1-2.18-1.49c-7.94-5.4-16.6-9.47-25.38-13.25a23.75,23.75,0,0,0-18.34-.62,3.62,3.62,0,0,0-2.38,2.93c-.08.36-.14.72-.21,1.08v.41a27.42,27.42,0,0,0,1.4,3,54.21,54.21,0,0,0,11.48,13.14c3.11,2.65,6.4,5.15,10.73,5.6,0,0,.06.09.14.23l-.93.56c-1.48.92-3,1.8-4.42,2.78l-.31.24a3.4,3.4,0,0,0-.32,4.79,35.16,35.16,0,0,0,4.87,4.5c3.69,2.61,7.83,4.08,12.43,3.42a28.7,28.7,0,0,0,5-1.51c.94-.32,1.79-.49,2.52.38a2.8,2.8,0,0,0,3.27.78c.73-.26,1.43-.59,2.2-.91a4.16,4.16,0,0,1,.25.7c.35,2.45.81,4.86.09,7.31a28.78,28.78,0,0,0-.78,4.12,1.12,1.12,0,0,0,.47,1,1.24,1.24,0,0,0,1.12-.17c.19-.19.1-.68.06-1.08s-.28-.81-.22-1.18c.32-1.86.38-3.86,1.19-5.48.6-1.21.25-2.1.11-3.12a19.16,19.16,0,0,0-.55-2.07,4.61,4.61,0,0,1,.64-4.05c.11,1.19.05,2.37.11,3.54a18.17,18.17,0,0,0,.36,2.31c.26,1.4.58,2.79.83,4.19a17.3,17.3,0,0,0,2.53,6.3c.54.85,1.29,1.59,1.78,2.48a5.6,5.6,0,0,0,3.1,2.68,1.84,1.84,0,0,0,1.4-.08,10.15,10.15,0,0,0,4.84-6c.78-2.54,1.39-5.13,2.08-7.7.36,1.06.43,2.09.71,3.07s.79,1.88,1.16,2.83c.29.74.57,1.46,0,2.22-.32.38-.19.8.42.8a4.36,4.36,0,0,0,1-.1c.54-.11.8-.4.46-1a8.08,8.08,0,0,1-.5-1.43,17.76,17.76,0,0,1-.49-10.79c.19.12.45.26.69.43a4.77,4.77,0,0,0,5.82.17,2.33,2.33,0,0,1,1.7-.14c1.53.45,3,1.33,4.52,1.55a18.74,18.74,0,0,0,14.12-4,30.94,30.94,0,0,0,4.43-3.89,4,4,0,0,0,.09-4.6,8.72,8.72,0,0,0-4.25-2.91c-1.11-.33-2.21-.72-3.32-1.07a25.51,25.51,0,0,1,2.72-.63c3.91-.9,7.09-3.25,10.05-5.72a71,71,0,0,0,7.21-7.4,25.2,25.2,0,0,0,4.65-7.43C-160.83-196.18-161.44-197.76-163.77-198.88Z" transform="translate(280.53 203.35)" style="fill:none;stroke:#000;stroke-miterlimit:10;stroke-width:0.25px"/></svg>