<svg xmlns="http://www.w3.org/2000/svg" viewBox="0 0 259.59 138.59"><defs><style>.cls-1{fill:#fff;}</style></defs><g id="Calque_2" data-name="Calque 2"><g id="Calque_1-2" data-name="Calque 1">
    <path class="cls-1" d="M122,38.19a5,5,0,0,0,2.43-1.53,4.54,4.54,0,0,0,1-2.83,2.77,2.77,0,0,0-1.78,1,29,29,0,0,0-1.66,3.41Z"/>
    <path class="cls-1" d="M119.71,78.29l-.34-.17A15.68,15.68,0,0,1,117.56,77c-2.15-1.52-3.23-2.29-3.39-3.09,0-.23-.08-.65-.37-.82s-.5,0-1.23,0-.57-.09-.77,0c-1,.3-1,2.46-1,3a1.43,1.43,0,0,0,.06.52,2,2,0,0,0,.28.58,10.41,10.41,0,0,1,.5,1.36c.23.77.35,1.35.84,1.54.21.08.35,0,.85,0H115c2.46,0,2.37,0,2.54,0a3.65,3.65,0,0,0,2.24-1.77"/>
    <path class="cls-1" d="M129.82,71.46a4.9,4.9,0,0,1,2.22,0,3.14,3.14,0,0,1,1.14.71c-.26.31-.47.75-.79.9-.84.39-1.7.76-2.59,1.14-.89-.38-1.75-.75-2.6-1.14-.32-.15-.52-.59-.78-.9.38-.25.74-.66,1.14-.71a8,8,0,0,1,2.24,0"/>
    <path class="cls-1" d="M119.79,45.67l-2.39-3.15c-1.07,4.87.27,6.6,4.69,6.16-.78-1-1.19-1.54-1.41-1.84l-.87-1.14Z"/>
    <path class="cls-1" d="M92.88,92.09c.31.09,1-.3,1.09-.36,2-1.9,4.14-4.3,6.52-6.88A32.56,32.56,0,0,0,106,77.22c.28-.3.88-.93.76-1.08s-1.13.35-1.46.52l-12,14.54s-.64.68-.51.86"/>
    <path class="cls-1" d="M122.62,42c-.82-.9-1.74-1.93-2.77-3.08-1.37.38-1.94,1.3-.72,2.89.91,1.17,1.78,2.38,2.79,3.46,1.56,1.69,2.06,1.59,3.37-.31-.78-.85-1.66-1.83-2.64-2.92Z"/>
    <path class="cls-1" d="M129.77,50.44l-6.16-.35-6.16-.35c0,.29,0,.57-.07.86a83.75,83.75,0,0,0,12.42,1.28V50.44"/>
    <path class="cls-1" d="M105.77,36.11a.23.23,0,0,1-.21,0,7.19,7.19,0,0,0,1,2.93,2.59,2.59,0,0,0,3.63,1.14,2.8,2.8,0,0,0,.67-2.58,61.21,61.21,0,0,0-3.58-7.6c-.28-.51-1.44-.53-2.19-.77a6.57,6.57,0,0,0-.5,2.34A41.05,41.05,0,0,0,105.88,36a.23.23,0,0,1-.08.13"/>
    <path class="cls-1" d="M7.32,17.94l10.14-2L28,13.9c-5.89-.46-11.31-.87-16.72-1.32-2.87-.24-4.89,2.3-4,5.36"/>
    <path class="cls-1" d="M79,80.82l.22.31.23.31C89.4,81,96.33,73.86,104.73,70c-.28-.31-.43-.39-.55-.34C96.43,72.76,88.67,75.83,81,79c-.77.31-1.29,1.19-1.93,1.81"/>
    <path class="cls-1" d="M39.92,11.71a46.93,46.93,0,0,0-14.39-3,39.71,39.71,0,0,0-12.92,1.74A119,119,0,0,0,40,11.71"/>
    <path class="cls-1" d="M73,71.82a19.35,19.35,0,0,1,2.51.47,4.76,4.76,0,0,0,2.53,0c8.33-2,16.6-4.3,24.87-6.53a10.07,10.07,0,0,0,1.94-1c0-.42,0-.65-.09-.67a.14.14,0,0,0-.11.06,22.89,22.89,0,0,0-3.2.37c-4.25,1.09-8.41,2.61-12.72,3.31-4.47.74-9.07.73-13.61,1-1.71.1-2.74.67-2.18,3"/>
    <path class="cls-1" d="M71.19,69.56c-1.65-.66-5.59-2-20.17,3.22a8.71,8.71,0,0,0,2.2.4c5.13-.46,10.24-.9,15.34-1.57,1.44-.19,2.61-2,2.61-2"/>
    <path class="cls-1" d="M106.27,83.83c-.11.63-.35,2.09-.45,2.72l-.46,2.84c1.13-1.66,2.41-2.78,2.12-5.16-.22-2,1-4.27,1.58-6.41l-.3-.18a32.52,32.52,0,0,1-7.63,10.14c-1.85,1.62-5.48,4.35-7.33,9.32-.13.33-.22.6-.27.78A6.59,6.59,0,0,0,98.16,101a5.2,5.2,0,0,0,2.35-.28c2.75-1,4.4-3.73,4.25-7.33l-3.34,5.12c-.29.37-.54.61-.62.56s0-.38.16-.8c.48-1.37,1-2.73,1.43-4.09a3.83,3.83,0,0,1-1.17-2.92c.19-1.24,1.31-1.78,2.58-3.19a12.36,12.36,0,0,0,2.45-4.22"/>
    <path class="cls-1" d="M59.49,93.46a19.74,19.74,0,0,0,5.71,1c2.34,0,8.15-4.07,12.37-12-7,2.14-12.6,6.26-18.11,11"/>
    <path class="cls-1" d="M68.36,96.74c3.45,1.45,7.35-1.89,8.17-2.59,4.16-3.56,5.07-9.35,5.27-10.86A5.91,5.91,0,0,0,78,84.76c-2.82,3.09-5.44,6.45-8.11,9.73-.53.64-1.58,2.25-1.58,2.25"/>
    <path class="cls-1" d="M108.48,66.31a2.44,2.44,0,0,0-1.84-.09C97,68.77,87.31,71.31,77.67,74c-1.13.31-2.09,1.23-3.59,2.14a19.16,19.16,0,0,0,13-.86c6.59-2.62,13.11-5.39,19.67-8.1l1.69-.81"/>
    <path class="cls-1" d="M52.29,89.49c0,.64.69,1.17.92,1.33a5.66,5.66,0,0,0,6.24.05C65,87.47,70.53,84.13,76,80.72a12.61,12.61,0,0,0,1.89-1.84l-.46-.83a19.17,19.17,0,0,0-3.4.82C67.34,81.87,60.65,85,54,88a5.73,5.73,0,0,0-.62.25c-.28.16-1,.52-1,1.18"/>
    <path class="cls-1" d="M46.79,84.63a4.82,4.82,0,0,0,1.55,1.48,5.37,5.37,0,0,0,5.33.39c1.4-.68,3-1,4.39-1.67,5-2.16,9.89-4.38,14.83-6.58-.09-.37-.19-.74-.27-1.12a21.86,21.86,0,0,0-3.36.36C63.63,78.94,58,80.46,52.4,82c-1.3.35-2.54.91-3.85,1.17,0,0-1.59.32-1.75,1a1.15,1.15,0,0,0,0,.49"/>
    <path class="cls-1" d="M36.7,50.34a1.63,1.63,0,0,0-1.18,1,1.48,1.48,0,0,0,.8,1.39C38.18,54,40.09,55.16,42,56.24a2.68,2.68,0,0,0,1.62.08"/>
    <path class="cls-1" d="M43.68,56.31c2.08-.86,6.43-3.93,9-3.87.2,0,.85.05,1.13-.34a1.14,1.14,0,0,0,.07-.9c-1.37-2-2.79-3.57-3.78-3.41-4.47.73-8.92,1.63-13.37,2.54"/>
    <path class="cls-1" d="M69.26,65c7.47,3.5,30.77-.63,17.66-4a93.12,93.12,0,0,0-17.6,4"/>
    <path class="cls-1" d="M74.81,74c0-.21-.4-.47-.43-.5a4,4,0,0,0-1.2-.32c-3,.27-5.89.74-8.84.87-4.92.23-9.86.24-14.77.39-3.52.12-5.25,2.25-4.77,5.51.27,1.88,1,2.24,2.84,1.76,7.78-2,15.62-3.88,23.41-5.88a20.43,20.43,0,0,0,3.51-1.6.33.33,0,0,0,.24-.15"/>
    <path class="cls-1" d="M31.66,14.43A133.7,133.7,0,0,0,50.24,21.5C58,23.84,65.45,25.61,67,25.13a36.77,36.77,0,0,0-4.36-3.06c-5-2.51-10.13-4.77-15.1-7.35L47,14.49a13.41,13.41,0,0,0-3.94-1.15,10.1,10.1,0,0,0-3.3.21c-.5.11-3,.37-8.13.88"/>
    <path class="cls-1" d="M45.26,58.62c4.09,1.42,6.13,2.13,7.91,2.83.76.3,4.9,1.73,7.89,2.77a3.05,3.05,0,0,0,2.17-.08,2.61,2.61,0,0,0,1.35-1.72c.14-2.46.06-4.93.06-7.76-5.19-2.62-19.4,4-19.4,4"/>
    <path class="cls-1" d="M8.41,21a4.5,4.5,0,0,0,1.91,3.23,4.72,4.72,0,0,0,3.27.6Q23.3,23.35,33,21.61A22.76,22.76,0,0,0,37.05,20c-.07-.29-.12-.58-.18-.87a18.21,18.21,0,0,0-13.31-2.73c-4.18.74-8.33,1.74-12.43,2.8-.88.23-2.59.72-2.72,1.68"/>
    <path class="cls-1" d="M101.81,49a7.72,7.72,0,0,0-1.71-2.55c-2-1.6-4.07-3-6.18-4.45q-9-6-17.94-11.9c-1.51-1-3.06-2.11-5.78-1.12,1.59,2.22,2.56,4.56,4.32,5.84,5,3.64,10.22,7,15.54,10.18a66.93,66.93,0,0,0,8.59,3.82,19.81,19.81,0,0,0,2.7.71,5.56,5.56,0,0,0,.45-.47"/>
    <path class="cls-1" d="M46.6,38.53c-.17-.89-.06-4.29-5.33-5.05A60.44,60.44,0,0,0,21,34.11c-2.09.41-2.58,1.74-1.09,3.27a8.61,8.61,0,0,0,6.79,2.81c4.77-.21,9.55-.26,14.31-.55.44,0,2.69-.5,5.55-1.1"/>
    <path class="cls-1" d="M37,22.24s2,1,2.6,1.3C46.39,26.69,53.23,29.73,60,33A21.06,21.06,0,0,0,69,35c1.86,0,2.19-.85,1.72-2.41a7,7,0,0,0-5.13-5.12c-1.8-.46-3.68-.63-5.46-1.15C54.38,24.62,48.63,22.8,42.86,21a6.24,6.24,0,0,0-3.61-.25A5.21,5.21,0,0,0,37,22.2"/>
    <path class="cls-1" d="M26.85,42.62a18.56,18.56,0,0,0,2.59,3.7c1.95,2.31,4.27,2.83,7.38,2.27,5.71-1,11.54-1.39,17.29-2.22,2.67-.39,5.28-1.23,7.92-1.86-.06-.32-.1-.64-.14-1C57.47,41.91,53,40.6,48.2,40.73c-5.68.15-11.36.43-17,.8a16.88,16.88,0,0,0-4.29,1.08"/>
    <path class="cls-1" d="M107.7,70.18l-9.47,5.28c-6.6,3.7-7.09,4-8.12,4.84-3.73,3.18-5.34,6.43-8.31,9.8,0,0-1.16,1.32-2.82,3.59a.61.61,0,0,0-.12.19c-.23.66-.83,1.71-.62,1.92a3.23,3.23,0,0,0,2.17.83c3.58-.17,6.6-1.39,8.74-4.56a60.19,60.19,0,0,1,5.69-7.14c3.8-4.11,7.78-8.05,11.65-12.08.65-.66,1.19-1.43,1.78-2.14.1-.07.6-.44.53-.61s-1,0-1.06.05"/>
    <path class="cls-1" d="M94,92.64c-7.8,3.91-7.49,3.76-7.8,3.92-2.87,1.48-5.79,2.38-9,1.27a3.2,3.2,0,0,0-2,0c-5.64,2-10.71-.66-15.47-2.64C56.06,93.7,52,92.65,49.11,89c-1.79-2.25-4.1-4.14-5.42-6.86-1.71-3.52-1.26-5.48,1.92-7.89,1.52-1.16,3.09-2.26,5-3.61-4.77.3-10.42,4.73-11.41,8.74a5,5,0,0,0,1.47,5.3c3,2.71,6,5.43,8.83,8.26a28.28,28.28,0,0,0,12,6.67c8.28,2.55,16.43,2.9,24.43-1.09a10.92,10.92,0,0,1,3.47-.68A5.69,5.69,0,0,0,94,92.6"/>
    <path class="cls-1" d="M83.76,44h0s.09-.36.1-.42.07-.24.11-.44c-3.23-2.1-6.4-4.3-9.71-6.26a4.62,4.62,0,0,0-3.2-.31,13.47,13.47,0,0,1-9-.77c-1.92-.82-3.94-1.43-5.77-2.41-3.63-1.95-6.49,0-9.57,1.31,1.21,3.15,3.08,5,6.47,4.71a3.17,3.17,0,0,1,1.54.3C63,43.56,71.92,44,80.8,44.37A12.57,12.57,0,0,0,83.73,44"/>
    <path class="cls-1" d="M39.16,25a16.33,16.33,0,0,0-10.09-1.25c-4.25.81-8.5,1.62-12.72,2.57-1,.23-2.62,1-2.63,1.53a4.34,4.34,0,0,0,1.43,3.28,8.59,8.59,0,0,0,4.3,1.09c1.38,0,2.78-.69,4.17-.66q9.72.22,19.43.72c2.46.13,4.89.57,7.51-1.27C46.53,28.85,42.93,26.74,39.16,25Z"/>
    <path class="cls-1" d="M57.59,51.93a54,54,0,0,0,8.69.75,14.63,14.63,0,0,0,2-.15,62,62,0,0,1,7-.91c7.4-.13,14.82-.06,22.22-.08.72,0,1.43-.06,2.15-.1,0-.17,0-.33,0-.5-3.46-1.53-6.89-3.18-10.43-4.52a17.38,17.38,0,0,0-5.63-1.05c-4.41-.12-8.89.51-13.23-.06-5-.66-9.22,1.06-13.44,3.06A3,3,0,0,0,56,50.67c0,.42,1,1.17,1.62,1.25"/>
    <path class="cls-1" d="M58.19,65.67a.93.93,0,0,0,.12-.52c-.06-.3-.63-.44-.7-.46-3.38-.85-6.54-2.4-9.81-3.59a45.45,45.45,0,0,1-6.06-2.94c-2.69-1.44-4-2.17-4.94-3.06a42.52,42.52,0,0,0-3.61-3.64,7.27,7.27,0,0,0-1.56-1.19c-3-1.66-5.66-3.62-7.18-6.84-.28-.6-1-1-1.58-1.47-1.48-1.31-3.46-2.35-4.34-4-2.09-3.85-6.48-6-7.6-10.46a1.12,1.12,0,0,0-.44-.51c-2.61-2.12-3.91-5-4.79-8.14-.94-3.47-.68-4.64,2.13-7,.61-.51,1.16-1.08,1.75-1.63C2.51,11.51.34,18.45,4.3,24.71a128.36,128.36,0,0,0,22.07,25.8c5.33,4.92,10.7,9.83,17.76,12.23,4.56,1.54,9.18,2.91,14,3"/>
    <path class="cls-1" d="M111.72,57.4c0,.08,0,.22,0,.28a2.63,2.63,0,0,0,0,.33l-2.36.74,2.2.91c-.39.43-.66.72-1.06,1.14,3.22,1.57,4.48,4.51,5.61,7.53a14.65,14.65,0,0,0,6,7.32c1.2.77,2.57,1.32,3.66-.45a3.28,3.28,0,0,0-.82-.5c-5.21-1.13-7.33-5.17-8.73-9.62a89.49,89.49,0,0,1-2-9.38c-2.72-1.57-4.77-2.84-6.91-4a28.28,28.28,0,0,0-3.64-1.35l-.7,1c1.06,1.57,2.14,3.13,3.2,4.7-.07.13-.16.26-.22.39a8.65,8.65,0,0,1-2-.88,10.22,10.22,0,0,0-6.9-2c-8.09.07-16.16,0-24.24,0-5.53,0-7.76,3-6.44,8.48.33,1.37.93,1.66,2.2,1.39,4.74-1,9.46-2.14,14.25-2.86,8.41-1.28,16.87-2.32,25.32-3.39a18.84,18.84,0,0,1,3.58.23Z"/>
    <path class="cls-1" d="M259.59,18.33v.9a63.73,63.73,0,0,1-3.07,6.59c-6.66,11.06-15.38,20.43-25.13,28.76-6.78,5.8-14,11.28-23.44,12.26-.07,0-.13.2-.31.49l2.05,1.23c3.23,2,6.51,4,9.67,6.1a7.42,7.42,0,0,1,1.36,11,75,75,0,0,1-10.65,9.85c-8.09,5.72-17.15,8.94-27.21,7.49-3.72-.53-7.29-2.09-10.9-3.31-2-.69-3.9-1.06-5.51.84-1.95,2.32-4.46,2.58-7.13,1.71-1.62-.51-3.14-1.26-4.84-1.95a7.8,7.8,0,0,0-.54,1.55c-.77,5.3-1.77,10.56-.2,15.94a60.8,60.8,0,0,1,1.71,9,2.53,2.53,0,0,1-1,2.14,2.69,2.69,0,0,1-2.44-.39c-.41-.39-.22-1.54-.13-2.35s.61-1.77.48-2.58c-.71-4-.85-8.41-2.61-12-1.31-2.65-.55-4.59-.24-6.83a46.09,46.09,0,0,1,1.21-4.54c.76-3.12.64-6.12-1.4-8.85-.21,2.59-.12,5.17-.25,7.74a36.67,36.67,0,0,1-.79,5.06c-.57,3.06-1.27,6.11-1.81,9.18a38,38,0,0,1-5.53,13.78c-1.21,1.88-2.84,3.49-3.92,5.43a12.25,12.25,0,0,1-6.78,5.87,1.64,1.64,0,0,1-.41.11,1.61,1.61,0,0,1-.42-.11,12.28,12.28,0,0,1-6.78-5.87c-1.08-1.94-2.71-3.55-3.91-5.43a37.77,37.77,0,0,1-5.53-13.78c-.55-3.07-1.24-6.12-1.82-9.18a35.19,35.19,0,0,1-.78-5.06c-.13-2.57,0-5.15-.25-7.74-2,2.73-2.17,5.73-1.41,8.85a43.47,43.47,0,0,1,1.21,4.54c.32,2.24,1.08,4.18-.24,6.83-1.76,3.55-1.9,7.92-2.61,12-.13.81.41,1.71.48,2.58s.28,2-.13,2.35a2.67,2.67,0,0,1-2.43.39,2.53,2.53,0,0,1-1-2.14,62.12,62.12,0,0,1,1.71-9c1.58-5.38.58-10.64-.19-15.94a8.6,8.6,0,0,0-.55-1.55c-1.69.69-3.22,1.44-4.84,1.95-2.67.87-5.18.61-7.13-1.71-1.6-1.9-3.47-1.53-5.51-.84-3.61,1.22-7.18,2.78-10.9,3.31-10,1.45-19.12-1.77-27.21-7.49a75,75,0,0,1-10.65-9.85,7.42,7.42,0,0,1,1.36-11c3.16-2.15,6.45-4.08,9.67-6.1L52,67.33c-.18-.29-.24-.48-.31-.49C42.2,65.86,35,60.38,28.2,54.58,18.45,46.25,9.73,36.88,3.07,25.82A63.73,63.73,0,0,1,0,19.23v-.9c.16-.79.3-1.59.47-2.38.69-3,2-5.21,5.2-6.41,13.62-5.15,27.18-4.22,40.17,1.37,19.21,8.26,38.15,17.18,55.53,29a35.67,35.67,0,0,0,4.77,3.27c-1.55-2.57-3.12-5.14-4.76-7.85a1,1,0,0,1,1.52-1.08,6.2,6.2,0,0,1-1.07-1.76,2.07,2.07,0,0,1,.37-1.78c1.9-1.35,1.27-2.65,0-3.91-2-2.09-4.13-4.1-6.22-6.15-1.47-1.46-2.57-3-2.35-5.31.07-.82-.63-1.68-.7-2.55-.18-2.65-1.18-5.07-1.81-7.6-.52-2.12,1.21-4.13,3.35-5,1.56-.61,2.41,0,2.45,1.49a9.86,9.86,0,0,1-.52,3.49c-1.55,4.48-1,8.51,2.3,12,1.81,1.89,3.4,4,5.38,5.71,5.06,4.32,7.17,10.14,8.71,16.28.62,2.45,1.39,2.85,4,1.76-.71-2-2.27-4.37-.22-6.13,1.53-1.31,3.8-1.77,5.75-2.61-1.68-4.5-3.39-4.79-8-1.23-.19.23-.41.36-.51.31s-.15-.37,0-.74a13.18,13.18,0,0,1,2.43-2.7c1.64-1,3.58-1.39,5.26-.08a11,11,0,0,1,2.5,2.82c.76,1.2,1.56,1.47,2.74.75.25-.15.59-.18.83-.35a8,8,0,0,1,2.22-1.18A8.11,8.11,0,0,1,132,31.05c.24.17.58.2.83.35,1.18.72,2,.45,2.74-.75a11,11,0,0,1,2.5-2.82c1.68-1.31,3.62-1,5.26.08a13.18,13.18,0,0,1,2.43,2.7c.17.37.14.68,0,.74s-.33-.08-.51-.31c-4.65-3.56-6.35-3.27-8,1.23,1.95.84,4.22,1.3,5.75,2.61,2.06,1.76.49,4.11-.21,6.13,2.58,1.09,3.35.69,4-1.76,1.55-6.14,3.66-12,8.71-16.28a76.56,76.56,0,0,0,5.38-5.71c3.35-3.53,3.85-7.56,2.31-12a9.65,9.65,0,0,1-.53-3.49c.05-1.5.89-2.1,2.45-1.49,2.14.84,3.87,2.85,3.36,5-.63,2.53-1.63,5-1.82,7.6-.06.87-.77,1.73-.69,2.55.21,2.28-.88,3.85-2.36,5.31-2.09,2-4.19,4.06-6.22,6.15-1.23,1.26-1.86,2.56,0,3.91a2.07,2.07,0,0,1,.37,1.78,6.2,6.2,0,0,1-1.07,1.76,1,1,0,0,1,1.52,1.08c-1.64,2.71-3.21,5.28-4.76,7.85a35,35,0,0,0,4.77-3.27c17.38-11.84,36.33-20.76,55.53-29,13-5.59,26.56-6.52,40.18-1.37,3.16,1.2,4.51,3.43,5.19,6.41C259.3,16.74,259.44,17.54,259.59,18.33Z"/>
    <path class="cls-1" d="M129.82,53.37l.9-.13a3.7,3.7,0,0,1,2.42.4c.8.63,1,1.83,1.14,3.26a23.13,23.13,0,0,0,1.62-2.41c1.09-1.67,5-2.59,5.88-1.32,1.31,1.93,2.43,3.9,1,6.41-1.13,2-1.81,4.26-2.88,6.31a28.36,28.36,0,0,1-2.58,3.48c-1.7-1.94,1-4.81-2.23-6.06a7.21,7.21,0,0,0-.71,2c-.06,2.3-1.35,3.64-3.7,3.47l-.92-.09c-.32,0-.62.07-.93.09-2.34.17-3.64-1.17-3.69-3.47a7.25,7.25,0,0,0-.72-2c-3.2,1.25-.52,4.12-2.23,6.06a29.31,29.31,0,0,1-2.57-3.48c-1.07-2-1.75-4.3-2.88-6.31-1.4-2.51-.27-4.48,1-6.41.86-1.27,4.78-.35,5.88,1.32a23.13,23.13,0,0,0,1.62,2.41c.23-2.34.6-4.07,3.55-3.66l.93.13"/>
    <path class="cls-1" d="M186.79,53.5c-8.09,0-16.16.1-24.24,0a10.25,10.25,0,0,0-6.91,2,8.78,8.78,0,0,1-1.94.88c-.07-.13-.15-.26-.23-.39l3.21-4.7c-.24-.32-.48-.63-.71-1a28.15,28.15,0,0,0-3.63,1.35c-2.14,1.11-4.2,2.38-6.91,4a92.13,92.13,0,0,1-2,9.38c-1.4,4.45-3.53,8.49-8.73,9.62a3.5,3.5,0,0,0-.83.5c1.09,1.77,2.47,1.22,3.67.45a14.7,14.7,0,0,0,6-7.32c1.13-3,2.39-6,5.6-7.53-.4-.42-.67-.71-1-1.14l2.2-.91L147.92,58c0-.14,0-.25,0-.33s0-.2,0-.28v0a18.94,18.94,0,0,1,3.58-.23c8.46,1.07,16.91,2.11,25.33,3.39,4.79.72,9.51,1.86,14.25,2.86,1.27.27,1.87,0,2.19-1.39C194.55,56.51,192.32,53.5,186.79,53.5Z"/>
    <path class="cls-1" d="M250,10.2c.58.55,1.14,1.12,1.75,1.63,2.81,2.4,3.07,3.57,2.12,7-.87,3.17-2.18,6-4.79,8.14-.17.14-.39.31-.43.51-1.12,4.49-5.51,6.61-7.6,10.46-.88,1.63-2.87,2.67-4.35,4-.53.48-1.29.87-1.58,1.47-1.52,3.22-4.19,5.18-7.18,6.84a7.2,7.2,0,0,0-1.55,1.19,38.47,38.47,0,0,0-3.61,3.64c-.9.89-2.25,1.61-5,3.06a46.75,46.75,0,0,1-6,2.94c-3.27,1.19-6.43,2.74-9.82,3.59-.06,0-.64.16-.69.46a.83.83,0,0,0,.12.51l0,0c4.86,0,9.48-1.42,14-3,7.07-2.4,12.43-7.31,17.76-12.23a128.41,128.41,0,0,0,22.08-25.8C259.26,18.45,257.09,11.51,250,10.2Z"/>
    <path class="cls-1" d="M202.59,48.37c-4.23-2-8.43-3.72-13.45-3.06-4.33.57-8.81-.06-13.22.06a17.38,17.38,0,0,0-5.63,1.05c-3.55,1.34-7,3-10.44,4.52l.06.5c.71,0,1.43.1,2.15.1,7.39,0,14.81,0,22.22.08a62.6,62.6,0,0,1,7,.91,18.69,18.69,0,0,0,2,.15,52.88,52.88,0,0,0,8.67-.76h0c.62-.08,1.63-.83,1.62-1.25C203.62,49.87,203.2,48.65,202.59,48.37Z"/>
    <path class="cls-1" d="M243.24,26.31c-4.21-.95-8.46-1.76-12.71-2.57A16.33,16.33,0,0,0,220.44,25c-3.77,1.75-7.37,3.86-11.4,6,2.62,1.84,5.05,1.4,7.51,1.27q9.7-.5,19.42-.72c1.39,0,2.8.71,4.18.66a8.62,8.62,0,0,0,4.3-1.09,4.33,4.33,0,0,0,1.42-3.28C245.86,27.3,244.23,26.54,243.24,26.31Z"/>
    <path class="cls-1" d="M203.27,33.41c-1.83,1-3.85,1.59-5.78,2.41a13.44,13.44,0,0,1-9,.77,4.62,4.62,0,0,0-3.2.31c-3.31,2-6.49,4.16-9.72,6.26,0,.19.08.34.1.43l.12.43h0a12.15,12.15,0,0,0,2.93.34c8.88-.41,17.76-.81,26-4.64a3.13,3.13,0,0,1,1.53-.3c3.4.29,5.26-1.56,6.48-4.71C209.76,33.4,206.89,31.46,203.27,33.41Z"/>
    <path class="cls-1" d="M220.44,79.39c-1-4-6.64-8.44-11.41-8.74,1.86,1.35,3.43,2.45,4.95,3.61,3.19,2.41,3.63,4.37,1.93,7.89-1.32,2.72-3.63,4.61-5.43,6.86-2.88,3.64-6.94,4.69-10.57,6.19-4.77,2-9.83,4.65-15.47,2.64a3.23,3.23,0,0,0-2,0c-3.24,1.11-6.15.21-9-1.27-.31-.16,0,0-7.8-3.92l-.08,0a5.67,5.67,0,0,0,4.66,5.25,10.81,10.81,0,0,1,3.47.68c8,4,16.15,3.64,24.43,1.09a28.28,28.28,0,0,0,12-6.67C213,90.12,216,87.4,219,84.69A5,5,0,0,0,220.44,79.39Z"/>
    <path class="cls-1" d="M180.73,93.88a.47.47,0,0,0-.12-.19c-1.66-2.28-2.81-3.59-2.81-3.59-3-3.37-4.59-6.62-8.32-9.8-1-.88-1.52-1.14-8.12-4.84l-9.47-5.28,0,0s-1-.25-1-.05.42.53.53.61c.59.71,1.12,1.48,1.77,2.14,3.87,4,7.85,8,11.66,12.08a61.23,61.23,0,0,1,5.69,7.14c2.14,3.17,5.15,4.39,8.74,4.56a3.19,3.19,0,0,0,2.16-.83C181.57,95.59,181,94.54,180.73,93.88Z"/>
    <path class="cls-1" d="M232.7,42.61a16.75,16.75,0,0,0-4.27-1.08c-5.67-.37-11.35-.65-17-.8-4.77-.13-9.28,1.18-13.7,2.82,0,.32-.08.64-.13,1,2.63.63,5.25,1.47,7.91,1.86,5.75.83,11.59,1.18,17.3,2.22,3.1.56,5.42,0,7.38-2.27a18.86,18.86,0,0,0,2.58-3.7Z"/>
    <path class="cls-1" d="M222.56,22.2a5.21,5.21,0,0,0-2.22-1.42,6.15,6.15,0,0,0-3.61.25c-5.77,1.77-11.52,3.59-17.3,5.3-1.78.52-3.66.69-5.47,1.15a7,7,0,0,0-5.12,5.12c-.48,1.56-.14,2.44,1.72,2.41a21,21,0,0,0,9.08-2c6.72-3.29,13.56-6.33,20.37-9.48.64-.3,2.59-1.3,2.59-1.3Z"/>
    <path class="cls-1" d="M238.59,34.11a60.46,60.46,0,0,0-20.26-.63c-5.27.75-5.17,4.16-5.34,5.05h0c2.87.59,5.12,1.07,5.56,1.1,4.76.29,9.53.34,14.3.55a8.64,8.64,0,0,0,6.8-2.81C241.17,35.85,240.68,34.52,238.59,34.11Z"/>
    <path class="cls-1" d="M183.61,30.14q-9,5.89-17.93,11.9c-2.11,1.42-4.22,2.85-6.19,4.45a7.46,7.46,0,0,0-1.7,2.55v.06a3.56,3.56,0,0,0,.44.47,20,20,0,0,0,2.71-.71A67.56,67.56,0,0,0,169.54,45c5.31-3.19,10.54-6.54,15.54-10.18,1.76-1.28,2.73-3.62,4.32-5.84C186.68,28,185.12,29.15,183.61,30.14Z"/>
    <path class="cls-1" d="M251.18,20.89c-.13-1-1.84-1.44-2.72-1.67-4.1-1.06-8.25-2.06-12.42-2.8a18.23,18.23,0,0,0-13.32,2.73c-.05.29-.11.58-.17.87a22.66,22.66,0,0,0,4.08,1.59q9.68,1.76,19.38,3.21a4.73,4.73,0,0,0,3.27-.6A4.6,4.6,0,0,0,251.19,21Z"/>
    <path class="cls-1" d="M195,54.66c0,2.83-.08,5.3.07,7.76a2.62,2.62,0,0,0,1.34,1.72,3.08,3.08,0,0,0,2.18.08c3-1,7.13-2.47,7.89-2.77,1.77-.7,3.81-1.41,7.91-2.84C213.84,58.38,200.06,52.09,195,54.66Z"/>
    <path class="cls-1" d="M227.92,14.43c-5.08-.51-7.62-.78-8.12-.88a9.92,9.92,0,0,0-3.31-.21,13.09,13.09,0,0,0-3.94,1.15l-.45.23c-5,2.58-10.11,4.84-15.09,7.35a36.77,36.77,0,0,0-4.36,3.06c1.5.48,8.94-1.29,16.7-3.63a134.36,134.36,0,0,0,18.59-7.07Z"/>
    <path class="cls-1" d="M210,74.46c-4.92-.15-9.85-.16-14.77-.39-2.95-.13-5.89-.6-8.84-.87a4.11,4.11,0,0,0-1.21.32s-.42.29-.42.49v.09a.3.3,0,0,0,.24.15,20.09,20.09,0,0,0,3.51,1.6c7.79,2,15.63,3.83,23.4,5.88,1.87.48,2.58.12,2.85-1.76C215.28,76.71,213.55,74.58,210,74.46Z"/>
    <path class="cls-1" d="M190.27,65a92.26,92.26,0,0,0-17.59-4c-13.11,3.39,10.18,7.52,17.66,4Z"/>
    <path class="cls-1" d="M209.51,47.79c-1-.16-2.42,1.38-3.79,3.41a1.1,1.1,0,0,0,.08.9c.28.38.91.35,1.13.34,2.54-.07,6.91,3,9,3.87l7-6C218.43,49.42,214,48.52,209.51,47.79Z"/>
    <path class="cls-1" d="M222.9,50.34l-7,6a2.77,2.77,0,0,0,1.62-.08c1.95-1.08,3.86-2.24,5.72-3.46a1.48,1.48,0,0,0,.8-1.39A1.68,1.68,0,0,0,222.9,50.34Z"/>
    <path class="cls-1" d="M212.8,84.1c-.17-.64-1.75-1-1.75-1-1.32-.27-2.56-.82-3.85-1.17-5.62-1.51-11.24-3-16.86-4.48a22,22,0,0,0-3.37-.36c-.08.38-.17.75-.27,1.12,5,2.2,9.88,4.42,14.84,6.58,1.42.63,3,1,4.39,1.67a5.37,5.37,0,0,0,5.33-.39,5,5,0,0,0,1.55-1.48v0A1.15,1.15,0,0,0,212.8,84.1Z"/>
    <path class="cls-1" d="M207.3,89.45c-.07-.66-.75-1-1-1.18s-.42-.16-.62-.25c-6.7-3.06-13.39-6.15-20.12-9.15a19.27,19.27,0,0,0-3.41-.82c-.16.28-.3.55-.45.83a12.61,12.61,0,0,0,1.89,1.84c5.51,3.41,11.07,6.75,16.59,10.15a5.64,5.64,0,0,0,6.23-.05c.24-.17,1-.7.93-1.34Z"/>
    <path class="cls-1" d="M181.93,74c-9.64-2.64-19.31-5.18-29-7.73a2.45,2.45,0,0,0-1.84.09h0s1.61.78,1.7.81c6.55,2.71,13.08,5.48,19.66,8.1a19.18,19.18,0,0,0,13,.86C184,75.18,183.06,74.26,181.93,74Z"/>
    <path class="cls-1" d="M189.67,94.49c-2.69-3.28-5.3-6.64-8.12-9.74a5.85,5.85,0,0,0-3.75-1.46c.19,1.51,1.1,7.29,5.26,10.85.83.71,4.73,4,8.17,2.6h0S190.19,95.13,189.67,94.49Z"/>
    <path class="cls-1" d="M182,82.46c4.2,7.91,10,12,12.37,12a19.74,19.74,0,0,0,5.71-1h0C194.62,88.72,189,84.6,182,82.46Z"/>
    <path class="cls-1" d="M165.8,97.1c-1.85-5-5.48-7.7-7.34-9.32a32.52,32.52,0,0,1-7.62-10.14l-.3.18c.58,2.14,1.8,4.36,1.57,6.41-.28,2.38,1,3.5,2.12,5.16-.15-1-.3-1.92-.46-2.84-.1-.63-.34-2.09-.44-2.72l0,0a12.29,12.29,0,0,0,2.45,4.22c1.27,1.41,2.38,1.94,2.57,3.19a3.83,3.83,0,0,1-1.17,2.92c.49,1.36,1,2.72,1.43,4.09.17.42.25.75.17.8s-.35-.19-.62-.56c-1.09-1.67-2.19-3.34-3.34-5.12-.15,3.6,1.5,6.38,4.25,7.33a5.32,5.32,0,0,0,2.35.28,6.73,6.73,0,0,0,4.63-3.15C166,97.7,165.92,97.43,165.8,97.1Z"/>
    <path class="cls-1" d="M188.41,69.56l0,0s1.16,1.84,2.61,2c5.09.67,10.2,1.11,15.33,1.57a8.71,8.71,0,0,0,2.21-.4C194,67.57,190.06,68.9,188.41,69.56Z"/>
    <path class="cls-1" d="M184.44,68.84c-4.54-.27-9.14-.26-13.61-1-4.31-.7-8.48-2.22-12.73-3.31a22.75,22.75,0,0,0-3.19-.37s-.08-.07-.11-.06-.11.24-.1.67a9.87,9.87,0,0,0,2,1c8.27,2.23,16.54,4.51,24.87,6.53a4.65,4.65,0,0,0,2.53,0,21.32,21.32,0,0,1,2.5-.46h.06C187.18,69.51,186.15,68.94,184.44,68.84Z"/>
    <path class="cls-1" d="M234.06,8.7a46.92,46.92,0,0,0-14.39,3h0A119,119,0,0,0,247,10.44,39.65,39.65,0,0,0,234.06,8.7Z"/>
    <path class="cls-1" d="M178.65,79c-7.72-3.16-15.48-6.23-23.23-9.31-.12-.05-.28,0-.56.34,8.41,3.84,15.34,10.94,25.26,11.42l.23-.32.22-.31h0C179.94,80.18,179.42,79.3,178.65,79Z"/>
    <path class="cls-1" d="M248.33,12.58c-5.41.45-10.84.86-16.73,1.32l10.53,2,10.15,2h0C253.21,14.88,251.2,12.34,248.33,12.58Z"/>
    <path class="cls-1" d="M129.84,40h.27l6.37.11c-1.6,3.34-7.32,3.52-4.51,8.42h-4.35c2.82-4.9-2.91-5.08-4.51-8.42,2.37-.05,4.37-.18,6.37-.11h.32"/>
    <path class="cls-1" d="M154.53,29.19c-.75.24-1.91.26-2.18.77a61.27,61.27,0,0,0-3.59,7.6,2.8,2.8,0,0,0,.67,2.58A2.61,2.61,0,0,0,153.07,39a7.34,7.34,0,0,0,1-2.93.25.25,0,0,1-.22,0h0a.16.16,0,0,1-.09-.13A41.05,41.05,0,0,0,155,31.53,6.57,6.57,0,0,0,154.53,29.19Z"/>
    <path class="cls-1" d="M129.8,50.44v1.44a83.44,83.44,0,0,0,12.41-1.28c0-.29-.05-.57-.07-.86l-6.16.35-6.16.35"/>
    <path class="cls-1" d="M139.74,39,137,42l0,0L134.31,45c1.3,1.9,1.8,2,3.37.31,1-1.08,1.88-2.29,2.78-3.46C141.69,40.25,141.11,39.33,139.74,39Z"/>
    <path class="cls-1" d="M129.78,36.79a4.39,4.39,0,0,1-2.39,1.58,5.28,5.28,0,0,1-3.26-.08l1.82-.77a6.47,6.47,0,0,0,1.83-.8,11.76,11.76,0,0,1,2-1.63,12.16,12.16,0,0,1,2,1.63,6.53,6.53,0,0,0,1.82.8l1.82.77c-2.37.48-4.43.25-5.66-1.53Z"/>
    <path class="cls-1" d="M166.27,91.2q-6-7.28-12-14.54c-.33-.18-1.33-.7-1.46-.52s.47.78.76,1.07a31.76,31.76,0,0,0,5.52,7.63c2.38,2.59,4.47,5,6.53,6.88.09.07.78.46,1.08.37l.07,0C166.92,91.88,166.3,91.23,166.27,91.2Z"/>
    <path class="cls-1" d="M142.2,42.52l-2.39,3.14,0,0c-.46.6-.81,1-.87,1.14-.23.29-.63.82-1.41,1.84C141.93,49.12,143.27,47.39,142.2,42.52Z"/>
    <path class="cls-1" d="M147.8,73.1c-.2-.06-.17,0-.77,0s-1-.18-1.23,0-.34.58-.38.82c-.16.8-1.24,1.56-3.38,3.09a16.31,16.31,0,0,1-1.82,1.11l-.34.17-.08,0A3.66,3.66,0,0,0,142,80.1c.16,0,.08,0,2.54,0h1.69c.5,0,.63.08.84,0,.5-.19.6-.77.84-1.54a11.44,11.44,0,0,1,.5-1.36,2,2,0,0,0,.28-.58,1.78,1.78,0,0,0,.07-.52C148.79,75.56,148.74,73.4,147.8,73.1Z"/>
    <path class="cls-1" d="M129.8,33.13h-1.56a4.86,4.86,0,0,1,.73-1.21,2.45,2.45,0,0,1,.83-.68,3.7,3.7,0,0,1,1.55,1.89h-1.51"/>
    <path class="cls-1" d="M136,34.79a2.8,2.8,0,0,0-1.79-1,4.48,4.48,0,0,0,1,2.82,5,5,0,0,0,2.42,1.54h0A30.66,30.66,0,0,0,136,34.79Z"/>
    <path class="cls-1" d="M129.83,81c2.12-.15,3.19-.23,3.78-.2a9,9,0,0,1,2.71.69,26.27,26.27,0,0,0,3.51,1.45c1.6.32,3.28.2,4.89.43a6.78,6.78,0,0,1,1.94,1c-.67.56-1.28,1.52-2,1.61a24.54,24.54,0,0,1-5.35,0c-3.18-.29-6.35-.58-9.5-.59s-6.33.3-9.5.59a24.53,24.53,0,0,1-5.35,0c-.74-.09-1.35-1-2-1.61a6.86,6.86,0,0,1,1.93-1c1.61-.23,3.3-.11,4.9-.43a26.82,26.82,0,0,0,3.51-1.45,7.59,7.59,0,0,1,2.7-.69c1.28,0,2.55.11,3.82.2"/>
    <path class="cls-1" d="M129.89,87.29c1.43-.06,2.49,0,2.76,0,4.4.21,8.8.4,13.21.66.5,0,1.38.13,1.43.31A13.61,13.61,0,0,1,147.7,93c-.11.56-2.06,1.07-3.16,1-4.09-.08-8.18-.63-12.26-.55-.83,0-1.65,0-2.48.09s-1.65-.07-2.48-.09c-4.09-.08-8.17.47-12.26.55-1.11,0-3-.49-3.16-1a13.37,13.37,0,0,1,.41-4.75c0-.18.92-.28,1.42-.31L127,87.3c1,0,1.91,0,2.85,0"/>
    <path class="cls-1" d="M129.84,129.25l3.77-.2,3.78-.2c.09.17.19.33.29.5-1.8,2-3.5,4.18-5.42,6.1a1.92,1.92,0,0,1-2.46.48,1.92,1.92,0,0,1-2.46-.48c-1.92-1.92-3.63-4.06-5.42-6.1l.28-.5,7.6.4"/>
    <path class="cls-1" d="M129.84,122.35s.8,0,1.65-.13c.63-.06,4.88-.82,10.66-2.13.18,3.25-1.12,5.68-4.29,6.41a55.78,55.78,0,0,1-8.06,1.09,55.91,55.91,0,0,1-8.07-1.09c-3.16-.73-4.46-3.16-4.28-6.41a106.15,106.15,0,0,0,10.65,2.13c.56.06,1.12.1,1.7.13"/>
    <path class="cls-1" d="M129.89,112.87c7.72-.51,8.5-.56,9.58-.69a44.67,44.67,0,0,0,5.23-.92c0,5.63-.75,6.51-5.8,7.77a42.12,42.12,0,0,1-9.1,1.23,42,42,0,0,1-9.1-1.23c-5.06-1.26-5.85-2.14-5.81-7.77a51.7,51.7,0,0,0,5.23.92q4.84.38,9.68.69"/>
    <path class="cls-1" d="M129.83,103.63c5.65-.11,11.18,0,16.61.36-.71,2.4-.32,5.19-3.84,6.05a49.81,49.81,0,0,1-12.8,1.33A49.93,49.93,0,0,1,117,110c-3.52-.86-3.13-3.65-3.83-6.05,2.08-.4,9.47-.5,16.64-.36"/>
    <path class="cls-1" d="M129.82,95.46a104.9,104.9,0,0,1,15.63.51c.37,0,2.28,0,2.25,3.14,0,1.67-.63,2.79-2.46,2.79H114.35c-1.82,0-2.43-1.12-2.45-2.79s.18-2.87,2.25-3.14a87.2,87.2,0,0,1,15.65-.51"/></g></g></svg>