<svg id="Calque_1" data-name="Calque 1" xmlns="http://www.w3.org/2000/svg" viewBox="0 0 21.69 21.69"><defs><style>.cls-1{fill:white;}.cls-2{fill:#bdc2e8;}.cls-3{fill:black;}</style></defs><path class="cls-1" d="M-7.58-24.11A10.84,10.84,0,0,0-18.43-13.27,10.85,10.85,0,0,0-7.58-2.42,10.84,10.84,0,0,0,3.26-13.27,10.84,10.84,0,0,0-7.58-24.11ZM-2.83-8.28a1.91,1.91,0,0,1-1.9,1.9h-5.7a1.9,1.9,0,0,1-1.9-1.9V-13a1.9,1.9,0,0,1,1.9-1.9v-3.79a2.84,2.84,0,0,1,2.85-2.85,2.85,2.85,0,0,1,2.85,2.85v3.79A1.91,1.91,0,0,1-2.83-13Z" transform="translate(18.43 24.11)"/><path class="cls-2" d="M-4.73-14.93v-3.79a2.85,2.85,0,0,0-2.85-2.85,2.84,2.84,0,0,0-2.85,2.85v3.79a1.9,1.9,0,0,0-1.9,1.9v4.75a1.9,1.9,0,0,0,1.9,1.9h5.7a1.91,1.91,0,0,0,1.9-1.9V-13A1.91,1.91,0,0,0-4.73-14.93Zm-.95,0h-3.8v-3.79a1.9,1.9,0,0,1,1.9-1.9,1.9,1.9,0,0,1,1.9,1.9Z" transform="translate(18.43 24.11)"/><path class="cls-1" d="M-5.68-18.72v3.79h-3.8v-3.79a1.9,1.9,0,0,1,1.9-1.9A1.9,1.9,0,0,1-5.68-18.72Z" transform="translate(18.43 24.11)"/><path class="cls-1" d="M-4.94-11.49v1.76A1.69,1.69,0,0,1-6.63-8h-.74a.79.79,0,0,0,.15-.51.82.82,0,0,0,0-.28.68.68,0,0,0,0-.26.49.49,0,0,0,0-.12A.7.7,0,0,0-7-9.7c0-.34-.21-.62-.46-.62S-8-10-8-9.7a.7.7,0,0,0,.18.49.49.49,0,0,0,0,.12.68.68,0,0,0,0,.26.82.82,0,0,0,0,.28A.79.79,0,0,0-7.65-8h-.74a1.69,1.69,0,0,1-1.69-1.69v-1.76a1.69,1.69,0,0,1,1.69-1.69h1.76A1.69,1.69,0,0,1-4.94-11.49Z" transform="translate(18.43 24.11)"/><path class="cls-3" d="M-7.37-8A.19.19,0,0,1-7.51-8,.19.19,0,0,1-7.65-8Z" transform="translate(18.43 24.11)"/></svg>