
<svg xmlns="http://www.w3.org/2000/svg" width="20" height="20" viewBox="0 0 8 8">
  <path id="Ligne_2" data-name="Ligne 2" d="M0,7.5a.5.5,0,0,1-.354-.146.5.5,0,0,1,0-.707l7-7a.5.5,0,0,1,.707,0,.5.5,0,0,1,0,.707l-7,7A.5.5,0,0,1,0,7.5Z" transform="translate(0.5 0.5)" fill="#707070"/>
  <path id="Ligne_3" data-name="Ligne 3" d="M0,7.5a.5.5,0,0,1-.354-.146.5.5,0,0,1,0-.707l7-7a.5.5,0,0,1,.707,0,.5.5,0,0,1,0,.707l-7,7A.5.5,0,0,1,0,7.5Z" transform="translate(7.5 0.5) rotate(90)" fill="#707070"/>
</svg>
